<?xml version="1.0" encoding="UTF-8"?>
<svg width="30px" height="30px" viewBox="0 0 30 30" version="1.1" xmlns="http://www.w3.org/2000/svg" xmlns:xlink="http://www.w3.org/1999/xlink">
    <title>65321108-265B-4003-8D12-787486F819D6@1.5x</title>
    <defs>
        <path d="M12.2645469,1.75586437 L10.2274102,1.75586437 L9.22539844,0.252002473 C9.12050781,0.0945795842 8.94394922,0 8.75486719,0 L5.24513281,0 C5.05605078,0 4.87946484,0.0945522253 4.77460156,0.252002473 L3.77258984,1.75586437 L1.73542578,1.75586437 C0.77853125,1.75586437 0,2.53479852 0,3.49224923 L0,9.9302818 C0,10.8877325 0.77853125,11.6666667 1.73542578,11.6666667 L12.2645469,11.6666667 C13.2214687,11.6666667 14,10.8877325 14,9.9302818 L14,3.49224923 C14,2.53482588 13.2214687,1.75586437 12.2645469,1.75586437 Z M8.45217187,1.13172666 L9.45418359,2.63558856 C9.55907422,2.79301145 9.73563281,2.88756368 9.92474219,2.88756368 L12.2645469,2.88756368 C12.5978125,2.88756368 12.8689531,3.15882679 12.8689531,3.49224923 L12.8689531,9.9302818 C12.8689531,10.2637316 12.5978125,10.5349674 12.2645742,10.5349674 L1.73542578,10.5349674 C1.4021875,10.5349674 1.13107422,10.2637042 1.13107422,9.9302818 L1.13107422,3.49224923 C1.13107422,3.15882679 1.40221484,2.88756368 1.73542578,2.88756368 L4.07523047,2.88756368 C4.2643125,2.88756368 4.44089844,2.79301145 4.54578906,2.63558856 L5.54780078,1.13172666 L8.45217187,1.13172666 Z M7,3.51170139 C5.39798438,3.51170139 4.09467188,4.81576152 4.09467188,6.41863514 C4.09467188,8.02153611 5.39801172,9.32556889 7,9.32556889 C8.60198828,9.32556889 9.90532813,8.02150876 9.90532813,6.41863514 C9.90532813,4.81576152 8.60201563,3.51170139 7,3.51170139 Z M7,4.64337333 C7.97833203,4.64337333 8.77428125,5.43976243 8.77428125,6.41863514 C8.77428125,7.3975352 7.97833203,8.19389694 7,8.19389694 C6.02166797,8.19389694 5.22571875,7.39750784 5.22571875,6.41863514 C5.22571875,5.43976243 6.02166797,4.64337333 7,4.64337333 Z" id="path-1"></path>
        <rect id="path-3" x="0" y="0" width="14" height="14"></rect>
    </defs>
    <g id="Design" stroke="none" stroke-width="1" fill="none" fill-rule="evenodd">
        <g id="14.1_VirtualLearn_Menu_profile_edit-profile" transform="translate(-221.000000, -261.000000)">
            <g id="icn_change-profilepic" transform="translate(221.000000, 261.000000)">
                <circle id="Oval" fill="#EE5C4D" cx="15" cy="15" r="15"></circle>
                <g id="Add-/-Rectangular-Copy-27" transform="translate(8.000000, 9.166667)">
                    <mask id="mask-2" fill="white">
                        <use xlink:href="#path-1"></use>
                    </mask>
                    <g id="Combined-Shape" fill-rule="nonzero"></g>
                    <g id="â†³ðŸŽ¨Color" mask="url(#mask-2)">
                        <g transform="translate(0.000000, -1.166667)">
                            <mask id="mask-4" fill="white">
                                <use xlink:href="#path-3"></use>
                            </mask>
                            <use id="Rectangular" stroke="none" fill="#000000" fill-rule="evenodd" xlink:href="#path-3"></use>
                            <g id="â†³âš™ï¸State" stroke="none" stroke-width="1" fill="none" fill-rule="evenodd" mask="url(#mask-4)" opacity="0.100000001">
                                <rect id="Rectangular" x="0" y="0" width="14" height="14"></rect>
                            </g>
                            <rect id="Rectangle" stroke="none" fill="#FFFFFF" fill-rule="evenodd" mask="url(#mask-4)" x="-0.28" y="-0.28" width="14.56" height="15.4"></rect>
                        </g>
                    </g>
                </g>
            </g>
        </g>
    </g>
</svg>