<?xml version="1.0" encoding="UTF-8"?>
<svg width="37px" height="42px" viewBox="0 0 37 42" version="1.1" xmlns="http://www.w3.org/2000/svg" xmlns:xlink="http://www.w3.org/1999/xlink">
    <title>A06610EE-9FEA-459F-8862-2A0F7B0FE71D@1.5x</title>
    <g id="Design" stroke="none" stroke-width="1" fill="none" fill-rule="evenodd">
        <g id="08_VirtualLearn_Home_categories" transform="translate(-169.000000, -235.000000)" fill-rule="nonzero">
            <g id="code" transform="translate(138.000000, 223.000000)">
                <g id="icn_categories_developer" transform="translate(31.000000, 12.000000)">
                    <path d="M7.16797541,37.6797864 C15.3134029,37.6797864 20.9069811,42 24.8319066,42 C28.7568321,42 37,39.6897769 37,21.2019637 C37,2.71415037 25.910584,0 21.5935192,0 C1.37773876,0 -7.2575684,37.6797864 7.16797541,37.6797864 Z" id="Path" fill="#F3F3F1"></path>
                    <path d="M2.60243799,8.98286108 C1.62856659,8.98286108 0.836044875,8.1713892 0.836044875,7.17423133 C0.836044875,6.17707346 1.62856659,5.36560158 2.60243799,5.36560158 C3.5763094,5.36560158 4.36883111,6.17707346 4.36883111,7.17423133 C4.36883111,8.1713892 3.5763094,8.98286108 2.60243799,8.98286108 Z M2.60243799,6.57135475 C2.27742166,6.57135475 2.01364029,6.84144346 2.01364029,7.17423133 C2.01364029,7.50701921 2.27742166,7.77710791 2.60243799,7.77710791 C2.92745433,7.77710791 3.1912357,7.50701921 3.1912357,7.17423133 C3.1912357,6.84144346 2.92745433,6.57135475 2.60243799,6.57135475 Z" id="Shape" fill="#A4AFC1"></path>
                    <path d="M31.7479245,26.7279304 L31.7479245,29.7423133 C31.7479245,30.4054776 31.2180065,30.9480665 30.570329,30.9480665 L6.42962309,30.9480665 C5.78194561,30.9480665 5.25202767,30.4054776 5.25202767,29.7423133 L5.25202767,26.7279304 L31.7479245,26.7279304 Z" id="Path" fill="#FCBE4B"></path>
                    <path d="M31.7479245,13.4646456 L31.7479245,26.7279304 L5.25202767,26.7279304 L5.25202767,13.4646456 C5.25202767,12.8014814 5.78194561,12.2588924 6.42962309,12.2588924 L30.570329,12.2588924 C31.2180065,12.2588924 31.7479245,12.8014814 31.7479245,13.4646456 Z" id="Path" fill="#EFEFEF"></path>
                    <path d="M22.3036092,34.565326 L14.672791,34.565326 C16.1447852,33.0581345 16.4156322,30.9480665 16.4156322,30.9480665 L20.560768,30.9480665 C20.560768,30.9480665 20.8433909,33.0701921 22.3036092,34.565326 Z" id="Path" fill="#EFEFEF"></path>
                    <path d="M7.90161735,29.7423133 L7.90161735,26.7279304 L5.25202767,26.7279304 L5.25202767,29.7423133 C5.25202767,30.4054776 5.78194561,30.9480665 6.42962309,30.9480665 L9.07921276,30.9480665 C8.43153529,30.9480665 7.90161735,30.4054776 7.90161735,29.7423133 Z" id="Path" fill="#E1960A"></path>
                    <path d="M9.07921276,12.2588924 L6.42962309,12.2588924 C5.78194561,12.2588924 5.25202767,12.8014814 5.25202767,13.4646456 L5.25202767,26.7279304 L7.90161735,26.7279304 L7.90161735,13.4646456 C7.90161735,12.8014814 8.43153529,12.2588924 9.07921276,12.2588924 Z" id="Path" fill="#D5DBE1"></path>
                    <path d="M16.4156322,30.9480665 C16.4156322,30.9480665 16.1447852,33.0581345 14.672791,34.565326 L17.3223807,34.565326 C18.7943749,33.0581345 19.0652219,30.9480665 19.0652219,30.9480665 L16.4156322,30.9480665 Z" id="Path" fill="#D5DBE1"></path>
                    <path d="M30.570329,31.8523814 L6.42962309,31.8523814 C5.29324351,31.8523814 4.36883111,30.9058651 4.36883111,29.7423133 L4.36883111,13.4646456 C4.36883111,12.3010938 5.29324351,11.3545776 6.42962309,11.3545776 L30.570329,11.3545776 C31.7067086,11.3545776 32.631121,12.3010938 32.631121,13.4646456 L32.631121,29.7423133 C32.631121,30.9058651 31.7067086,31.8523814 30.570329,31.8523814 Z M6.42962309,13.1632073 C6.26711492,13.1632073 6.13522423,13.2982517 6.13522423,13.4646456 L6.13522423,29.7423133 C6.13522423,29.9087073 6.26711492,30.0437516 6.42962309,30.0437516 L30.570329,30.0437516 C30.7328372,30.0437516 30.8647279,29.9087073 30.8647279,29.7423133 L30.8647279,13.4646456 C30.8647279,13.2982517 30.7328372,13.1632073 30.570329,13.1632073 L6.42962309,13.1632073 Z" id="Shape" fill="#2B2B2B"></path>
                    <path d="M31.7479245,27.6322453 L5.25202767,27.6322453 C4.76450317,27.6322453 4.36883111,27.2271122 4.36883111,26.7279304 C4.36883111,26.2287486 4.76450317,25.8236155 5.25202767,25.8236155 L31.7479245,25.8236155 C32.235449,25.8236155 32.631121,26.2287486 32.631121,26.7279304 C32.631121,27.2271122 32.235449,27.6322453 31.7479245,27.6322453 Z" id="Path" fill="#2B2B2B"></path>
                    <path d="M22.3271612,35.4696409 L14.672791,35.4696409 C14.3159796,35.4696409 13.9933184,35.248988 13.8567174,34.9113771 C13.7201163,34.5737663 13.7954824,34.184308 14.0486654,33.9262768 C15.2745422,32.6710878 15.5383236,30.8491947 15.5406788,30.8311084 C15.6042689,30.3355439 16.0494,29.988287 16.5310365,30.0521919 C17.0150283,30.1173026 17.3553533,30.5718715 17.2917632,31.0662303 C17.2823424,31.1373697 17.1186566,32.3515632 16.4156322,33.6610111 L20.5643008,33.6610111 C19.8683419,32.3575919 19.6952354,31.1433985 19.6858146,31.0722591 C19.6186917,30.5779003 19.955484,30.1209198 20.4394757,30.0521919 C20.9258226,29.9846697 21.3674209,30.3283094 21.4357214,30.8214624 C21.4439646,30.8757213 21.7089236,32.5927138 22.8299944,33.8213763 C23.0596255,33.9853587 23.2103577,34.2566532 23.2103577,34.565326 C23.2103577,35.0645078 22.8146857,35.4696409 22.3271612,35.4696409 L22.3271612,35.4696409 Z" id="Path" fill="#2B2B2B"></path>
                    <path d="M22.3271612,22.8092326 C22.1234372,22.8092326 21.9197131,22.7380932 21.7524946,22.5909913 C21.3827296,22.2654379 21.3391586,21.6951167 21.6571094,21.3153045 L22.93009,19.7948497 L21.6559318,18.2731892 C21.337981,17.8945827 21.381552,17.3230557 21.751317,16.9975024 C22.1222596,16.671949 22.6804398,16.7177676 22.9972129,17.0951684 L24.7636061,19.2052364 C25.0474066,19.5440531 25.0474066,20.0432349 24.7636061,20.3832573 L22.9972129,22.4933253 C22.8229288,22.7019206 22.5756338,22.8092326 22.3271612,22.8092326 Z" id="Path" fill="#2B2B2B"></path>
                    <path d="M14.672791,22.8092326 C14.4243183,22.8092326 14.1770233,22.7019206 14.0015616,22.4933253 L12.2351685,20.3832573 C11.951368,20.0444406 11.951368,19.5452588 12.2351685,19.2052364 L14.0015616,17.0951684 C14.3195124,16.7153561 14.8753374,16.6707433 15.2474575,16.9975024 C15.6172225,17.3230557 15.6607935,17.893377 15.3428428,18.2731892 L14.0698621,19.7948497 L15.3440204,21.3165102 C15.6619711,21.6951167 15.6184001,22.2666437 15.2486351,22.5921971 C15.0814166,22.7368874 14.876515,22.8092326 14.672791,22.8092326 Z" id="Path" fill="#2B2B2B"></path>
                    <path d="M17.6167795,24.6178624 C17.5508342,24.6178624 17.4848888,24.6106279 17.4177659,24.5949531 C16.9420173,24.482818 16.6464409,23.9968995 16.7547797,23.510981 L18.5211728,15.6735854 C18.6306892,15.1864611 19.1064377,14.8886401 19.5798311,14.9947464 C20.0555796,15.1068814 20.3511561,15.5927999 20.2428173,16.0787185 L18.4764242,23.916114 C18.3833941,24.3357161 18.0195171,24.6178624 17.6167795,24.6178624 Z" id="Path" fill="#2B2B2B"></path>
                </g>
            </g>
        </g>
    </g>
</svg>