<?xml version="1.0" encoding="UTF-8"?>
<svg width="38px" height="41px" viewBox="0 0 38 41" version="1.1" xmlns="http://www.w3.org/2000/svg" xmlns:xlink="http://www.w3.org/1999/xlink">
    <title>79DEEA60-594D-4511-AA85-997C19BDBC77@1.5x</title>
    <g id="Design" stroke="none" stroke-width="1" fill="none" fill-rule="evenodd">
        <g id="08_VirtualLearn_Home_categories" transform="translate(-283.000000, -329.000000)">
            <g id="finance" transform="translate(252.000000, 317.000000)">
                <g id="icn_categories_finance" transform="translate(31.000000, 12.000000)">
                    <path d="M30.5071925,3.89369385 C22.2135417,4.04577091 16.4361713,-0.0732776551 12.439867,0.000992539375 C8.44356262,0.0752627339 0.0911426051,2.48727572 0.435362098,20.5608686 C0.77958159,38.6344615 12.1220336,41.0783046 16.5189279,40.9981399 C37.1037333,40.6197156 45.1970892,3.62372758 30.5071925,3.89369385 Z" id="Path" fill="#EFEFEF" fill-rule="nonzero"></path>
                    <g id="Group" transform="translate(0.000000, 1.515167)" fill="#A4AFC1" fill-rule="nonzero">
                        <polygon id="Path" transform="translate(6.147728, 1.461454) rotate(-45.000000) translate(-6.147728, -1.461454) " points="4.95365681 0.856739557 7.3315607 0.877215542 7.34179869 2.06616748 4.96389481 2.0456915"></polygon>
                        <polygon id="Path" transform="translate(1.271933, 6.252019) rotate(-45.000000) translate(-1.271933, -6.252019) " points="0.0778620637 5.64730503 2.45576595 5.66778102 2.46600394 6.85673296 0.0881000562 6.83625698"></polygon>
                        <polygon id="Path" transform="translate(1.272172, 1.250215) rotate(-45.000000) translate(-1.272172, -1.250215) " points="0.667457714 0.056144002 1.85640966 0.0663819945 1.87688564 2.44428588 0.687933699 2.43404789"></polygon>
                    </g>
                    <path d="M30.3068976,24.5042623 L30.3068976,27.9371957 C30.3068976,29.1962523 29.2526504,30.225425 27.9657253,30.225425 L8.06096326,30.225425 C6.77283875,30.225425 5.71979096,29.1950734 5.71979096,27.9371957 L5.71979096,13.0619367 C5.71979096,11.8028801 6.77403812,10.7737074 8.06096326,10.7737074 L27.9645259,10.7737074 C29.2526504,10.7737074 30.3056982,11.804059 30.3056982,13.0619367 L30.3056982,17.6383954 L30.3056982,24.5042623 L30.3068976,24.5042623 Z" id="Path" fill="#F3F3F1" fill-rule="nonzero"></path>
                    <path d="M31.6058164,24.3309651 L24.6098851,24.3309651 C22.7880404,24.3309651 21.3116147,22.8797491 21.3116147,21.0890122 C21.3116147,19.2982753 22.7880404,17.8470593 24.6098851,17.8470593 L31.6058164,17.8470593 C32.2126982,17.8470593 32.7056397,18.330405 32.7056397,18.9281032 L32.7056397,23.2511001 C32.7056397,23.8476194 32.2138975,24.3309651 31.6058164,24.3309651 L31.6058164,24.3309651 Z" id="Path" fill="#FCBE4B" fill-rule="nonzero"></path>
                    <rect id="Rectangle" fill="#E1960A" x="30" y="18" width="2" height="6"></rect>
                    <path d="M27.9657253,31.109594 L8.06096326,31.109594 C6.27390039,31.109594 4.82026267,29.6854925 4.82026267,27.9371957 L4.82026267,13.0619367 C4.82026267,11.3136399 6.27390039,9.88953844 8.06096326,9.88953844 L27.9657253,9.88953844 C29.7527881,9.88953844 31.2064259,11.3136399 31.2064259,13.0619367 L31.2064259,17.6383954 L29.4073693,17.6383954 L29.4073693,13.0619367 C29.4073693,12.2874047 28.7609083,11.6578764 27.9657253,11.6578764 L8.06096326,11.6578764 C7.26578025,11.6578764 6.61931925,12.2885836 6.61931925,13.0619367 L6.61931925,27.9360168 C6.61931925,28.7105488 7.26578025,29.3400772 8.06096326,29.3400772 L27.9657253,29.3400772 C28.7609083,29.3400772 29.4073693,28.7093699 29.4073693,27.9360168 L29.4073693,24.5030834 L31.2064259,24.5030834 L31.2064259,27.9360168 C31.2064259,29.6854925 29.7527881,31.109594 27.9657253,31.109594 Z" id="Path" fill="#2B2B2B" fill-rule="nonzero"></path>
                    <path d="M31.6058164,25.2151341 L24.6098851,25.2151341 C22.2950989,25.2151341 20.4120864,23.3642737 20.4120864,21.0890122 C20.4120864,18.8137507 22.2950989,16.9628903 24.6098851,16.9628903 L31.6058164,16.9628903 C32.7080384,16.9628903 33.605168,17.8447015 33.605168,18.9281032 L33.605168,23.2511001 C33.605168,24.3333229 32.7080384,25.2151341 31.6058164,25.2151341 L31.6058164,25.2151341 Z M24.6098851,18.7312283 C23.2869788,18.7312283 22.211143,19.7886944 22.211143,21.0890122 C22.211143,22.3893301 23.2869788,23.4467962 24.6098851,23.4467962 L31.6058164,23.4467962 C31.7161586,23.4467962 31.8061114,23.3583793 31.8061114,23.2499212 L31.8061114,18.9269243 C31.8061114,18.8184663 31.7161586,18.7300494 31.6058164,18.7300494 L24.6098851,18.7300494 L24.6098851,18.7312283 Z" id="Shape" fill="#2B2B2B" fill-rule="nonzero"></path>
                    <ellipse id="Oval" fill="#2B2B2B" fill-rule="nonzero" cx="24.6098851" cy="21.0890122" rx="1.19937105" ry="1.17889198"></ellipse>
                </g>
            </g>
        </g>
    </g>
</svg>