<?xml version="1.0" encoding="UTF-8"?>
<svg width="18px" height="18px" viewBox="0 0 18 18" version="1.1" xmlns="http://www.w3.org/2000/svg" xmlns:xlink="http://www.w3.org/1999/xlink">
    <title>4B1D2904-8DFA-4D6B-B45A-6783EAF2D5E9@1.5x</title>
    <defs>
        <path d="M8.61100245,0 C9.82399904,0.00066943906 11.0007847,0.251885255 12.1087695,0.746671187 C12.47559,0.910507589 12.6404025,1.34127401 12.4769962,1.70886652 C12.3135196,2.07645903 11.8838046,2.24174001 11.5169138,2.07790361 C10.5961712,1.66676233 9.61819427,1.45796781 8.61019386,1.45740407 L8.61019386,1.45740407 C6.69723604,1.45740407 4.90247359,2.2018203 3.55187538,3.55380533 C2.20025764,4.90684738 1.4552964,6.70637004 1.45420655,8.62086005 C1.45195655,12.5731226 4.6584188,15.7902705 8.60196729,15.7925255 L8.60196729,15.7925255 C10.5149603,15.7925255 12.3096876,15.0481092 13.6602858,13.6961242 C15.0118684,12.3431526 15.7568296,10.54363 15.7579194,8.62910472 L15.7579194,8.62910472 L15.7579194,7.89515287 C15.7579194,7.4927143 16.0834313,7.16645084 16.4850213,7.16645084 C16.8866113,7.16645084 17.2121232,7.4927143 17.2121232,7.89518811 L17.2121232,7.89518811 L17.2121232,8.62952752 C17.2107872,10.9337368 16.3143728,13.0991607 14.6879737,14.7272718 C13.0628402,16.3541144 10.9029096,17.25 8.60618604,17.25 L8.60618604,17.25 C6.30236088,17.2486611 4.14172718,16.3502739 2.51715621,14.7202955 C0.892585229,13.0903171 -0.00129794952,10.9238713 1.41459006e-06,8.62008491 C0.00133877031,6.316228 0.8977532,4.15080404 2.5241523,2.52272825 C4.14928578,0.895920864 6.30921635,0 8.60593995,0 L8.60593995,0 Z M16.758748,1.00757625 C17.0427051,0.723029419 17.5030764,0.723029419 17.7870336,1.00757625 C18.0709907,1.29215832 18.0709907,1.75354277 17.7870336,2.03812484 L17.7870336,2.03812484 L9.1202761,10.7240262 C8.97827995,10.8663348 8.79219784,10.9374715 8.60611573,10.9374715 C8.42003362,10.9374715 8.23391636,10.8663348 8.09195536,10.7240262 L8.09195536,10.7240262 L5.72825908,8.35512797 C5.44430194,8.07054591 5.44430194,7.60916146 5.72825908,7.32457939 C6.01218108,7.03999732 6.47258751,7.03999732 6.75650951,7.32457939 L6.75650951,7.32457939 L8.60604542,9.17818568 Z" id="path-1"></path>
    </defs>
    <g id="Design" stroke="none" stroke-width="1" fill="none" fill-rule="evenodd">
        <g id="08.2_VirtualLearn_Home_categories_design_course" transform="translate(-24.000000, -948.000000)">
            <g id="youll-learn" transform="translate(23.999999, 912.000000)">
                <g id="icn_youlllearn" transform="translate(0.000000, 36.000000)">
                    <mask id="mask-2" fill="white">
                        <use xlink:href="#path-1"></use>
                    </mask>
                    <use id="Combined-Shape" fill="#FCBE4B" xlink:href="#path-1"></use>
                </g>
            </g>
        </g>
    </g>
</svg>