<?xml version="1.0" encoding="UTF-8"?>
<svg width="157px" height="42px" viewBox="0 0 157 42" version="1.1" xmlns="http://www.w3.org/2000/svg" xmlns:xlink="http://www.w3.org/1999/xlink">
    <title>ACDCEDC6-BFDF-414B-9DB6-B2973DFE7445@1.5x</title>
    <g id="Design" stroke="none" stroke-width="1" fill="none" fill-rule="evenodd">
        <g id="04_VirtualLearn_Register" transform="translate(-23.000000, -731.000000)">
            <g id="btn_SM_facebook" transform="translate(24.000000, 732.000000)">
                <path d="M7.6916556,-3.10752092e-16 L147.808344,3.10752092e-16 C150.482901,-1.80555915e-16 151.452759,0.278476833 152.430537,0.801398111 C153.408315,1.32431939 154.175681,2.09168511 154.698602,3.06946289 C155.221523,4.04724067 155.5,5.01709938 155.5,7.6916556 L155.5,32.3083444 C155.5,34.9829006 155.221523,35.9527593 154.698602,36.9305371 C154.175681,37.9083149 153.408315,38.6756806 152.430537,39.1986019 C151.452759,39.7215232 150.482901,40 147.808344,40 L7.6916556,40 C5.01709938,40 4.04724067,39.7215232 3.06946289,39.1986019 C2.09168511,38.6756806 1.32431939,37.9083149 0.801398111,36.9305371 C0.278476833,35.9527593 1.2037061e-16,34.9829006 -2.07168062e-16,32.3083444 L-2.46249008e-16,7.6916556 C1.43077765e-16,5.01709938 0.278476833,4.04724067 0.801398111,3.06946289 C1.32431939,2.09168511 2.09168511,1.32431939 3.06946289,0.801398111 C4.04724067,0.278476833 5.01709938,1.80555915e-16 7.6916556,-3.10752092e-16 Z" id="facebook" stroke-opacity="0.297312063" stroke="#77869E" fill="#FFFFFF"></path>
                <g id="facebook" transform="translate(73.000000, 11.000000)" fill="#3B5998">
                    <path d="M9.34615385,0.129807692 L9.34615385,2.98557692 L7.64783654,2.98557692 C6.31730769,2.98557692 6.06850962,3.62379808 6.06850962,4.54326923 L6.06850962,6.58774038 L9.23798077,6.58774038 L8.81610577,9.78966346 L6.06850962,9.78966346 L6.06850962,18 L2.75841346,18 L2.75841346,9.78966346 L0,9.78966346 L0,6.58774038 L2.75841346,6.58774038 L2.75841346,4.22956731 C2.75841346,1.49278846 4.43509615,0 6.87980769,0 C8.04807692,0 9.05408654,0.0865384615 9.34615385,0.129807692 Z"></path>
                </g>
            </g>
        </g>
    </g>
</svg>