<?xml version="1.0" encoding="UTF-8"?>
<svg width="321px" height="234px" viewBox="0 0 321 234" version="1.1" xmlns="http://www.w3.org/2000/svg" xmlns:xlink="http://www.w3.org/1999/xlink">
    <title>CBDF576B-C0E0-4CDB-A6EF-B032FE531F5E@1.5x</title>
    <defs>
        <polygon id="path-1" points="0 234 321 234 321 0 0 0"></polygon>
    </defs>
    <g id="Design" stroke="none" stroke-width="1" fill="none" fill-rule="evenodd">
        <g id="03_VirtualLearn_Landing" transform="translate(-26.000000, -171.000000)">
            <g id="img_landing_illustration" transform="translate(26.000000, 171.000000)">
                <path d="M310.496379,84.0411768 L310.496379,183.453456 C310.496379,186.780774 307.791278,189.480875 304.45802,189.480875 L119.629911,189.480875 C116.296432,189.480875 113.591332,186.780774 113.591332,183.453456 L113.591332,84.0411768 C113.591332,80.7140784 116.296432,78.0139771 119.629911,78.0139771 L304.45802,78.0139771 C307.791278,78.0139771 310.496379,80.7140784 310.496379,84.0411768" id="Fill-1" fill="#DBDCF1"></path>
                <path d="M310.496379,173.750483 L310.496379,183.453478 C310.496379,186.780796 307.791278,189.480897 304.45802,189.480897 L119.629911,189.480897 C116.296432,189.480897 113.591332,186.780796 113.591332,183.453478 L113.591332,173.750483 L310.496379,173.750483 Z" id="Fill-3" fill="#AFAFD5"></path>
                <path d="M134.55439,181.667139 C134.55439,184.890725 131.936295,187.503761 128.70696,187.503761 C125.477406,187.503761 122.859311,184.890725 122.859311,181.667139 C122.859311,178.443553 125.477406,175.830297 128.70696,175.830297 C131.936295,175.830297 134.55439,178.443553 134.55439,181.667139" id="Fill-5" fill="#FFFFFF"></path>
                <path d="M282.628416,181.793394 C282.628416,182.500876 282.340373,183.141471 281.876779,183.605742 C281.411868,184.06826 280.770087,184.35599 280.061295,184.35599 L145.396192,184.35599 C143.978607,184.35599 142.829071,183.208578 142.829071,181.793394 C142.829071,180.378428 143.978607,179.231017 145.396192,179.231017 L280.061295,179.231017 C281.47888,179.231017 282.628416,180.378428 282.628416,181.793394" id="Fill-7" fill="#FFFFFF"></path>
                <path d="M189.172485,179.230995 L189.172485,184.355968 L145.396082,184.355968 C143.978497,184.355968 142.828961,183.208557 142.828961,181.793372 C142.828961,180.378407 143.978497,179.230995 145.396082,179.230995 L189.172485,179.230995 Z" id="Fill-9" fill="#EF4A4F"></path>
                <path d="M192.818658,181.864603 C192.818658,183.830027 191.222227,185.423508 189.253163,185.423508 C187.28388,185.423508 185.687448,183.830027 185.687448,181.864603 C185.687448,179.898959 187.28388,178.305478 189.253163,178.305478 C191.222227,178.305478 192.818658,179.898959 192.818658,181.864603" id="Fill-11" fill="#FFFFFF"></path>
                <path d="M189.253163,178.634547 C187.468878,178.634547 186.017017,180.083505 186.017017,181.864712 C186.017017,183.6457 187.468878,185.094658 189.253163,185.094658 C191.037448,185.094658 192.489089,183.6457 192.489089,181.864712 C192.489089,180.083505 191.037448,178.634547 189.253163,178.634547 M189.253163,185.752577 C187.105473,185.752577 185.35788,184.008433 185.35788,181.864712 C185.35788,179.720772 187.105473,177.976628 189.253163,177.976628 C191.400853,177.976628 193.148227,179.720772 193.148227,181.864712 C193.148227,184.008433 191.400853,185.752577 189.253163,185.752577" id="Fill-13" fill="#373133"></path>
                <mask id="mask-2" fill="white">
                    <use xlink:href="#path-1"></use>
                </mask>
                <g id="Clip-16"></g>
                <polygon id="Fill-15" fill="#AFAFD5" mask="url(#mask-2)" points="255.368793 109.967061 280.411407 109.967061 280.411407 90.2542605 255.368793 90.2542605"></polygon>
                <polygon id="Fill-17" fill="#D6E3F8" mask="url(#mask-2)" points="263.392518 92.7945751 263.392518 107.426703 272.387769 100.775795"></polygon>
                <polygon id="Fill-18" fill="#AFAFD5" mask="url(#mask-2)" points="255.368793 137.199003 280.411407 137.199003 280.411407 117.486422 255.368793 117.486422"></polygon>
                <polygon id="Fill-19" fill="#D6E3F8" mask="url(#mask-2)" points="263.392518 120.026605 263.392518 134.658732 272.387769 128.007825"></polygon>
                <polygon id="Fill-20" fill="#AFAFD5" mask="url(#mask-2)" points="255.368793 164.430945 280.411407 164.430945 280.411407 144.718144 255.368793 144.718144"></polygon>
                <polygon id="Fill-21" fill="#D6E3F8" mask="url(#mask-2)" points="263.392518 147.258503 263.392518 161.89063 272.387769 155.239723"></polygon>
                <polygon id="Fill-22" fill="#FC2B45" mask="url(#mask-2)" points="127.40044 178.469739 127.40044 184.864496 131.331756 181.957808"></polygon>
                <polygon id="Fill-23" fill="#AFAFD5" mask="url(#mask-2)" points="284.670094 95.5244142 294.98406 95.5244142 294.98406 93.8866336 284.670094 93.8866336"></polygon>
                <polygon id="Fill-24" fill="#AFAFD5" mask="url(#mask-2)" points="284.670094 100.905976 303.422998 100.905976 303.422998 99.2681949 284.670094 99.2681949"></polygon>
                <polygon id="Fill-25" fill="#AFAFD5" mask="url(#mask-2)" points="284.670094 106.287537 303.422998 106.287537 303.422998 104.649756 284.670094 104.649756"></polygon>
                <polygon id="Fill-26" fill="#AFAFD5" mask="url(#mask-2)" points="284.670094 122.665783 294.98406 122.665783 294.98406 121.028002 284.670094 121.028002"></polygon>
                <polygon id="Fill-27" fill="#AFAFD5" mask="url(#mask-2)" points="284.670094 128.047563 303.422998 128.047563 303.422998 126.409563 284.670094 126.409563"></polygon>
                <polygon id="Fill-28" fill="#AFAFD5" mask="url(#mask-2)" points="284.670094 133.428905 303.422998 133.428905 303.422998 131.791125 284.670094 131.791125"></polygon>
                <polygon id="Fill-29" fill="#AFAFD5" mask="url(#mask-2)" points="284.670094 150.041151 294.98406 150.041151 294.98406 148.40337 284.670094 148.40337"></polygon>
                <polygon id="Fill-30" fill="#AFAFD5" mask="url(#mask-2)" points="284.670094 155.422712 303.422998 155.422712 303.422998 153.784932 284.670094 153.784932"></polygon>
                <polygon id="Fill-31" fill="#AFAFD5" mask="url(#mask-2)" points="284.670094 160.804054 303.422998 160.804054 303.422998 159.166274 284.670094 159.166274"></polygon>
                <path d="M274.189543,18.7485537 L228.73234,18.7485537 C227.391215,18.7485537 226.303857,19.8339014 226.303857,21.1725481 L226.303857,40.9377627 C226.303857,42.2766287 227.391215,43.3617571 228.73234,43.3617571 L231.783708,43.3617571 L231.783708,51.3177571 L239.100354,43.3617571 L274.189543,43.3617571 C275.530669,43.3617571 276.618026,42.2766287 276.618026,40.9377627 L276.618026,21.1725481 C276.618026,19.8339014 275.530669,18.7485537 274.189543,18.7485537" id="Fill-32" fill="#DBDCF1" mask="url(#mask-2)"></path>
                <polygon id="Fill-33" fill="#FFFFFF" mask="url(#mask-2)" points="231.285444 26.2439663 248.970105 26.2439663 248.970105 24.2182324 231.285444 24.2182324"></polygon>
                <polygon id="Fill-34" fill="#FFFFFF" mask="url(#mask-2)" points="231.285444 31.9437413 271.636308 31.9437413 271.636308 29.9180075 231.285444 29.9180075"></polygon>
                <polygon id="Fill-35" fill="#FFFFFF" mask="url(#mask-2)" points="231.285444 37.6435164 271.636308 37.6435164 271.636308 35.6177826 231.285444 35.6177826"></polygon>
                <path d="M8.62167331,89.6591944 L33.6730758,89.6591944 C34.4908458,89.6591944 35.1539382,90.3210613 35.1539382,91.1375393 L35.1539382,103.063864 C35.1539382,103.880122 34.4908458,104.541989 33.6730758,104.541989 L31.8406733,104.541989 L31.8406733,109.653146 L27.4024803,104.541989 L8.62167331,104.541989 C7.80368357,104.541989 7.14059117,103.880122 7.14059117,103.063864 L7.14059117,91.1375393 C7.14059117,90.3210613 7.80368357,89.6591944 8.62167331,89.6591944" id="Fill-36" fill="#DBDCF1" mask="url(#mask-2)"></path>
                <path d="M25.4248698,97.0476073 C25.4248698,97.8298735 26.0600587,98.4638885 26.8437733,98.4638885 C27.6272682,98.4638885 28.2626768,97.8298735 28.2626768,97.0476073 C28.2626768,96.2655604 27.6272682,95.6313261 26.8437733,95.6313261 C26.0600587,95.6313261 25.4248698,96.2655604 25.4248698,97.0476073" id="Fill-37" fill="#FFFFFF" mask="url(#mask-2)"></path>
                <path d="M19.5847791,97.0476073 C19.5847791,97.8298735 20.219968,98.4638885 21.0036825,98.4638885 C21.7871774,98.4638885 22.422586,97.8298735 22.422586,97.0476073 C22.422586,96.2655604 21.7871774,95.6313261 21.0036825,95.6313261 C20.219968,95.6313261 19.5847791,96.2655604 19.5847791,97.0476073" id="Fill-38" fill="#FFFFFF" mask="url(#mask-2)"></path>
                <path d="M13.7446883,97.0476073 C13.7446883,97.8298735 14.3798772,98.4638885 15.1635918,98.4638885 C15.9470867,98.4638885 16.5824953,97.8298735 16.5824953,97.0476073 C16.5824953,96.2655604 15.9470867,95.6313261 15.1635918,95.6313261 C14.3798772,95.6313261 13.7446883,96.2655604 13.7446883,97.0476073" id="Fill-39" fill="#FFFFFF" mask="url(#mask-2)"></path>
                <polygon id="Fill-40" fill="#AFAFD5" mask="url(#mask-2)" points="48.5024189 220.983284 51.3628563 220.983284 51.3628563 201.323775 48.5024189 201.323775"></polygon>
                <path d="M46.1732025,191.208462 L46.1732025,199.447586 C46.1732025,201.520032 47.8564201,203.19992 49.9327035,203.19992 C52.0089869,203.19992 53.6919848,201.520032 53.6919848,199.447586 L53.6919848,191.208462 L46.1732025,191.208462 Z" id="Fill-41" fill="#DBDCF1" mask="url(#mask-2)"></path>
                <path d="M38.1437203,188.55731 L38.1437203,189.217861 C38.1437203,190.74533 39.3842172,191.983535 40.914515,191.983535 L62.7510838,191.983535 C64.2811618,191.983535 65.5218784,190.74533 65.5218784,189.217861 L65.5218784,188.55731 L38.1437203,188.55731 Z" id="Fill-42" fill="#AFAFD5" mask="url(#mask-2)"></path>
                <path d="M50.2474417,184.693415 L50.2474417,189.644916 L70.9689694,189.644916 C72.3386573,189.644916 73.4493041,188.536541 73.4493041,187.169166 C73.4493041,185.80179 72.3386573,184.693415 70.9689694,184.693415 L50.2474417,184.693415 Z" id="Fill-43" fill="#D34848" mask="url(#mask-2)"></path>
                <path d="M32.5947047,187.169187 L32.5947047,187.169187 C32.5947047,188.536563 33.7051318,189.644938 35.0750394,189.644938 L49.8298341,189.644938 C51.1997417,189.644938 52.3101688,188.536563 52.3101688,187.169187 C52.3101688,185.801812 51.1997417,184.693437 49.8298341,184.693437 L35.0750394,184.693437 C33.7051318,184.693437 32.5947047,185.801812 32.5947047,187.169187" id="Fill-44" fill="#EE504F" mask="url(#mask-2)"></path>
                <path d="M30.8028832,225.817127 L44.5590844,222.133217 L44.5590844,222.084531 C44.5590844,219.133544 46.9559283,216.741349 49.9121604,216.741349 L49.9123801,216.741349 C52.8686121,216.741349 55.2652363,219.133544 55.2652363,222.084531 L55.2652363,222.352085 L68.2043267,225.817127 C69.0119899,226.033364 69.5059037,226.846552 69.3244211,227.661495 C69.1411809,228.48521 68.3346162,229.013958 67.5043226,228.854522 L54.1211932,226.285566 L49.7895608,226.285566 L49.2176491,226.285566 L44.8860166,226.285566 L31.5026676,228.854522 C30.6725936,229.013958 29.866029,228.48521 29.682569,227.661495 C29.5013062,226.846552 29.9950002,226.033364 30.8028832,225.817127" id="Fill-45" fill="#DBDCF1" mask="url(#mask-2)"></path>
                <path d="M62.5184082,230.445897 C62.5184082,231.820072 63.6343281,232.933929 65.0110468,232.933929 C66.3877655,232.933929 67.5036854,231.820072 67.5036854,230.445897 C67.5036854,229.071723 66.3877655,227.957866 65.0110468,227.957866 C63.6343281,227.957866 62.5184082,229.071723 62.5184082,230.445897" id="Fill-46" fill="#AFAFD5" mask="url(#mask-2)"></path>
                <path d="M63.6320871,230.445897 C63.6320871,231.206014 64.2494793,231.822265 65.0110029,231.822265 C65.7725265,231.822265 66.3899187,231.206014 66.3899187,230.445897 C66.3899187,229.685781 65.7725265,229.06953 65.0110029,229.06953 C64.2494793,229.06953 63.6320871,229.685781 63.6320871,230.445897" id="Fill-47" fill="#DBDCF1" mask="url(#mask-2)"></path>
                <path d="M31.5443031,230.445897 C31.5443031,231.820072 32.6604427,232.933929 34.0369417,232.933929 C35.4136604,232.933929 36.5295803,231.820072 36.5295803,230.445897 C36.5295803,229.071723 35.4136604,227.957866 34.0369417,227.957866 C32.6604427,227.957866 31.5443031,229.071723 31.5443031,230.445897" id="Fill-48" fill="#AFAFD5" mask="url(#mask-2)"></path>
                <path d="M32.6580918,230.445897 C32.6580918,231.206014 33.275484,231.822265 34.0370076,231.822265 C34.7985312,231.822265 35.4159234,231.206014 35.4159234,230.445897 C35.4159234,229.685781 34.7985312,229.06953 34.0370076,229.06953 C33.275484,229.06953 32.6580918,229.685781 32.6580918,230.445897" id="Fill-49" fill="#DBDCF1" mask="url(#mask-2)"></path>
                <path d="M211.028937,219.914384 L211.028937,231.153841 C211.028937,232.110236 211.805841,232.885704 212.763787,232.885704 L297.978412,232.885704 L315.806765,225.592667 L298.991506,218.603809 L297.978412,218.18274 L212.763787,218.18274 C211.805841,218.18274 211.028937,218.957989 211.028937,219.914384" id="Fill-50" fill="#F1884F" mask="url(#mask-2)"></path>
                <polygon id="Fill-51" fill="#FCBB9D" mask="url(#mask-2)" points="297.949168 218.182631 297.949168 232.885594 297.97839 232.885594 308.178544 228.71285 315.806743 225.592558 308.543267 222.573585 308.178544 222.422044 297.97839 218.182631"></polygon>
                <polygon id="Fill-52" fill="#373133" mask="url(#mask-2)" points="308.178456 222.422044 308.178456 228.71285 315.806655 225.592558"></polygon>
                <polygon id="Fill-53" fill="#D87245" mask="url(#mask-2)" points="232.045825 218.182631 232.055712 225.534222 298.991352 225.592558 298.991352 218.603918 297.978258 218.182631"></polygon>
                <polygon id="Fill-54" fill="#DBA18A" mask="url(#mask-2)" points="297.949168 218.182631 297.949168 225.592558 308.573147 225.592558 308.543267 222.573585 308.178544 222.422044 297.97839 218.182631"></polygon>
                <polygon id="Fill-55" fill="#161415" mask="url(#mask-2)" points="308.178456 222.422044 308.178456 225.592558 315.806655 225.592558"></polygon>
                <path d="M211.028937,219.914384 L211.028937,231.153841 C211.028937,232.110236 211.805841,232.885704 212.763787,232.885704 L223.011839,232.885704 L223.011839,218.18274 L212.763787,218.18274 C211.805841,218.18274 211.028937,218.957989 211.028937,219.914384" id="Fill-56" fill="#EE504F" mask="url(#mask-2)"></path>
                <polygon id="Fill-57" fill="#373133" mask="url(#mask-2)" points="222.719731 232.885704 232.83222 232.885704 232.83222 218.18274 222.719731 218.18274"></polygon>
                <path d="M211.028937,219.914384 L211.028937,225.504945 L223.011839,225.504945 L223.011839,218.18274 L212.763787,218.18274 C211.805841,218.18274 211.028937,218.957989 211.028937,219.914384" id="Fill-58" fill="#CE4646" mask="url(#mask-2)"></path>
                <polygon id="Fill-59" fill="#161415" mask="url(#mask-2)" points="222.719731 225.504945 232.83222 225.504945 232.83222 218.182521 222.719731 218.182521"></polygon>
                <path d="M204.671775,207.358431 C204.671775,207.358431 202.993831,210.2774 204.671775,212.670034 L169.147775,212.670034 L169.147775,207.358431 L204.671775,207.358431 Z" id="Fill-60" fill="#DBDCF1" mask="url(#mask-2)"></path>
                <path d="M205.247114,212.861664 C205.247114,212.993248 205.193285,213.113208 205.106279,213.200054 C205.020371,213.286022 204.900188,213.339533 204.767482,213.339533 L151.920468,213.339533 C150.96296,213.339533 150.187375,212.565381 150.187375,211.61052 L150.187375,208.609969 C150.187375,207.654232 150.96296,206.88008 151.920468,206.88008 L204.767482,206.88008 C205.032895,206.88008 205.247114,207.093904 205.247114,207.358826 C205.247114,207.622871 205.032895,207.836695 204.767482,207.836695 L171.940233,207.836695 C171.298233,207.836695 170.778174,208.35667 170.778174,208.997484 L170.778174,211.222129 C170.778174,211.862942 171.298233,212.382918 171.940233,212.382918 L204.767482,212.382918 C205.032895,212.382918 205.247114,212.596742 205.247114,212.861664" id="Fill-61" fill="#EE504F" mask="url(#mask-2)"></path>
                <path d="M205.238963,212.77256 C205.269503,212.938355 205.212598,213.093843 205.106257,213.199988 C205.020349,213.285956 204.900166,213.339467 204.76746,213.339467 L171.628659,213.339467 C170.532074,213.339467 169.643117,212.452372 169.643117,211.357813 L169.643117,208.861887 C169.643117,207.767328 170.532074,206.880014 171.628659,206.880014 L204.746807,206.880014 C204.997279,206.880014 205.220727,207.062696 205.244895,207.31139 C205.272359,207.596708 205.048472,207.836629 204.76746,207.836629 L171.940211,207.836629 C171.298431,207.836629 170.778152,208.355947 170.778152,208.996541 L170.778152,211.222282 C170.778152,211.863315 171.298871,212.383071 171.94109,212.383071 L204.750982,212.383071 C204.984756,212.383071 205.196778,212.542946 205.238963,212.77256" id="Fill-62" fill="#D34848" mask="url(#mask-2)"></path>
                <path d="M204.456127,223.763695 C204.456127,223.763695 202.706337,228.190177 204.456127,232.089885 L177.753146,232.089885 L177.753146,223.763695 L204.456127,223.763695 Z" id="Fill-63" fill="#DBDCF1" mask="url(#mask-2)"></path>
                <path d="M205.413393,232.214385 C205.426136,232.410445 205.351434,232.588083 205.225758,232.714623 C205.108212,232.831075 204.946723,232.903446 204.767438,232.903446 L148.416668,232.903446 C146.93229,232.903446 145.728705,231.702304 145.728705,230.22045 L145.728705,225.58475 C145.728705,224.103774 146.931851,222.902852 148.416668,222.902852 L204.76568,222.902852 C205.106894,222.902852 205.404385,223.165361 205.4148,223.505944 C205.425038,223.858151 205.142268,224.146539 204.791606,224.146539 L180.852169,224.146539 C179.643311,224.146539 178.663613,225.124645 178.663613,226.33105 L178.663613,229.427658 C178.663613,230.633624 179.643091,231.611292 180.85129,231.611292 L204.744148,231.611292 C205.089097,231.611292 205.391202,231.870732 205.413393,232.214385" id="Fill-64" fill="#197A83" mask="url(#mask-2)"></path>
                <path d="M205.413393,232.214385 C205.426136,232.410445 205.351434,232.588083 205.225758,232.714623 C205.108212,232.831075 204.946723,232.903446 204.767438,232.903446 L180.263779,232.903446 C178.607146,232.903446 177.264044,231.562825 177.264044,229.909255 L177.264044,225.897043 C177.264044,224.243253 178.607146,222.902852 180.263779,222.902852 L204.76568,222.902852 C205.106894,222.902852 205.404385,223.165361 205.414491,223.505944 C205.425038,223.858151 205.142268,224.146539 204.791606,224.146539 L180.852169,224.146539 C179.643311,224.146539 178.663613,225.124645 178.663613,226.33105 L178.663613,229.427658 C178.663613,230.633624 179.643091,231.611292 180.85129,231.611292 L204.744148,231.611292 C205.089097,231.611292 205.391202,231.870732 205.413393,232.214385" id="Fill-65" fill="#156468" mask="url(#mask-2)"></path>
                <polygon id="Fill-66" fill="#373133" mask="url(#mask-2)" points="187.442029 225.839387 202.338318 225.839387 202.338318 225.733681 187.442029 225.733681"></polygon>
                <polygon id="Fill-67" fill="#AFAFD5" mask="url(#mask-2)" points="196.003523 225.733594 197.090221 230.707464 198.22987 228.908493 198.22987 226.104002"></polygon>
                <path d="M201.516615,227.02566 C201.516615,227.032019 201.516615,227.035528 201.516615,227.035528 L201.516615,230.694437 L199.347394,229.070692 L197.08809,230.694437 L197.08809,227.010308 C197.08809,226.108081 196.003589,225.732848 196.003589,225.732848 L200.793322,225.729339 C201.510244,225.943821 201.518153,226.916445 201.516615,227.02566" id="Fill-68" fill="#6D68E0" mask="url(#mask-2)"></path>
                <path d="M201.516615,227.02566 L197.08809,227.02566 L197.08809,227.010308 C197.08809,226.108081 196.003589,225.732848 196.003589,225.732848 L200.793322,225.729339 C201.510244,225.943821 201.518153,226.916445 201.516615,227.02566" id="Fill-69" fill="#5A5ABA" mask="url(#mask-2)"></path>
                <path d="M148.317644,213.810537 C148.317644,213.810537 150.091383,218.643613 148.317644,222.280372 L183.362231,222.280372 L183.362231,213.810537 L148.317644,213.810537 Z" id="Fill-70" fill="#DBDCF1" mask="url(#mask-2)"></path>
                <path d="M207.452721,216.507634 L207.452721,219.70249 C207.452721,221.469881 206.017339,222.90283 204.246675,222.90283 L148.365651,222.90283 C148.087714,222.90283 147.862509,222.67804 147.862509,222.400618 L147.862509,222.375617 C147.862509,222.098413 148.087714,221.873624 148.365651,221.873624 L180.125975,221.873624 C181.397012,221.873624 182.427464,220.845077 182.427464,219.576389 L182.427464,216.609611 C182.427464,215.341362 181.397452,214.313253 180.126854,214.313253 L148.365651,214.313253 C148.226573,214.313253 148.101117,214.256891 148.009716,214.16566 C147.911505,214.066753 147.853281,213.927712 147.863827,213.775075 C147.882063,213.508399 148.118694,213.308391 148.386523,213.308391 L204.247554,213.308391 C206.017778,213.308391 207.452721,214.740682 207.452721,216.507634" id="Fill-71" fill="#F1884F" mask="url(#mask-2)"></path>
                <path d="M183.853903,216.19817 L183.853903,220.013006 C183.853903,221.6089 182.557819,222.902808 180.958752,222.902808 L148.365717,222.902808 C148.08778,222.902808 147.862575,222.678019 147.862575,222.400596 L147.862575,222.375595 C147.862575,222.098392 148.08778,221.873602 148.365717,221.873602 L180.126041,221.873602 C181.397078,221.873602 182.42753,220.845055 182.42753,219.576367 L182.42753,216.609589 C182.42753,215.34134 181.397298,214.313231 180.12692,214.313231 L148.365717,214.313231 C148.226639,214.313231 148.100963,214.25687 148.009563,214.165638 C147.911571,214.066731 147.853347,213.927691 147.863893,213.775053 C147.882129,213.508377 148.11854,213.308369 148.386589,213.308369 L180.958752,213.308369 C182.557819,213.308369 183.853903,214.602058 183.853903,216.19817" id="Fill-72" fill="#D37146" mask="url(#mask-2)"></path>
                <polygon id="Fill-73" fill="#373133" mask="url(#mask-2)" points="151.499916 219.569196 166.396205 219.569196 166.396205 219.46349 151.499916 219.46349"></polygon>
                <polygon id="Fill-74" fill="#AFAFD5" mask="url(#mask-2)" points="155.816828 221.859194 157.721515 221.859194 157.721515 219.445068 155.816828 219.445068"></polygon>
                <polygon id="Fill-75" fill="#A82329" mask="url(#mask-2)" points="156.60676 221.557472 156.60676 229.222672 154.516854 227.351549 152.521425 229.222672 152.521425 221.859238"></polygon>
                <path d="M157.721625,219.445025 L153.670346,219.445025 C153.670346,219.445025 153.670346,221.255619 152.521469,221.85915 L156.572748,221.85915 C156.572748,221.85915 157.721625,221.557384 157.721625,219.445025" id="Fill-76" fill="#EE504F" mask="url(#mask-2)"></path>
                <path d="M196.865103,197.617715 C196.865103,197.617715 195.474763,201.512817 196.865103,205.77153 L161.727358,205.77153 L161.727358,197.761142 L196.865103,197.617715 Z" id="Fill-77" fill="#DBDCF1" mask="url(#mask-2)"></path>
                <path d="M163.358724,196.498594 L196.913001,196.498594 C197.297058,196.498594 197.608171,196.809351 197.608171,197.19248 C197.608171,197.575608 197.297058,197.886366 196.913001,197.886366 L163.68214,197.886366 C162.720239,197.886366 161.94026,198.664684 161.94026,199.624808 L161.94026,203.708294 C161.94026,204.668418 162.720239,205.446956 163.68214,205.446956 L196.913001,205.446956 C197.297058,205.446956 197.608171,205.757494 197.608171,206.140842 L197.608171,206.18865 C197.608171,206.571779 197.297058,206.882536 196.913001,206.882536 L163.358724,206.882536 C161.966405,206.882536 160.837742,205.755959 160.837742,204.366214 L160.837742,199.014917 C160.837742,197.625172 161.966405,196.498594 163.358724,196.498594" id="Fill-78" fill="#6D68E0" mask="url(#mask-2)"></path>
                <polygon id="Fill-79" fill="#373133" mask="url(#mask-2)" points="177.475869 203.16573 192.372158 203.16573 192.372158 203.059805 177.475869 203.059805"></polygon>
                <polygon id="Fill-80" fill="#AFAFD5" mask="url(#mask-2)" points="185.960947 205.454851 187.530573 205.454851 187.530573 203.057831 185.960947 203.057831"></polygon>
                <polygon id="Fill-81" fill="#156468" mask="url(#mask-2)" points="187.041559 205.155213 187.041559 211.401719 188.901645 209.543974 190.802378 211.401719 190.802378 205.454785"></polygon>
                <path d="M185.960903,203.057875 L189.66174,203.057875 C189.66174,203.057875 189.66174,204.85553 190.802488,205.454895 L187.10143,205.454895 C187.10143,205.454895 185.960903,205.155103 185.960903,203.057875" id="Fill-82" fill="#197A83" mask="url(#mask-2)"></path>
                <path d="M105.51694,137.369163 C105.481786,137.377935 105.444435,137.384514 105.404887,137.391093 C105.404887,137.391093 105.817947,137.970062 104.304127,138.606051 C104.304127,138.606051 104.958871,140.757448 95.6188912,142.358385 L86.0723819,160.440203 L85.1210267,162.240709 L85.0089733,162.453436 L84.9320739,162.422733 L84.7035729,162.819678 C82.0296715,167.462396 73.3839836,168.208038 70.3080082,161.190231 L63.4969199,143.207101 L76.6796715,142.329875 L80.8761807,150.009987 L85.5340862,144.518554 L87.9663039,141.652218 L88.109117,140.452612 C88.3112526,138.761759 88.7638604,137.943746 89.5943737,137.22442 C90.4226899,136.507288 91.4377618,136.024814 92.5077618,135.715592 C92.6066324,135.687082 92.7055031,135.658572 92.8043737,135.634449 C92.8043737,135.634449 97.6358522,133.522527 98.3367351,133.895348 C98.3367351,133.895348 99.5363655,134.353699 98.4356057,135.57085 C98.4356057,135.57085 105.251088,134.23308 105.598234,135.95025 C105.598234,135.95025 105.745441,135.974374 105.91462,136.092799 C106.600123,136.570887 106.332074,137.184945 105.51694,137.369163" id="Fill-83" fill="#FCBB9D" mask="url(#mask-2)"></path>
                <path d="M65.2854018,108.63916 L64.7106339,108.63916 L64.7108536,116.47827 L65.1773033,116.47827 C65.6745127,116.47827 66.1387653,116.236156 66.426369,115.831316 C67.3109316,114.586313 68.8012417,111.747829 66.4105497,109.131942 C66.1227263,108.816799 65.7127427,108.63916 65.2854018,108.63916" id="Fill-84" fill="#EE504F" mask="url(#mask-2)"></path>
                <path d="M59.8167351,122.318182 C59.8057495,122.318182 59.7947639,122.315989 59.7837782,122.315989 L60.2825257,125.357769 L60.9592402,129.500469 L49.2331828,129.307479 C49.0859754,129.160544 50.2614374,115.88373 50.2614374,115.88373 C50.2614374,115.88373 47.1700821,114.201649 47.0931828,111.278294 C47.0734086,110.541425 47.326078,109.837451 48.4180493,109.223393 L48.938768,104.381106 L63.9231622,104.381106 C63.9231622,104.381106 68.7326694,122.855483 59.8167351,122.318182" id="Fill-85" fill="#FCBB9D" mask="url(#mask-2)"></path>
                <path d="M51.3631639,112.124927 C51.3631639,112.124927 50.8367326,107.921918 47.6645232,109.779006 C47.6645232,109.779006 45.4871721,107.726078 47.690669,106.259795 C47.690669,106.259795 45.3401844,101.27452 50.6286649,100.834591 C50.6286649,100.834591 49.8941659,97.3155998 63.9966341,97.6088126 C63.9966341,97.6088126 66.0531433,97.9020253 65.9061556,101.127804 C65.9061556,101.127804 65.6124,103.034016 63.9966341,103.473945 C63.9966341,103.473945 65.9061556,105.23344 63.9966341,106.259795 C62.0868928,107.286368 56.6514246,105.23344 56.6514246,105.23344 C56.6514246,105.23344 58.1204226,106.113079 57.679899,106.699724 C57.2391556,107.286368 52.8321618,105.966582 52.8321618,105.966582 L52.5384062,112.41814 L51.3631639,112.124927 Z" id="Fill-86" fill="#373133" mask="url(#mask-2)"></path>
                <polygon id="Fill-87" fill="#FCBB9D" mask="url(#mask-2)" points="84.3981505 220.747376 83.5061177 224.061097 82.2361793 228.787151 73.9859739 228.787151 75.4668363 222.723327 75.9502039 220.747376"></polygon>
                <polygon id="Fill-88" fill="#FCBB9D" mask="url(#mask-2)" points="67.6999986 227.216917 59.2542491 227.216917 58.744516 223.648801 58.2721341 220.354817 67.111169 220.354817 67.3155016 222.723327"></polygon>
                <polygon id="Fill-89" fill="#E6A68A" mask="url(#mask-2)" points="67.3155016 222.723283 58.744516 223.648757 58.2721341 220.354774 67.111169 220.354774"></polygon>
                <polygon id="Fill-90" fill="#E6A68A" mask="url(#mask-2)" points="84.3981505 220.747376 83.5061177 224.061097 75.4668363 222.723327 75.9502039 220.747376"></polygon>
                <path d="M60.5313281,124.478043 L69.6518148,129.45652 C71.8906854,130.678715 73.6666218,132.599401 74.7074,134.924926 L81.3530448,149.770878 L69.9600715,149.770878 L70.7457634,171.926313 L36.9596895,175.651672 L37.1561125,149.966938 L26.9416772,149.966938 L31.2315643,135.349065 C32.1156875,132.336452 34.3855376,129.92452 37.3430879,128.856058 L49.2156936,124.565985 C49.2156936,124.565985 57.7844821,133.776857 60.5313281,124.478043" id="Fill-91" fill="#5CC2AD" mask="url(#mask-2)"></path>
                <path d="M65.3438674,187.709844 L82.2369043,185.749244 L73.7904957,221.531506 L86.55843,221.531506 L101.487017,178.298526 C101.487017,178.298526 102.689943,175.897778 100.799976,172.953808 C99.3107647,170.633984 96.6953068,169.279328 93.9348386,169.279328 L60.0402267,169.279328 L65.3438674,187.709844 Z" id="Fill-92" fill="#311547" mask="url(#mask-2)"></path>
                <path d="M36.665055,175.553642 C36.665055,175.553642 39.7096115,167.024595 64.1653733,168.691324 C64.1653733,168.691324 68.879745,168.495264 68.879745,182.023841 L68.879745,221.727522 L55.522322,221.727522 L52.7724,187.7098 C52.7724,187.7098 37.254324,189.278499 36.665055,175.553642" id="Fill-93" fill="#4F216C" mask="url(#mask-2)"></path>
                <path d="M74.7726326,224.668663 C74.7726326,224.668663 78.9058647,227.329509 83.2232158,225.116706 C83.2232158,225.116706 92.7866429,228.83439 94.5401686,230.211196 C95.6672938,231.096317 95.0400146,232.903402 93.6061706,232.903402 L74.0708708,232.903402 C73.0322897,232.903402 72.271645,231.92683 72.5278298,230.922187 L74.7726326,224.668663 Z" id="Fill-94" fill="#311547" mask="url(#mask-2)"></path>
                <path d="M58.8732016,224.586533 C58.8732016,224.586533 57.1300025,225.415731 56.7720908,231.763776 C56.7373762,232.381343 57.2271154,232.903512 57.8471441,232.903512 L74.3365692,232.903512 C75.2960538,232.903512 76.0527437,231.70566 75.3643844,231.038749 C72.6351154,228.393913 70.8673084,227.413613 67.7243207,224.864833 C67.7243207,224.864833 62.2007478,228.033592 58.8732016,224.586533" id="Fill-95" fill="#4F216C" mask="url(#mask-2)"></path>
                <path d="M55.2269185,157.025579 L53.9086433,163.392046 L26.3720725,163.392046 C24.7198343,163.392046 23.5267953,161.810846 23.9837973,160.225261 L26.5939821,151.185448 L27.1608405,149.220462 L38.9945571,149.18318 L38.3771649,151.860912 L37.6037768,155.209722 L55.2269185,157.025579 Z" id="Fill-96" fill="#FCBB9D" mask="url(#mask-2)"></path>
                <polygon id="Fill-97" fill="#373133" mask="url(#mask-2)" points="98.313094 137.020597 98.2843117 136.803264 105.583601 135.841605 105.612384 136.058938"></polygon>
                <polygon id="Fill-98" fill="#373133" mask="url(#mask-2)" points="98.5975998 138.344046 98.5705752 138.126494 105.39177 137.282383 105.418795 137.499935"></polygon>
                <path d="M85.5340423,144.518575 L85.1209828,162.240731 L85.0089294,162.453458 L84.93203,162.422755 L84.703529,162.8197 C82.0296275,167.462418 73.3839396,168.20806 70.3079643,161.190253 L63.496876,143.207123 L76.6796275,142.329897 L80.8761368,150.010009 L85.5340423,144.518575 Z" id="Fill-99" fill="#E6A68A" mask="url(#mask-2)"></path>
                <polygon id="Fill-100" fill="#373133" mask="url(#mask-2)" points="98.9847772 139.503541 98.9526992 139.286647 104.287978 138.498021 104.320056 138.714915"></polygon>
                <path d="M69.2090062,187.735766 L68.7700205,187.716905 C69.4142177,172.716782 65.3574456,169.39078 65.3163593,169.35898 L65.5835298,169.010502 C65.7586407,169.143621 69.8657269,172.4455 69.2090062,187.735766" id="Fill-101" fill="#FFFFFF" mask="url(#mask-2)"></path>
                <path d="M65.5780809,109.817933 C65.2551035,105.687515 64.2039988,102.957588 62.3643458,101.472225 C60.8909536,100.282487 58.9087072,99.8728229 56.3044546,100.219108 C49.9110398,101.070017 50.475701,108.353404 50.5027257,108.663065 L49.627391,108.740699 C49.6199207,108.656485 48.9579269,100.311874 56.1884464,99.3497769 C59.0049413,98.9745436 61.2690789,99.4594302 62.9171425,100.790182 C64.9545368,102.4352 66.1115429,105.366011 66.4542945,109.749509 L65.5780809,109.817933 Z" id="Fill-102" fill="#DBDCF1" mask="url(#mask-2)"></path>
                <path d="M49.4367025,108.63916 L51.4879386,108.63916 C52.0708359,108.63916 52.5766142,109.046412 52.6924027,109.616828 C52.9444129,110.858322 53.2372897,113.128364 52.7093205,115.519023 C52.5854027,116.080229 52.0829201,116.47827 51.507493,116.47827 L49.544801,116.47827 C49.0491296,116.47827 48.5857559,116.239226 48.299031,115.835921 C47.4149078,114.593331 45.9186655,111.752216 48.3102363,109.133258 C48.5982795,108.817676 49.0089222,108.63916 49.4367025,108.63916" id="Fill-103" fill="#EE504F" mask="url(#mask-2)"></path>
                <path d="M57.6486778,118.500451 C52.1154376,117.824329 50.4919817,114.14634 50.4256285,113.990194 L51.2341706,113.646322 C51.2937127,113.783607 52.7490885,117.017939 57.7554581,117.629585 L57.6486778,118.500451 Z" id="Fill-104" fill="#DBDCF1" mask="url(#mask-2)"></path>
                <path d="M57.4294047,118.116555 L57.4294047,118.116555 C57.4294047,118.502315 57.7427148,118.815046 58.1291891,118.815046 L59.0620885,118.815046 C59.4485628,118.815046 59.7618729,118.502315 59.7618729,118.116555 C59.7618729,117.730795 59.4485628,117.418064 59.0620885,117.418064 L58.1291891,117.418064 C57.7427148,117.418064 57.4294047,117.730795 57.4294047,118.116555" id="Fill-105" fill="#373133" mask="url(#mask-2)"></path>
                <path d="M59.761807,116.451734 L63.4969199,116.232427 C63.4969199,116.232427 62.6180698,119.083411 59.761807,116.451734" id="Fill-106" fill="#FFFFFF" mask="url(#mask-2)"></path>
                <polygon id="Fill-107" fill="#AFAFD5" mask="url(#mask-2)" points="47.8826318 136.071943 44.8580692 162.37885 80.9353053 162.37885 83.9596483 136.071943"></polygon>
                <polygon id="Fill-108" fill="#AFAFD5" mask="url(#mask-2)" points="27.6837782 162.379991 49.0708152 162.379991 49.0708152 160.439348 27.6837782 160.439348"></polygon>
                <polygon id="Fill-109" fill="#DBDCF1" mask="url(#mask-2)" points="49.6108246 136.071943 46.5864817 162.37885 82.6634982 162.37885 85.6878411 136.071943"></polygon>
                <path d="M66.0611628,148.621997 C66.0611628,149.839148 67.0496495,150.825807 68.269054,150.825807 C69.4884585,150.825807 70.4769452,149.839148 70.4769452,148.621997 C70.4769452,147.404846 69.4884585,146.418186 68.269054,146.418186 C67.0496495,146.418186 66.0611628,147.404846 66.0611628,148.621997" id="Fill-110" fill="#FFFFFF" mask="url(#mask-2)"></path>
                <polygon id="Fill-111" fill="#373133" mask="url(#mask-2)" points="98.9844696 139.946869 97.885907 135.999353 98.0977099 135.940578 99.1962725 139.888095"></polygon>
                <polygon id="Fill-112" fill="#E6A68A" mask="url(#mask-2)" points="38.9945791 149.183224 38.3771869 151.860956 26.5940041 151.185492 27.1608624 149.220506"></polygon>
                <path d="M60.2825476,125.357748 C54.8732253,123.237054 53.3901657,118.644777 53.3901657,118.644777 C55.4862232,120.633886 57.8832869,121.721646 59.8167571,122.31816 C59.8057715,122.31816 59.7947858,122.315967 59.7838002,122.315967 L60.2825476,125.357748 Z" id="Fill-113" fill="#E6A68A" mask="url(#mask-2)"></path>
                <polygon id="Fill-114" fill="#373133" mask="url(#mask-2)" points="39.0067072 150.107776 38.5758509 150.021808 39.9918982 142.944788 40.4227544 143.030757"></polygon>
                <path d="M148.710182,110.824286 L140.899402,118.350884 L135.169299,110.795776 L133.356671,108.403143 C130.931044,108.135589 122.008519,101.716488 122.008519,101.716488 C120.391434,99.834839 122.043673,97.9181005 122.043673,97.9181005 C120.696835,94.9596562 123.39051,93.8850545 123.39051,93.8850545 C122.043673,90.3893095 125.54589,89.0449608 125.54589,89.0449608 C125.167985,87.1698905 125.976527,86.2816993 126.921291,85.862824 C128.013262,85.3803498 129.296383,85.6917649 130.085151,86.5887284 L133.894966,90.9266103 C133.894966,90.9266103 137.665233,88.50766 140.358909,89.5822617 C143.052584,90.6590564 143.052584,103.563049 143.052584,103.563049 L143.582092,104.242899 L148.710182,110.824286 Z" id="Fill-115" fill="#FCBB9D" mask="url(#mask-2)"></path>
                <path d="M183.49397,62.4342484 C183.49397,62.4342484 183.060258,68.134462 186.674749,71.3093618 L188.337313,62.4342484 L183.49397,62.4342484 Z" id="Fill-116" fill="#373133" mask="url(#mask-2)"></path>
                <polygon id="Fill-117" fill="#E6A68A" mask="url(#mask-2)" points="148.710182 110.824286 140.899402 118.350884 135.169299 110.795776 143.582092 104.242899"></polygon>
                <path d="M186.493991,61.0271561 C186.493991,61.0271561 185.053336,74.5895067 185.955476,81.1621215 C187.361416,91.40483 196.252962,90.4668562 196.252962,90.4668562 L195.561747,109.653321 L213.530277,109.653321 L210.313466,76.6487944 C210.313466,76.6487944 213.31342,75.6748544 213.096564,70.8404626 C213.021862,69.1761458 212.735137,68.026322 211.217143,67.1605001 C206.531554,64.4878122 201.602523,58.2851674 201.602523,58.2851674 L186.493991,61.0271561 Z" id="Fill-118" fill="#FCBB9D" mask="url(#mask-2)"></path>
                <path d="M178.975912,53.5950574 C178.975912,53.5950574 176.373417,65.6450705 187.650602,63.9855784 L201.060316,61.9291417 C201.060316,61.9291417 202.289169,66.1863188 205.759089,66.9078371 C205.759089,66.9078371 208.433869,72.5361183 204.891663,77.5869655 C204.891663,77.5869655 203.084528,79.3186094 200.698889,78.8856984 C200.698889,78.8856984 196.361544,77.2983582 193.253052,77.5869655 C193.253052,77.5869655 189.855417,77.8755728 185.951785,80.2568024 C185.951785,80.2568024 185.445787,90.8635597 193.542193,91.8739046 C201.6386,92.8840302 206.265306,84.8025869 206.265306,84.8025869 C206.265306,84.8025869 211.180934,76.6489918 209.084438,68.351093 C209.084438,68.351093 210.060401,67.1604782 211.506329,67.3769336 C211.506329,67.3769336 216.385705,55.3628868 206.120516,56.3730124 C206.120516,56.3730124 203.590526,46.9206843 188.409709,52.3322907 C186.168641,53.1312242 180.674729,49.8791286 178.975912,53.5950574" id="Fill-119" fill="#373133" mask="url(#mask-2)"></path>
                <path d="M197.59044,81.1226244 C197.59044,81.1226244 197.557923,81.3693441 197.382373,81.7178221 C197.041818,82.3970142 196.159013,83.4597734 193.919484,83.8170236 C192.729081,84.0067237 191.498691,83.7628549 190.512621,83.0700658 C190.005744,82.7143507 189.548962,82.2323151 189.364623,81.5974229 C189.308157,81.4055297 189.277178,81.1991623 189.277178,80.9783207 C189.277178,80.9783207 193.542237,79.8960433 197.59044,81.1226244" id="Fill-120" fill="#F04E53" mask="url(#mask-2)"></path>
                <path d="M197.59044,81.1226244 C197.59044,81.1226244 197.557923,81.3693441 197.382373,81.7178221 C194.869521,81.4546544 191.02521,81.5419383 189.364623,81.5974229 C189.308157,81.4055297 189.277178,81.1991623 189.277178,80.9783207 C189.277178,80.9783207 193.542237,79.8960433 197.59044,81.1226244" id="Fill-121" fill="#FFFFFF" mask="url(#mask-2)"></path>
                <polygon id="Fill-122" fill="#373133" mask="url(#mask-2)" points="200.182147 69.6181361 200.036258 68.7531914 209.300657 67.1967734 209.446766 68.0619374"></polygon>
                <path d="M197.00082,67.3987327 C195.529185,67.3987327 194.331752,68.7718105 194.331752,70.4598124 C194.331752,72.1475949 195.529185,73.5206727 197.00082,73.5206727 C198.472454,73.5206727 199.669668,72.1475949 199.669668,70.4598124 C199.669668,68.7718105 198.472454,67.3987327 197.00082,67.3987327 M197.00082,74.3978986 C195.0445,74.3978986 193.452902,72.6311657 193.452902,70.4598124 C193.452902,68.2882397 195.0445,66.5215068 197.00082,66.5215068 C198.95714,66.5215068 200.548518,68.2882397 200.548518,70.4598124 C200.548518,72.6311657 198.95714,74.3978986 197.00082,74.3978986" id="Fill-123" fill="#373133" mask="url(#mask-2)"></path>
                <path d="M188.181427,68.1203606 C186.709793,68.1203606 185.51236,69.4934384 185.51236,71.1814403 C185.51236,72.8690036 186.709793,74.2423007 188.181427,74.2423007 C189.653062,74.2423007 190.850495,72.8690036 190.850495,71.1814403 C190.850495,69.4934384 189.653062,68.1203606 188.181427,68.1203606 M188.181427,75.1195265 C186.225107,75.1195265 184.633509,73.3527936 184.633509,71.1814403 C184.633509,69.0098677 186.225107,67.2431348 188.181427,67.2431348 C190.137748,67.2431348 191.729345,69.0098677 191.729345,71.1814403 C191.729345,73.3527936 190.137748,75.1195265 188.181427,75.1195265" id="Fill-124" fill="#373133" mask="url(#mask-2)"></path>
                <path d="M191.622257,71.1073366 L190.957627,70.5336309 C192.090904,69.2254679 193.555068,69.8083844 194.170923,70.2994116 L193.623838,70.9860602 C193.50805,70.8954866 192.469029,70.1305456 191.622257,71.1073366" id="Fill-125" fill="#373133" mask="url(#mask-2)"></path>
                <path d="M121.891851,35.7598054 L138.35579,104.263031 C138.61527,105.342458 137.941851,106.425612 136.85757,106.672771 C135.773289,106.919929 134.695599,106.235912 134.459847,105.151003 L119.502478,36.3043434 C119.360324,35.649275 119.772724,35.0018823 120.427467,34.8525346 C121.082211,34.7034062 121.735196,35.1080266 121.891851,35.7598054" id="Fill-126" fill="#373133" mask="url(#mask-2)"></path>
                <path d="M192.572887,96.6821331 C192.572887,96.6821331 194.969731,106.862778 195.438378,106.862778 C195.438378,106.862778 206.615594,100.626579 214.644329,95.4750703 L233.36889,103.908281 C237.147066,105.60988 239.789988,109.123389 240.373105,113.219595 C240.373105,113.219595 248.731409,157.452394 248.580906,170.445644 C248.494779,177.857545 247.396216,181.585754 237.509152,180.489222 C228.749873,179.517694 206.851126,173.774935 206.851126,173.774935 L180.781356,173.774935 L180.781356,150.098609 L165.657224,158.925694 C160.159138,162.134806 153.087031,159.849633 150.516175,154.032967 L134.903403,116.232427 L145.889029,103.951265 L161.220569,127.057614 L174.718169,105.159425 C176.285818,102.616347 178.741325,100.742812 181.61121,99.9002362 L192.572887,96.6821331 Z" id="Fill-127" fill="#F1884F" mask="url(#mask-2)"></path>
                <path d="M184.671498,123.414188 C184.671498,123.414188 183.730469,117.235667 172.879966,118.283732 C163.507249,119.189249 161.088434,123.715954 161.088434,123.715954 L184.671498,123.414188 Z" id="Fill-128" fill="#DBDCF1" mask="url(#mask-2)"></path>
                <path d="M185.578449,122.810656 C185.578449,122.508891 183.764502,120.698077 187.392615,116.473138 C191.020728,112.24798 198.276954,108.626572 198.276954,108.626572 L203.719233,111.644448 L185.578449,122.810656 Z" id="Fill-129" fill="#DBDCF1" mask="url(#mask-2)"></path>
                <polygon id="Fill-130" fill="#197A83" mask="url(#mask-2)" points="202.509936 108.626616 204.349149 108.866318 204.323882 110.135444 187.392615 121.301652 181.648012 122.8107 160.483763 123.112466 160.918574 122.547971 181.345687 121.603418 187.090291 120.09459"></polygon>
                <polygon id="Fill-131" fill="#5CC2AD" mask="url(#mask-2)" points="213.244211 141.974599 196.00996 154.950962 192.430843 155.843539 191.171891 156.157148 168.495361 156.459791 160.464868 123.140559 181.207928 122.3686 181.495751 122.357635 186.93803 121.151449 204.475484 108.778179"></polygon>
                <polygon id="Fill-132" fill="#197A83" mask="url(#mask-2)" points="194.95121 104.703311 187.997308 107.419422 189.811255 95.6477083"></polygon>
                <polygon id="Fill-133" fill="#5CC2AD" mask="url(#mask-2)" points="196.160705 94.1387921 189.811453 95.6478399 195.420054 107.185553 196.795894 105.005208"></polygon>
                <polygon id="Fill-134" fill="#D6E3F8" mask="url(#mask-2)" points="191.625487 127.337493 203.719343 119.189161 204.626317 123.112334 193.137109 131.864417"></polygon>
                <polygon id="Fill-135" fill="#373133" mask="url(#mask-2)" points="195.646072 154.856924 186.57568 121.056534 187.000165 120.943152 196.070557 154.743323"></polygon>
                <polygon id="Fill-136" fill="#373133" mask="url(#mask-2)" points="191.112129 156.370643 181.134763 122.268487 181.556611 122.145456 191.533977 156.247612"></polygon>
                <polygon id="Fill-137" fill="#197A83" mask="url(#mask-2)" points="191.112568 156.501503 189.853615 156.815111 168.495361 156.459834 160.464868 123.140603 181.207928 122.368644"></polygon>
                <path d="M208.586261,157.104596 L208.467617,168.933986 L204.504003,166.958035 L196.126364,162.78244 C194.021518,163.003939 191.220183,162.387688 191.220183,162.387688 L179.968705,156.591418 L176.769691,152.63513 C176.565358,152.382927 176.46429,152.078091 176.46429,151.771062 C176.46429,151.499122 176.543387,151.227182 176.705974,150.992524 C177.21351,150.255655 178.279116,150.192056 178.872339,150.86094 L181.155153,153.431212 L183.987247,154.347913 L181.027719,152.231606 L176.899321,146.450687 C176.743325,146.231381 176.664229,145.974792 176.664229,145.718204 C176.664229,145.472581 176.736734,145.226957 176.879547,145.012037 C177.31238,144.365083 178.22199,144.259816 178.79544,144.788344 L182.420697,148.139347 L186.012997,150.492506 L182.56351,146.608588 L178.380183,142.112805 C178.090163,141.80139 177.945153,141.404446 177.945153,141.005308 C177.945153,140.645645 178.065994,140.28379 178.307678,139.98334 C178.861354,139.301297 179.861046,139.180678 180.559732,139.715786 L185.252791,143.290481 L190.207309,147.018691 L187.6916,143.338729 L182.70852,139.529375 C182.247124,139.176292 181.998849,138.641184 181.998849,138.097304 C181.998849,137.770537 182.088931,137.441578 182.271292,137.147707 C182.798602,136.301184 183.914742,136.042402 184.762832,136.570931 L190.712647,140.288176 L196.853613,146.621746 L196.948089,141.757529 C197.169999,138.092918 199.639567,138.439422 199.639567,138.439422 L201.665317,146.117342 L201.981703,154.883021 L206.635214,156.448869 L208.586261,157.104596 Z" id="Fill-138" fill="#FCBB9D" mask="url(#mask-2)"></path>
                <polygon id="Fill-139" fill="#197A83" mask="url(#mask-2)" points="206.742829 101.6855 195.321513 107.049737 202.207523 96.8568107 203.719365 95.9282671"></polygon>
                <polygon id="Fill-140" fill="#5CC2AD" mask="url(#mask-2)" points="207.045154 110.739173 202.207523 96.8568545 213.999055 89.6138199 216.115546 95.046041"></polygon>
                <path d="M138.411377,89.3222958 C138.411377,89.3222958 131.555028,91.4443052 130.148648,92.3800858 C130.148648,92.3800858 130.617515,96.8256472 139.290667,94.4858665 L138.411377,89.3222958 Z" id="Fill-141" fill="#FCBB9D" mask="url(#mask-2)"></path>
                <polygon id="Fill-142" fill="#D87245" mask="url(#mask-2)" points="226.303901 140.136832 227.841889 157.02343 208.726899 157.02343 230.917864 159.874414"></polygon>
                <polygon id="Fill-143" fill="#E6A68A" mask="url(#mask-2)" points="208.586261 157.104596 208.467617 168.933986 204.504003 166.958035 206.635214 156.448869"></polygon>
                <path d="M134.777002,95.3592326 C133.11224,95.3592326 131.835271,95.0138249 130.959937,94.3236675 C129.862692,93.4585035 129.850169,92.3738137 129.850169,92.3279786 L130.289594,92.3279786 C130.289813,92.3646028 130.309148,93.2589346 131.243805,93.9885672 C132.238883,94.7653507 134.43491,95.4513413 139.246834,94.3078774 L139.348561,94.7344285 C137.595694,95.1511108 136.069351,95.3592326 134.777002,95.3592326" id="Fill-144" fill="#373133" mask="url(#mask-2)"></path>
                <path d="M129.655174,102.438928 C129.019985,102.438928 128.474219,102.192427 128.439724,102.176637 L128.414237,102.162821 L121.822862,97.9959981 L122.057954,97.6253702 L128.635488,101.783421 C128.755011,101.834519 129.745036,102.23585 130.433395,101.795044 C130.90402,101.493498 131.150757,100.853342 131.167455,99.8910253 L123.343492,93.8171134 L123.613299,93.4706092 L131.607759,99.6772015 L131.607759,99.7844424 C131.607759,100.966504 131.291812,101.767411 130.668488,102.165453 C130.347048,102.370724 129.988917,102.438928 129.655174,102.438928" id="Fill-145" fill="#373133" mask="url(#mask-2)"></path>
                <path d="M126.822838,104.167458 C125.892135,104.167458 124.888928,103.740029 124.828287,103.713932 L125.002959,103.311504 C125.534443,103.54068 127.049141,104.020303 127.667193,103.490678 C127.9983,103.207115 128.055205,102.641085 127.836811,101.808597 L128.261955,101.697409 C128.526489,102.706219 128.422784,103.421816 127.953039,103.823804 C127.655109,104.078858 127.246443,104.167458 126.822838,104.167458" id="Fill-146" fill="#373133" mask="url(#mask-2)"></path>
                <path d="M131.419202,100.00149 L131.356803,99.5674825 C131.369327,99.5655087 132.632234,99.3736156 133.021565,98.5667871 C133.23908,98.1165509 133.1479,97.5386784 132.75044,96.8489595 L125.300428,89.4127158 L125.611101,89.1026165 L133.10154,96.5792126 L133.115822,96.6035556 C133.603803,97.4386746 133.705091,98.1639211 133.416608,98.7588995 C132.924013,99.7760429 131.480282,99.9927177 131.419202,100.00149" id="Fill-147" fill="#373133" mask="url(#mask-2)"></path>
                <polygon id="Fill-148" fill="#373133" mask="url(#mask-2)" points="175.110883 118.206186 174.451745 118.206186 174.451745 84.10403 151.931211 84.10403 151.931211 17.5445173 106.011294 17.5445173 106.011294 46.2736645 49.7648871 46.2736645 49.7648871 86.5164011 83.0513347 86.5164011 83.0513347 87.1743205 49.1057495 87.1743205 49.1057495 45.6157451 105.352156 45.6157451 105.352156 16.8865979 152.590349 16.8865979 152.590349 83.4461106 175.110883 83.4461106"></polygon>
                <polygon id="Fill-149" fill="#AFAFD5" mask="url(#mask-2)" points="11.7546201 232.903468 27.573922 166.569841 30.6498973 166.569841 14.8305955 232.903468"></polygon>
                <polygon id="Fill-150" fill="#AFAFD5" mask="url(#mask-2)" points="119.63347 232.903468 103.814168 166.569841 100.738193 166.569841 116.557495 232.903468"></polygon>
                <polygon id="Fill-151" fill="#DBDCF1" mask="url(#mask-2)" points="14.8305955 168.107398 121.171458 168.107398 121.171458 162.396658 14.8305955 162.396658"></polygon>
                <polygon id="Fill-152" fill="#373133" mask="url(#mask-2)" points="14.9404517 162.615745 121.281314 162.615745 121.281314 161.957826 14.9404517 161.957826"></polygon>
                <path d="M16.1098277,32.8445646 L16.1098277,59.9850557 C16.1098277,62.1046527 17.8312754,63.8229188 19.9547969,63.8229188 L74.4435033,63.8229188 C76.5670248,63.8229188 78.2884725,62.1046527 78.2884725,59.9850557 L78.2884725,32.8445646 C78.2884725,30.7249676 76.5670248,29.0067014 74.4435033,29.0067014 L19.9547969,29.0067014 C17.8312754,29.0067014 16.1098277,30.7249676 16.1098277,32.8445646" id="Fill-153" fill="#FFFFFF" mask="url(#mask-2)"></path>
                <path d="M19.9547969,29.3356611 C18.016493,29.3356611 16.4393965,30.9098429 16.4393965,32.8445646 L16.4393965,59.9850557 C16.4393965,61.9197773 18.016493,63.4939591 19.9547969,63.4939591 L74.4435033,63.4939591 C76.3818072,63.4939591 77.9589037,61.9197773 77.9589037,59.9850557 L77.9589037,32.8445646 C77.9589037,30.9098429 76.3818072,29.3356611 74.4435033,29.3356611 L19.9547969,29.3356611 Z M74.4435033,64.1518785 L19.9547969,64.1518785 C17.6528688,64.1518785 15.7802589,62.2825102 15.7802589,59.9850557 L15.7802589,32.8445646 C15.7802589,30.5468907 17.6528688,28.6777417 19.9547969,28.6777417 L74.4435033,28.6777417 C76.7454314,28.6777417 78.6180413,30.5468907 78.6180413,32.8445646 L78.6180413,59.9850557 C78.6180413,62.2825102 76.7454314,64.1518785 74.4435033,64.1518785 L74.4435033,64.1518785 Z" id="Fill-154" fill="#373133" mask="url(#mask-2)"></path>
                <path d="M36.4634908,40.2774309 L32.012115,40.2774309 L35.2711109,37.1213916 C35.3829446,37.0132735 35.4763224,36.9023044 35.5492669,36.7917739 C35.8491745,36.336713 35.9324456,35.9184956 35.796883,35.5485256 C35.6927392,35.2640851 35.4398501,35.0309623 35.1206078,34.924818 C34.8033429,34.8195509 34.5291417,34.8307355 34.2824045,34.9592491 C33.7318049,35.2458827 33.4883634,36.0217889 33.4861663,36.0294647 L32.7760554,35.8195884 C32.7892382,35.7757271 33.1051848,34.7384075 33.9398727,34.3037421 C34.3678727,34.081146 34.84377,34.053952 35.3543819,34.2236952 C35.8937762,34.4026493 36.3085934,34.7930148 36.4922731,35.2945687 C36.6440945,35.7084 36.7106674,36.3742144 36.1679774,37.1979295 C36.0653717,37.3536371 35.9370595,37.5062744 35.7867762,37.6518939 L33.8388049,39.5381488 L36.4634908,39.5381488 L36.4634908,40.2774309 Z" id="Fill-155" fill="#373133" mask="url(#mask-2)"></path>
                <path d="M51.5620696,55.3069856 L47.1106938,55.3069856 L50.3696897,52.1509462 C50.4815234,52.0428281 50.5749012,51.931859 50.6478458,51.8213286 C50.9477534,51.3662677 51.0310244,50.9480502 50.8954618,50.5780802 C50.7913181,50.2936397 50.5382092,50.060517 50.2189669,49.9543726 C49.9019218,49.8491055 49.6277205,49.8602902 49.3809834,49.9888037 C48.8301641,50.2754373 48.5869423,51.0513436 48.5847452,51.0590193 L47.8746343,50.849143 C47.8875973,50.8052817 48.2037637,49.7679621 49.0384515,49.3332967 C49.4664515,49.1107007 49.9421292,49.0835067 50.4529608,49.2530306 C50.992355,49.4322039 51.4069526,49.8225694 51.590852,50.3241233 C51.7424536,50.7379546 51.8092462,51.4037691 51.2665563,52.2274842 C51.1639505,52.3831918 51.0356384,52.5358291 50.885355,52.6814485 L48.9373838,54.5677035 L51.5620696,54.5677035 L51.5620696,55.3069856 Z" id="Fill-156" fill="#373133" mask="url(#mask-2)"></path>
                <polygon id="Fill-157" fill="#373133" mask="url(#mask-2)" points="40.8621355 40.3001291 37.5710616 36.1115949 38.1537392 35.6554375 41.4448131 39.8439717"></polygon>
                <polygon id="Fill-158" fill="#373133" mask="url(#mask-2)" points="38.1507951 40.1393994 37.57383 39.6762242 40.9472961 35.48769 41.5242612 35.9508652"></polygon>
                <polygon id="Fill-159" fill="#373133" mask="url(#mask-2)" points="35.9253489 55.3296838 32.6340552 51.1411496 33.2167329 50.6849921 36.5080265 54.8735263"></polygon>
                <polygon id="Fill-160" fill="#373133" mask="url(#mask-2)" points="33.2140304 55.1689541 32.6368456 54.7057788 36.0105314 50.5172446 36.5874965 50.9804199"></polygon>
                <polygon id="Fill-161" fill="#373133" mask="url(#mask-2)" points="46.666501 39.8668454 47.4069322 39.8668454 47.4069322 35.3497901 46.666501 35.3497901"></polygon>
                <polygon id="Fill-162" fill="#373133" mask="url(#mask-2)" points="44.7736776 37.9777395 49.3814887 37.9777395 49.3814887 37.2384574 44.7736776 37.2384574"></polygon>
                <polygon id="Fill-163" fill="#373133" mask="url(#mask-2)" points="41.7704271 54.9783768 42.511078 54.9783768 42.511078 50.4613215 41.7704271 50.4613215"></polygon>
                <polygon id="Fill-164" fill="#373133" mask="url(#mask-2)" points="39.8780431 53.0894902 44.4858542 53.0894902 44.4858542 52.3502081 39.8780431 52.3502081"></polygon>
                <path d="M54.8674029,40.2663998 C54.5283864,40.2663998 54.2043105,40.1892039 53.9158279,40.0381018 C53.3984049,39.7668197 53.0435692,39.2983811 52.8895507,38.6834457 L53.6080107,38.504053 C53.7108361,38.9148141 53.930329,39.2108778 54.2601175,39.3836913 C54.5048772,39.5119856 54.796216,39.5554082 55.1029347,39.5093539 C55.6438669,39.4279912 56.0186965,39.2014476 56.2170969,38.8358637 C56.3465076,38.5972583 56.3686986,38.3073351 56.2759799,38.0608347 C55.9562982,37.209487 54.3003248,37.3978712 54.2836267,37.399845 L53.2061565,37.538666 L55.7282366,35.021247 L53.2487807,35.021247 L53.2487807,34.2819649 L57.5162571,34.2819649 L55.1310579,36.6625366 C55.8126062,36.7313989 56.6637725,36.9873295 56.9693926,37.8013951 C57.138791,38.2518506 57.1018793,38.757352 56.8681051,39.1878506 C56.651908,39.5869884 56.1889737,40.093367 55.2132304,40.2403023 C55.0967828,40.2576276 54.981214,40.2663998 54.8674029,40.2663998" id="Fill-165" fill="#373133" mask="url(#mask-2)"></path>
                <polygon id="Fill-166" fill="#373133" mask="url(#mask-2)" points="59.4972511 39.8209445 57.6870396 36.042952 58.3551854 35.7240804 60.1653969 39.5020729"></polygon>
                <polygon id="Fill-167" fill="#373133" mask="url(#mask-2)" points="59.3461988 41.7018484 58.6708025 41.3989861 61.2214452 35.732107 61.8968415 36.0349693"></polygon>
                <polygon id="Fill-168" fill="#373133" mask="url(#mask-2)" points="54.4780943 55.01465 52.6678828 51.2366575 53.3360285 50.9177859 55.14624 54.6957784"></polygon>
                <polygon id="Fill-169" fill="#373133" mask="url(#mask-2)" points="54.3270419 56.8956855 53.6516456 56.5928232 56.2022883 50.9259441 56.8776846 51.2288064"></polygon>
                <polygon id="Fill-170" fill="#373133" mask="url(#mask-2)" points="65.2205647 36.9511659 68.676423 36.9511659 68.676423 36.2118838 65.2205647 36.2118838"></polygon>
                <polygon id="Fill-171" fill="#373133" mask="url(#mask-2)" points="65.2205647 39.0455426 68.676423 39.0455426 68.676423 38.3064799 65.2205647 38.3064799"></polygon>
                <polygon id="Fill-172" fill="#373133" mask="url(#mask-2)" points="27.1246318 58.9934396 22.551755 54.7143318 23.0581924 54.1748379 26.3842006 57.2874545 26.3842006 45.8622455 70.9390446 45.8622455 70.9390446 46.6013083 27.1246318 46.6013083"></polygon>
                <path d="M108.758337,99.9155218 C108.758337,102.023276 101.552865,103.731893 92.6641752,103.731893 C83.7754852,103.731893 76.5700129,102.023276 76.5700129,99.9155218 C76.5700129,97.8077674 83.7754852,96.0989314 92.6641752,96.0989314 C101.552865,96.0989314 108.758337,97.8077674 108.758337,99.9155218" id="Fill-173" fill="#5CC2AD" mask="url(#mask-2)"></path>
                <polygon id="Fill-174" fill="#373133" mask="url(#mask-2)" points="108.763061 99.985656 91.7340222 70.4490225 76.617361 99.9764452 76.2403343 99.7841134 91.7120509 69.5630244 109.130201 99.7749025"></polygon>
                <polygon id="Fill-175" fill="#373133" mask="url(#mask-2)" points="106.969899 100.115157 107.793602 100.115157 107.793602 99.6923336 106.969899 99.6923336"></polygon>
                <path d="M94.0863963,100.116494 L95.6968891,100.116494 L95.6968891,99.6923336 L94.0863963,99.6923336 L94.0863963,100.116494 Z M97.3071622,100.116494 L98.917655,100.116494 L98.917655,99.6923336 L97.3071622,99.6923336 L97.3071622,100.116494 Z M100.528368,100.116494 L102.13886,100.116494 L102.13886,99.6923336 L100.528368,99.6923336 L100.528368,100.116494 Z M103.749133,100.116494 L105.359626,100.116494 L105.359626,99.6923336 L103.749133,99.6923336 L103.749133,100.116494 Z" id="Fill-176" fill="#373133" mask="url(#mask-2)"></path>
                <polygon id="Fill-177" fill="#373133" mask="url(#mask-2)" points="92.4759035 100.115113 91.4406181 100.115113 91.4406181 99.0817406 91.8642238 99.0817406 91.8642238 99.6922898 92.4759035 99.6922898"></polygon>
                <path d="M91.4406181,74.1727366 L91.8647781,74.1727366 L91.8647781,72.5121481 L91.4406181,72.5121481 L91.4406181,74.1727366 Z M91.4406181,77.4939138 L91.8647781,77.4939138 L91.8647781,75.8333252 L91.4406181,75.8333252 L91.4406181,77.4939138 Z M91.4406181,80.8150909 L91.8647781,80.8150909 L91.8647781,79.1545023 L91.4406181,79.1545023 L91.4406181,80.8150909 Z M91.4406181,84.136268 L91.8647781,84.136268 L91.8647781,82.4756795 L91.4406181,82.4756795 L91.4406181,84.136268 Z M91.4406181,87.4576645 L91.8647781,87.4576645 L91.8647781,85.7970759 L91.4406181,85.7970759 L91.4406181,87.4576645 Z M91.4406181,90.7786223 L91.8647781,90.7786223 L91.8647781,89.1180337 L91.4406181,89.1180337 L91.4406181,90.7786223 Z M91.4406181,94.1000187 L91.8647781,94.1000187 L91.8647781,92.4394302 L91.4406181,92.4394302 L91.4406181,94.1000187 Z M91.4406181,97.4211959 L91.8647781,97.4211959 L91.8647781,95.7606073 L91.4406181,95.7606073 L91.4406181,97.4211959 Z" id="Fill-178" fill="#373133" mask="url(#mask-2)"></path>
                <polygon id="Fill-179" fill="#373133" mask="url(#mask-2)" points="91.4406181 70.8515595 91.8642238 70.8515595 91.8642238 70.0295989 91.4406181 70.0295989"></polygon>
                <polygon id="Fill-180" fill="#373133" mask="url(#mask-2)" points="92.9948205 67.5218733 91.6411717 64.9829623 90.4560423 67.5122238 90.0724242 67.3330504 91.6167836 64.0375321 93.3687713 67.3231816"></polygon>
                <polygon id="Fill-181" fill="#373133" mask="url(#mask-2)" points="90.8994661 66.5535914 92.4523943 66.5535914 92.4523943 66.1309878 90.8994661 66.1309878"></polygon>
                <path d="M126.883984,4.05716963 L126.883984,37.8303655 C126.883984,39.8894339 128.556216,41.5585754 130.619097,41.5585754 L175.001027,41.5585754 C177.063908,41.5585754 178.73614,39.8894339 178.73614,37.8303655 L178.73614,4.05716963 C178.73614,1.99810122 177.063908,0.3289597 175.001027,0.3289597 L130.619097,0.3289597 C128.556216,0.3289597 126.883984,1.99810122 126.883984,4.05716963" id="Fill-182" fill="#FFFFFF" mask="url(#mask-2)"></path>
                <path d="M130.619097,0.6579194 C128.741214,0.6579194 127.213552,2.18275726 127.213552,4.05716963 L127.213552,37.8303655 C127.213552,39.7047779 128.741214,41.2296157 130.619097,41.2296157 L175.001027,41.2296157 C176.87891,41.2296157 178.406571,39.7047779 178.406571,37.8303655 L178.406571,4.05716963 C178.406571,2.18275726 176.87891,0.6579194 175.001027,0.6579194 L130.619097,0.6579194 Z M175.001027,41.8875351 L130.619097,41.8875351 C128.377809,41.8875351 126.554415,40.0675108 126.554415,37.8303655 L126.554415,4.05716963 C126.554415,1.82002437 128.377809,0 130.619097,0 L175.001027,0 C177.242314,0 179.065708,1.82002437 179.065708,4.05716963 L179.065708,37.8303655 C179.065708,40.0675108 177.242314,41.8875351 175.001027,41.8875351 L175.001027,41.8875351 Z" id="Fill-183" fill="#373133" mask="url(#mask-2)"></path>
                <path d="M131.213221,23.6419389 L153.508769,37.7310635 L173.719026,4.90987704 L131.213221,23.6419389 Z M153.648726,38.3345949 L130.28955,23.573296 L130.663281,23.4085968 L174.823301,3.94756026 L153.648726,38.3345949 Z" id="Fill-184" fill="#373133" mask="url(#mask-2)"></path>
                <path d="M150.587406,16.0950332 C145.605864,16.0950332 141.553266,20.140141 141.553266,25.1124765 C141.553266,30.084812 145.605864,34.1299198 150.587406,34.1299198 C155.568728,34.1299198 159.621545,30.084812 159.621545,25.1124765 C159.621545,20.140141 155.568728,16.0950332 150.587406,16.0950332 M150.587406,34.5650238 C145.365498,34.5650238 141.117356,30.324514 141.117356,25.1124765 C141.117356,19.9002197 145.365498,15.6599291 150.587406,15.6599291 C155.809094,15.6599291 160.057455,19.9002197 160.057455,25.1124765 C160.057455,30.324514 155.809094,34.5650238 150.587406,34.5650238" id="Fill-185" fill="#373133" mask="url(#mask-2)"></path>
                <path d="M135.827184,26.834098 L135.476962,26.5748778 C136.975402,24.5574776 135.948026,21.3303829 135.93748,21.2981449 L136.352077,21.1634907 C136.397997,21.3042855 137.45811,24.6381824 135.827184,26.834098" id="Fill-186" fill="#373133" mask="url(#mask-2)"></path>
                <path d="M170.31658,10.9751702 C168.366631,10.4837044 167.103504,7.7296538 167.050553,7.61254414 L167.448013,7.43380937 C167.460097,7.46056476 168.677964,10.1132958 170.42336,10.5532246 L170.31658,10.9751702 Z" id="Fill-187" fill="#373133" mask="url(#mask-2)"></path>
                <polygon id="Fill-188" fill="#373133" mask="url(#mask-2)" points="145.81648 33.0288697 145.448242 32.795747 145.902168 32.0812465 146.270406 32.3143693"></polygon>
                <path d="M148.698713,28.4918575 L148.330475,28.2587348 L149.139896,26.9845642 L149.508134,27.217687 L148.698713,28.4918575 Z M147.079871,31.0401987 L146.711633,30.8070759 L147.521054,29.5329053 L147.889292,29.7660281 L147.079871,31.0401987 Z" id="Fill-189" fill="#373133" mask="url(#mask-2)"></path>
                <polygon id="Fill-190" fill="#373133" mask="url(#mask-2)" points="150.317489 25.9435822 149.949251 25.7104594 150.520284 24.8115222 151.419128 25.38457 151.184255 25.7514697 150.654308 25.4132992"></polygon>
                <path d="M153.731931,27.3759385 L152.458258,26.5636274 L152.692911,26.196947 L153.966584,27.0092581 L153.731931,27.3759385 Z M156.279498,29.0005608 L155.005605,28.1882497 L155.240478,27.8215693 L156.514151,28.6338804 L156.279498,29.0005608 Z" id="Fill-191" fill="#373133" mask="url(#mask-2)"></path>
                <polygon id="Fill-192" fill="#373133" mask="url(#mask-2)" points="158.267589 30.2685689 157.553303 29.81285 157.787956 29.4461696 158.502242 29.9018885"></polygon>
                <path d="M143.078027,35.9404482 L142.644315,35.8972448 C142.810417,34.2395072 142.492493,33.6708455 142.19676,33.4859702 C141.783481,33.2274079 141.189598,33.5859739 141.183446,33.5897022 L140.953846,33.2199515 C140.987243,33.1991173 141.781064,32.715108 142.42592,33.1157809 C143.009916,33.4787331 143.229409,34.4292073 143.078027,35.9404482" id="Fill-193" fill="#373133" mask="url(#mask-2)"></path>
                <path d="M141.705241,36.031263 C141.40028,36.031263 141.151566,35.9319172 140.984804,35.7720427 C140.693026,35.4928656 140.67457,35.0656566 140.937566,34.6834054 C141.557375,33.783591 142.886855,34.2303183 142.943102,34.2498366 L142.800508,34.6610362 L142.871915,34.4553267 L142.800948,34.6610362 C142.790182,34.6575273 141.728311,34.3037859 141.297015,34.9301252 C141.157059,35.1329837 141.153104,35.3305788 141.286469,35.4579959 C141.524418,35.6858553 142.11105,35.6573455 142.771286,35.1621515 L143.033184,35.5099715 C142.537732,35.881696 142.079192,36.031263 141.705241,36.031263" id="Fill-194" fill="#373133" mask="url(#mask-2)"></path>
                <polygon id="Fill-195" fill="#373133" mask="url(#mask-2)" points="165.240737 24.6772409 165.676647 24.6772409 165.676647 20.6641518 165.240737 20.6641518"></polygon>
                <path d="M166.515817,24.7693057 C166.512521,24.7693057 166.509225,24.7693057 166.50593,24.7693057 C165.866347,24.7633844 165.319702,24.1670902 165.296852,24.1418699 L165.620269,23.8501923 C165.624443,23.8545784 166.063648,24.3306928 166.511203,24.3342017 L166.515597,24.3342017 C166.684995,24.3342017 166.833741,24.2631464 166.970622,24.1175269 C167.182425,23.8920799 167.279538,23.5936037 167.259324,23.2299936 C167.234057,22.7773451 166.922065,22.5104491 166.638416,22.4117612 C166.354108,22.3126347 165.941928,22.3277668 165.638505,22.6679112 C165.631694,22.6755869 165.627739,22.6804116 165.62664,22.6815082 L165.290041,22.4049627 C165.290041,22.4049627 165.29795,22.3953132 165.31311,22.3784266 C165.686182,21.9599899 166.249306,21.8152476 166.782108,22.0007809 C167.313813,22.1860948 167.663375,22.647735 167.694575,23.2058699 C167.721599,23.6927303 167.585158,24.0995438 167.288766,24.4151258 C167.067954,24.6502223 166.808034,24.7693057 166.515817,24.7693057" id="Fill-196" fill="#373133" mask="url(#mask-2)"></path>
                <path d="M149.517384,13.5168006 C149.301187,13.5168006 149.111794,13.4624126 148.950745,13.3538559 C148.344339,12.9450686 148.428708,11.9358202 148.432663,11.8930555 L148.433102,11.8880114 C148.497918,11.3222007 148.716092,10.9272298 149.081694,10.7147218 C149.700624,10.354182 150.493786,10.6827031 150.527183,10.696958 L150.357345,11.0978502 C150.351193,11.0952186 149.728967,10.8401651 149.299649,11.0914903 C149.060821,11.2311886 148.915152,11.5149711 148.866595,11.9345044 C148.8477,12.1568812 148.869891,12.7748868 149.195505,12.9935353 C149.491677,13.1924463 149.982735,13.0152467 150.342624,12.8312485 L150.541464,13.2183245 C150.152573,13.4172354 149.810261,13.5168006 149.517384,13.5168006" id="Fill-197" fill="#373133" mask="url(#mask-2)"></path>
                <polygon id="Fill-198" fill="#373133" mask="url(#mask-2)" points="0 234 321 234 321 232.903468 0 232.903468"></polygon>
            </g>
        </g>
    </g>
</svg>