<?xml version="1.0" encoding="UTF-8"?>
<svg width="38px" height="39px" viewBox="0 0 38 39" version="1.1" xmlns="http://www.w3.org/2000/svg" xmlns:xlink="http://www.w3.org/1999/xlink">
    <title>59B82D1A-C09C-4920-889B-6FF79EC76A91@1.5x</title>
    <g id="Design" stroke="none" stroke-width="1" fill="none" fill-rule="evenodd">
        <g id="08_VirtualLearn_Home_categories" transform="translate(-55.000000, -235.000000)" fill-rule="nonzero">
            <g id="design" transform="translate(24.000000, 223.000000)">
                <g id="icn_categories_design" transform="translate(31.000000, 12.000000)">
                    <path d="M30.6382955,4.01174208 C22.2727214,4.01174208 16.5279654,0 12.4969608,0 C8.46595621,0 0,2.14526872 0,19.3130168 C0,36.4807648 11.3891299,39 15.8228722,39 C36.5850251,39.0011197 45.4537189,4.01174208 30.6382955,4.01174208 Z" id="Path" fill="#EFEFEF"></path>
                    <path d="M17.40625,5.62861736 C16.5275625,5.62861736 15.8125,4.91372876 15.8125,4.03525494 C15.8125,3.15678112 16.5275625,2.44189251 17.40625,2.44189251 C18.2849375,2.44189251 19,3.15678112 19,4.03525494 C19,4.91372876 18.2849375,5.62861736 17.40625,5.62861736 Z M17.40625,3.50413413 C17.113,3.50413413 16.875,3.74207625 16.875,4.03525494 C16.875,4.32843362 17.113,4.56637575 17.40625,4.56637575 C17.6995,4.56637575 17.9375,4.32843362 17.9375,4.03525494 C17.9375,3.74207625 17.6995,3.50413413 17.40625,3.50413413 Z" id="Shape" fill="#A4AFC1"></path>
                    <g id="Group" transform="translate(7.046875, 8.549782)">
                        <polygon id="Path" fill="#2FDF84" points="0 -1.88692016e-15 2.65625 -1.88692016e-15 2.65625 2.65560404 0 2.65560404"></polygon>
                        <path d="M22.046875,14.3402618 C21.31375,14.3402618 20.71875,13.7454065 20.71875,13.0124598 C20.71875,12.2795131 21.31375,11.6846578 22.046875,11.6846578 C22.78,11.6846578 23.375,12.2795131 23.375,13.0124598 C23.375,13.7454065 22.78,14.3402618 22.046875,14.3402618 Z" id="Path" fill="#2FDF84"></path>
                        <path d="M16.46875,23.9004364 L15.5295,16.85565 C15.459375,16.3277159 15.008875,15.9336243 14.4765625,15.9336243 L9.43075,15.9336243 C8.8984375,15.9336243 8.4479375,16.3277159 8.3778125,16.85565 L7.4375,23.9004364 L16.46875,23.9004364 Z" id="Path" fill="#FCBE4B"></path>
                        <path d="M1.859375,14.3402618 C1.12625,14.3402618 0.53125,13.7454065 0.53125,13.0124598 C0.53125,12.2795131 1.12625,11.6846578 1.859375,11.6846578 C2.5925,11.6846578 3.1875,12.2795131 3.1875,13.0124598 C3.1875,13.7454065 2.5925,14.3402618 1.859375,14.3402618 Z" id="Path" fill="#2FDF84"></path>
                        <polygon id="Path" fill="#2FDF84" points="21.25 -1.88692016e-15 23.90625 -1.88692016e-15 23.90625 2.65560404 21.25 2.65560404"></polygon>
                    </g>
                    <polygon id="Path" fill="#F3F3F1" points="20.8668125 24.4834061 23.515625 20.6062242 19 10.1431442 14.484375 20.6062242 17.1331875 24.4834061"></polygon>
                    <polygon id="Path" fill="#FCBE4B" points="7.046875 8.54978181 9.4375 8.54978181 9.4375 11.2053859 7.046875 11.2053859"></polygon>
                    <path d="M30.15625,21.5622416 C30.15625,21.3604157 30.2083125,21.1745234 30.2890625,21.0035025 C30.0765625,20.5520498 29.625,20.2344396 29.09375,20.2344396 C28.360625,20.2344396 27.765625,20.8292949 27.765625,21.5622416 C27.765625,22.2951883 28.360625,22.8900436 29.09375,22.8900436 C29.625,22.8900436 30.0765625,22.5724334 30.2890625,22.1209807 C30.2083125,21.9499598 30.15625,21.7640675 30.15625,21.5622416 Z" id="Path" fill="#FCBE4B"></path>
                    <path d="M18.8671875,24.4834061 L16.4765625,24.4834061 C15.94425,24.4834061 15.49375,24.8774977 15.423625,25.4054318 L14.484375,32.4502182 L16.875,32.4502182 L17.81425,25.4054318 C17.8854375,24.8774977 18.334875,24.4834061 18.8671875,24.4834061 L18.8671875,24.4834061 Z" id="Path" fill="#E1960A"></path>
                    <path d="M9.96875,21.5622416 C9.96875,21.3604157 10.0208125,21.1745234 10.1015625,21.0035025 C9.8890625,20.5520498 9.4375,20.2344396 8.90625,20.2344396 C8.173125,20.2344396 7.578125,20.8292949 7.578125,21.5622416 C7.578125,22.2951883 8.173125,22.8900436 8.90625,22.8900436 C9.4375,22.8900436 9.8890625,22.5724334 10.1015625,22.1209807 C10.0208125,21.9499598 9.96875,21.7640675 9.96875,21.5622416 Z" id="Path" fill="#FCBE4B"></path>
                    <polygon id="Path" fill="#FCBE4B" points="28.296875 8.54978181 30.6875 8.54978181 30.6875 11.2053859 28.296875 11.2053859"></polygon>
                    <polygon id="Path" fill="#D5DBE1" points="20.1953125 12.9124081 19 10.1431442 14.484375 20.6062242 17.1331875 24.4834061 19.5238125 24.4834061 16.875 20.6062242"></polygon>
                    <path d="M29.890625,19.9688792 L28.296875,19.9688792 C28.296875,14.8435634 24.1265625,10.674265 19,10.674265 C13.8734375,10.674265 9.703125,14.8435634 9.703125,19.9688792 L8.109375,19.9688792 C8.109375,13.9650896 12.99475,9.08090262 19,9.08090262 C25.00525,9.08090262 29.890625,13.9650896 29.890625,19.9688792 Z" id="Path" fill="#2B2B2B"></path>
                    <path d="M9.703125,12.0020671 L7.046875,12.0020671 C6.607,12.0020671 6.25,11.6451539 6.25,11.2053859 L6.25,8.54978181 C6.25,8.11001378 6.607,7.7531006 7.046875,7.7531006 L9.703125,7.7531006 C10.143,7.7531006 10.5,8.11001378 10.5,8.54978181 L10.5,11.2053859 C10.5,11.6451539 10.143,12.0020671 9.703125,12.0020671 Z M7.84375,10.4087046 L8.90625,10.4087046 L8.90625,9.34646302 L7.84375,9.34646302 L7.84375,10.4087046 Z" id="Shape" fill="#2B2B2B"></path>
                    <path d="M29.09375,23.6867249 C27.9218125,23.6867249 26.96875,22.7338941 26.96875,21.5622416 C26.96875,20.3905891 27.9218125,19.4377584 29.09375,19.4377584 C30.2656875,19.4377584 31.21875,20.3905891 31.21875,21.5622416 C31.21875,22.7338941 30.2656875,23.6867249 29.09375,23.6867249 Z M29.09375,21.0311208 C28.8005,21.0311208 28.5625,21.2690629 28.5625,21.5622416 C28.5625,21.8554203 28.8005,22.0933624 29.09375,22.0933624 C29.387,22.0933624 29.625,21.8554203 29.625,21.5622416 C29.625,21.2690629 29.387,21.0311208 29.09375,21.0311208 Z" id="Shape" fill="#2B2B2B"></path>
                    <polygon id="Path" fill="#2B2B2B" points="9.96875 9.08090262 28.03125 9.08090262 28.03125 10.674265 9.96875 10.674265"></polygon>
                    <path d="M21.5245,24.9327343 L20.209125,24.0340779 L22.610375,20.5191203 L19,12.1539676 L15.389625,20.5191203 L17.790875,24.0340779 L16.4755,24.9327343 L13.8266875,21.0555524 C13.672625,20.8303571 13.645,20.5414274 13.753375,20.2907384 L18.269,9.82765847 C18.5208125,9.24448783 19.48025,9.24448783 19.7320625,9.82765847 L24.2476875,20.2907384 C24.3560625,20.5414274 24.3284375,20.8303571 24.174375,21.0555524 L21.5245,24.9327343 Z" id="Path" fill="#2B2B2B"></path>
                    <path d="M22.8303125,33.3456879 L21.785875,25.5105937 C21.768875,25.3788757 21.6551875,25.2800873 21.522375,25.2800873 L16.4765625,25.2800873 C16.34375,25.2800873 16.231125,25.3788757 16.2130625,25.5105937 L15.168625,33.3446256 L13.5886875,33.1343018 L14.633125,25.2992076 C14.7574375,24.3803686 15.549,23.6867249 16.4765625,23.6867249 L21.522375,23.6867249 C22.4499375,23.6867249 23.2425625,24.3803686 23.36475,25.2992076 L24.41025,33.1343018 L22.8303125,33.3456879 Z" id="Path" fill="#2B2B2B"></path>
                    <polygon id="Path" fill="#2B2B2B" points="18.203125 10.674265 19.796875 10.674265 19.796875 19.4377584 18.203125 19.4377584"></polygon>
                    <path d="M8.90625,23.6867249 C7.7343125,23.6867249 6.78125,22.7338941 6.78125,21.5622416 C6.78125,20.3905891 7.7343125,19.4377584 8.90625,19.4377584 C10.0781875,19.4377584 11.03125,20.3905891 11.03125,21.5622416 C11.03125,22.7338941 10.0781875,23.6867249 8.90625,23.6867249 Z M8.90625,21.0311208 C8.613,21.0311208 8.375,21.2690629 8.375,21.5622416 C8.375,21.8554203 8.613,22.0933624 8.90625,22.0933624 C9.1995,22.0933624 9.4375,21.8554203 9.4375,21.5622416 C9.4375,21.2690629 9.1995,21.0311208 8.90625,21.0311208 Z" id="Shape" fill="#2B2B2B"></path>
                    <path d="M30.953125,12.0020671 L28.296875,12.0020671 C27.857,12.0020671 27.5,11.6451539 27.5,11.2053859 L27.5,8.54978181 C27.5,8.11001378 27.857,7.7531006 28.296875,7.7531006 L30.953125,7.7531006 C31.393,7.7531006 31.75,8.11001378 31.75,8.54978181 L31.75,11.2053859 C31.75,11.6451539 31.393,12.0020671 30.953125,12.0020671 Z M29.09375,10.4087046 L30.15625,10.4087046 L30.15625,9.34646302 L29.09375,9.34646302 L29.09375,10.4087046 Z" id="Shape" fill="#2B2B2B"></path>
                    <polygon id="Path" fill="#2B2B2B" points="2 31.9190974 36 31.9190974 36 33.5124598 2 33.5124598"></polygon>
                </g>
            </g>
        </g>
    </g>
</svg>