<?xml version="1.0" encoding="UTF-8"?>
<svg width="238px" height="269px" viewBox="0 0 238 269" version="1.1" xmlns="http://www.w3.org/2000/svg" xmlns:xlink="http://www.w3.org/1999/xlink">
    <title>E8EF4AAB-0F96-4916-B07A-0C70CD5DC431@1.5x</title>
    <defs>
        <polygon id="path-1" points="8.19442018e-15 3.27582081e-14 213.169096 3.27582081e-14 213.169096 45.0905255 8.19442018e-15 45.0905255"></polygon>
        <polygon id="path-3" points="3.27776807e-14 0 37.4683328 0 37.4683328 29.8134783 3.27776807e-14 29.8134783"></polygon>
    </defs>
    <g id="Design" stroke="none" stroke-width="1" fill="none" fill-rule="evenodd">
        <g id="04.8_VirtualLearn_Register_success" transform="translate(-69.000000, -212.000000)">
            <g id="img_Register_sucess_illustration" transform="translate(69.000000, 212.000000)">
                <polygon id="Fill-1" fill="#EE504F" points="0 73.3939413 0.508876908 74.0926911 4.22555239 71.3913388 5.75650784 76.41571 10.1440936 73.6754582 11.8627424 78.7197114 16.3924677 75.9757137 18.1716628 80.4958325 18.9769281 80.1794501 16.8214812 74.7049976 12.3347149 77.4230623 10.6111647 72.3638256 6.25500539 75.0847717 4.69896649 69.9782794"></polygon>
                <polygon id="Fill-2" fill="#197A83" points="223.51301 171.765522 225.954754 176.629685 229.830579 173.775905 231.825146 178.259141 235.580744 175.41314 237.198771 179.394141 238 179.068827 235.957573 174.042726 232.171702 176.911491 230.183478 172.442085 226.267865 175.325833 224.286272 171.377968"></polygon>
                <polygon id="Fill-3" fill="#6D68E0" points="25.0302279 163.324452 19.8203663 161.803339 20.0628397 160.973771 24.1894999 162.178502 24.2898337 157.469073 29.0444451 158.690804 29.2131096 153.881965 34.5443521 154.990168 34.367903 155.836736 30.0414401 154.937437 29.8710457 159.795549 25.1314267 158.577564"></polygon>
                <polygon id="Fill-4" fill="#6D68E0" points="199.749438 70.2538605 194.539577 68.7327471 194.78205 67.9031798 198.90871 69.1079109 199.009044 64.3984813 203.763655 65.6202129 203.93232 60.8113736 209.263562 61.9195764 209.087113 62.7661442 204.760651 61.866846 204.590256 66.724958 199.850637 65.5069722"></polygon>
                <polygon id="Fill-5" fill="#E8315D" points="61.1625931 113.627177 63.6596939 118.68382 69.2432124 119.494658 65.2030469 123.430708 66.1567947 128.988723 61.1625931 126.364593 56.1683915 128.988723 57.1221393 123.430708 53.0819738 119.494658 58.6654923 118.68382"></polygon>
                <polygon id="Fill-6" fill="#F1884F" points="191.125171 135.373336 194.310193 141.823157 201.432451 142.857595 196.278811 147.877932 197.495503 154.967145 191.125171 151.620062 184.755128 154.967145 185.971531 147.877932 180.817891 142.857595 187.94015 141.823157"></polygon>
                <polygon id="Fill-7" fill="#373133" points="172.025969 239.753878 160.493347 171.751836 161.346185 171.607187 172.878806 239.609229"></polygon>
                <polygon id="Fill-8" fill="#373133" points="159.195927 257.186028 154.294563 228.083459 155.147401 227.939964 160.048765 257.042532"></polygon>
                <polygon id="Fill-9" fill="#373133" points="81.0625345 239.897431 85.9636102 269 86.8164476 268.856504 81.9150836 239.753647"></polygon>
                <polygon id="Fill-10" fill="#373133" points="128.057995 251.424555 124.886524 232.983324 125.739073 232.836946 128.910544 251.278178"></polygon>
                <g id="Group-71" transform="translate(17.626908, 0.000000)">
                    <path d="M65.2977411,71.9239158 L63.4323396,86.6224419 L54.0159544,82.9828919 L42.5986595,78.5688102 C40.2777195,77.6723935 38.8188429,75.3585952 39.0148975,72.8779614 L41.0215736,47.1956647 C39.8538957,45.5647683 39.6203601,41.1299402 39.6203601,41.1299402 L54.0937996,40.0580436 C54.0937996,43.7895116 49.8930424,46.728871 49.8930424,46.728871 L51.2913727,68.1924478 L57.0115528,69.7167309 L65.2977411,71.9239158 Z" id="Fill-11" fill="#FCBB9D"></path>
                    <path d="M151.878981,73.0823997 L142.707664,77.1769295 L133.991885,81.0697582 L131.65653,66.3715202 L137.863963,64.6512991 L140.060927,64.0401451 L137.564115,38.3783067 C137.564115,38.3783067 132.824208,36.2777352 132.123601,32.545979 L146.129969,31.1458861 C146.129969,31.1458861 147.297647,34.8773541 146.830576,38.1449099 L154.759253,66.9907422 C155.433911,69.4546637 154.211453,72.042199 151.878981,73.0823997" id="Fill-13" fill="#FCBB9D"></path>
                    <polygon id="Fill-15" fill="#E6A68A" points="65.2977411 71.9239158 63.4323396 86.6224419 54.0159544 82.9828919 57.0115528 69.7167309"></polygon>
                    <polygon id="Fill-17" fill="#E6A68A" points="142.707635 77.1769295 133.991857 81.0697582 131.656501 66.3715202 137.863934 64.6512991"></polygon>
                    <polygon id="Fill-19" fill="#FCBB9D" points="39.5108002 197.419466 37.9192985 208.997102 31.2592098 206.193458 27.2804555 204.51934 28.8344762 193.21256 36.22112 196.122817"></polygon>
                    <path d="M33.8742893,194.761162 C33.8742893,194.761162 28.5540028,199.007832 29.560224,205.646964 C29.560224,205.646964 19.0741883,215.439258 16.4911694,217.131529 C14.8307603,218.218985 12.7312466,216.59875 13.3632343,214.718033 L22.3696347,190.684786 C22.8274798,189.32244 24.4469481,188.75566 25.6549902,189.53509 L33.8742893,194.761162 Z" id="Fill-21" fill="#4F216C"></path>
                    <polygon id="Fill-23" fill="#FCBB9D" points="82.3573421 195.29299 80.7658404 206.870626 75.0658424 204.470384 70.1269974 202.392864 71.6810181 191.085796 79.5462657 194.186228"></polygon>
                    <polygon id="Fill-25" fill="#E6A68A" points="39.5108002 197.419466 37.9192985 208.997102 31.2592098 206.193458 36.22112 196.122817"></polygon>
                    <polygon id="Fill-27" fill="#E6A68A" points="82.3573421 195.29299 80.7658404 206.870626 75.0658424 204.470384 79.5462657 194.186228"></polygon>
                    <path d="M76.7198509,192.635234 C76.7198509,192.635234 71.3995644,196.881904 72.4057856,203.521035 C72.4057856,203.521035 61.9197499,213.313329 59.336731,215.005601 C57.6763219,216.093057 55.5768082,214.47311 56.2087959,212.592393 L65.2154847,188.558857 C65.6733297,187.196511 67.2925097,186.63002 68.5005518,187.40945 L76.7198509,192.635234 Z" id="Fill-29" fill="#311547"></path>
                    <path d="M131.25061,133.777565 L137.097937,210.804285 C137.569622,217.014369 132.264616,222.116828 126.073617,221.408569 L78.507609,215.965524 L86.4086077,196.65525 L112.300495,197.741842 L99.1115016,142.466554 L131.25061,133.777565 Z" id="Fill-31" fill="#311547"></path>
                    <path d="M128.890603,136.39282 L100.632798,224.715082 C99.0969417,229.515565 94.077945,232.282614 89.1956098,231.020831 L31.9251898,216.218573 L37.746857,196.229718 L80.0268877,202.555349 L87.5646088,146.110772 L128.890603,136.39282 Z" id="Fill-33" fill="#4F216C"></path>
                    <g id="Group-37" transform="translate(0.000000, 0.000000)">
                        <mask id="mask-2" fill="white">
                            <use xlink:href="#path-1"></use>
                        </mask>
                        <g id="Clip-36"></g>
                        <path d="M2.03275113,41.8767236 L0.0139657993,19.0899885 C-0.157870256,17.1510659 1.27592287,15.4397772 3.21599806,15.2680432 L175.760156,-0.000144072123 L213.169096,11.5916108 L180.376376,28.7727878 L178.400838,29.8083782 L5.85667999,45.0765655 C3.91689311,45.2482995 2.20458719,43.8156463 2.03275113,41.8767236" id="Fill-35" fill="#F1884F" mask="url(#mask-2)"></path>
                    </g>
                    <g id="Group-40" transform="translate(175.700677, 0.000000)">
                        <mask id="mask-4" fill="white">
                            <use xlink:href="#path-3"></use>
                        </mask>
                        <g id="Clip-39"></g>
                        <polygon id="Fill-38" fill="#FCBB9D" mask="url(#mask-4)" points="2.64097024 29.8134783 3.27776807e-14 0.00524422528 0.0593929989 -0.000230515397 21.462208 6.63227374 37.4683328 11.5915244 23.3033909 19.0132557 22.5921165 19.3861144 2.70036324 29.8082917"></polygon>
                    </g>
                    <polygon id="Fill-41" fill="#373133" points="198.292851 19.3859991 197.162942 6.63215848 213.169067 11.5914091"></polygon>
                    <polygon id="Fill-43" fill="#D87245" points="44.8992733 41.6217736 43.5989702 26.7157836 179.121108 14.6042165 180.376434 28.7728454 178.400896 29.8084358"></polygon>
                    <polygon id="Fill-45" fill="#DBA18A" points="178.341647 29.8134783 177.010782 14.7910781 198.522292 12.8875972 199.004067 19.0132557 198.292793 19.3861144 178.40104 29.8082917"></polygon>
                    <polygon id="Fill-47" fill="#161415" points="198.292851 19.3859991 197.723428 12.9580773 213.169067 11.5914091"></polygon>
                    <path d="M2.03275113,41.8767236 L0.0139657993,19.0899885 C-0.157870256,17.1510659 1.27592287,15.4397772 3.21599806,15.2680432 L23.966355,13.4319881 L26.6070369,43.2402222 L5.85667999,45.0765655 C3.91689311,45.2482995 2.20458719,43.8156463 2.03275113,41.8767236" id="Fill-49" fill="#EE504F"></path>
                    <polygon id="Fill-51" fill="#373133" points="26.0152981 43.2926645 23.3743279 13.4844304 43.8502084 11.6725793 46.4911786 41.4808134"></polygon>
                    <path d="M2.03275113,41.8767236 L1.02854814,30.5422816 L25.2920298,28.3953188 L26.6070369,43.2402222 L5.85667999,45.0765655 C3.91689311,45.2482995 2.20458719,43.8156463 2.03275113,41.8767236" id="Fill-53" fill="#CE4646"></path>
                    <polygon id="Fill-55" fill="#161415" points="26.0152981 43.2926645 24.7000027 28.4474729 45.1761715 26.6356219 46.4911786 41.4808134"></polygon>
                    <path d="M109.819396,68.9763442 L111.846254,74.3268947 L96.7212217,77.1363011 C96.4934525,76.9867543 94.5329069,59.5886047 94.5329069,59.5886047 C94.5329069,59.5886047 90.1187961,58.2314453 89.2567327,54.4884515 C89.0376129,53.5459317 89.1788875,52.5720041 90.4215274,51.4975142 L89.8247143,45.1263568 L109.087075,41.219409 C109.087075,41.219409 120.129559,63.8012736 108.458547,65.3860669 L108.496028,65.4869174 L109.819396,68.9763442 Z" id="Fill-57" fill="#FCBB9D"></path>
                    <path d="M94.9663604,54.464161 C94.9663604,54.464161 93.1903368,49.1911213 89.5979253,52.4091162 C89.5979253,52.4091162 86.2618263,50.3347658 88.7110667,47.8725732 C88.7110667,47.8725732 84.3854688,42.0681955 91.0694877,40.1226455 C91.0694877,40.1226455 89.2049512,35.7843458 107.411789,32.4825009 C107.411789,32.4825009 110.132622,32.3234452 110.787387,36.5142152 C110.787387,36.5142152 110.907903,39.0444098 108.945627,40.0324564 C108.945627,40.0324564 111.861074,41.7990688 109.6742,43.6184115 C107.487616,45.4380425 99.9628685,44.2134294 99.9628685,44.2134294 C99.9628685,44.2134294 102.081699,44.9626044 101.668543,45.8328001 C101.255099,46.7024194 95.2442966,46.1535046 95.2442966,46.1535046 L96.5538257,54.5350444 L94.9663604,54.464161 Z" id="Fill-59" fill="#373133"></path>
                    <path d="M110.439246,70.4550429 C110.439246,70.4550429 112.306665,80.0199911 95.0328172,71.3883421 L77.5254333,72.7881468 L59.9736489,69.9666384 L58.3397648,88.863138 L80.7934898,94.4845441 C80.7934898,94.4845441 86.3957489,116.880556 86.3957489,127.145406 C86.3957489,137.410257 83.3612279,151.874234 83.3612279,151.874234 C83.3612279,151.874234 122.811153,153.274326 136.350162,134.844044 C136.350162,134.844044 127.713382,120.613176 126.545993,112.91425 C125.378891,105.2159 123.744719,87.4855204 123.744719,87.4855204 L138.47303,83.2861061 L135.088494,64.8097208 L110.439246,70.4550429 Z" id="Fill-61" fill="#5CC2AD"></path>
                    <polygon id="Fill-63" fill="#373133" points="81.6754182 98.8355799 78.0120811 87.9673552 78.8317621 87.6916011 82.4950992 98.5598258"></polygon>
                    <polygon id="Fill-65" fill="#373133" points="123.43034 91.765615 122.823724 83.1051515 123.686364 83.0449294 124.29298 91.7053929"></polygon>
                    <path d="M109.819396,68.9763442 C102.660522,67.8580564 100.688443,62.1012225 100.625014,61.9021148 C102.899823,64.5706187 105.915604,65.3828973 108.496028,65.4869174 L109.819396,68.9763442 Z" id="Fill-67" fill="#E6A68A"></path>
                    <path d="M108.406679,58.1506784 L112.731412,56.7099572 C112.731412,56.7099572 113.308043,60.7439767 108.406679,58.1506784" id="Fill-69" fill="#FFFFFF"></path>
                </g>
            </g>
        </g>
    </g>
</svg>