<?xml version="1.0" encoding="UTF-8"?>
<svg width="38px" height="37px" viewBox="0 0 38 37" version="1.1" xmlns="http://www.w3.org/2000/svg" xmlns:xlink="http://www.w3.org/1999/xlink">
    <title>0B0CCF5C-B387-4B15-9956-A3DC9FD0D73B@1.5x</title>
    <g id="Design" stroke="none" stroke-width="1" fill="none" fill-rule="evenodd">
        <g id="08_VirtualLearn_Home_categories" transform="translate(-169.000000, -423.000000)" fill-rule="nonzero">
            <g id="lifestyle" transform="translate(138.000000, 411.000000)">
                <g id="icn_categories_lifestyle" transform="translate(31.000000, 12.000000)">
                    <path d="M34.0912353,7.38110731 C34.0912353,15.3063881 38,20.7487885 38,24.567635 C38,28.3864814 35.9097982,36.406861 19.182729,36.406861 C2.45565986,36.406861 0,25.6171589 0,21.4167716 C0,1.74736355 34.0912353,-6.65455694 34.0912353,7.38110731 Z" id="Path" fill="#EFEFEF"></path>
                    <g id="Group" transform="translate(30.019436, 0.000000)" fill="#A4AFC1">
                        <polygon id="Path" transform="translate(1.126475, 1.133850) rotate(-45.000000) translate(-1.126475, -1.133850) " points="0.597187889 0.0700610292 1.66271531 0.0665843256 1.6557619 2.19763916 0.590234481 2.20111587"></polygon>
                        <polygon id="Path" transform="translate(5.444707, 5.481077) rotate(-45.000000) translate(-5.444707, -5.481077) " points="4.91542025 4.41728827 5.98094767 4.41381157 5.97399427 6.54486641 4.90846685 6.54834311"></polygon>
                        <polygon id="Path" transform="translate(5.256907, 1.134360) rotate(-45.000000) translate(-5.256907, -1.134360) " points="4.1931182 0.605073083 6.32417304 0.598119675 6.32069634 1.66364709 4.1896415 1.6706005"></polygon>
                    </g>
                    <path d="M22.4216117,8.38279272 L27.2015617,8.38279272 C27.7114231,8.38279272 28.1469296,8.74630902 28.2425286,9.23812519 L31.429162,24.7410261 C31.4397841,24.8158677 31.4504062,24.8800176 31.4504062,24.9548592 C31.4504062,25.5429003 30.9724112,26.0240248 30.3881951,26.0240248 L25.6082451,26.0240248 L22.4216117,8.38279272 Z" id="Path" fill="#FCBE4B"></path>
                    <path d="M27.2015617,24.9548592 C27.2015617,25.5429003 26.7235667,26.0240248 26.1393506,26.0240248 L8.61286711,26.0240248 C8.02865099,26.0240248 7.55065599,25.5429003 7.55065599,24.9548592 C7.55065599,24.8800176 7.5612781,24.8158677 7.57190021,24.7410261 L10.7585336,9.23812519 C10.8541326,8.74630902 11.2896391,8.38279272 11.7995005,8.38279272 L22.9527173,8.38279272 C23.4625786,8.38279272 23.8980851,8.74630902 23.9936842,9.23812519 L27.1803175,24.7410261 C27.1909396,24.8158677 27.2015617,24.8800176 27.2015617,24.9548592 Z" id="Path" fill="#F3F3F1"></path>
                    <path d="M9.94063101,24.9548592 C9.94063101,24.8800176 9.95125312,24.8158677 9.96187523,24.7410261 L13.1485086,9.23812519 C13.2441076,8.74630902 13.6796142,8.38279272 14.1894755,8.38279272 L11.7995005,8.38279272 C11.2896391,8.38279272 10.8541326,8.74630902 10.7585336,9.23812519 L7.57190021,24.7410261 C7.5612781,24.8158677 7.55065599,24.8800176 7.55065599,24.9548592 C7.55065599,25.5429003 8.02865099,26.0240248 8.61286711,26.0240248 L11.0028421,26.0240248 C10.418626,26.0240248 9.94063101,25.5429003 9.94063101,24.9548592 Z" id="Path" fill="#D5DBE1"></path>
                    <polygon id="Path" fill="#E1960A" points="24.0149284 8.38279272 27.2015617 26.0240248 29.325984 26.0240248 26.1393506 8.38279272"></polygon>
                    <path d="M26.1393506,26.825899 L8.61286711,26.825899 C7.58783338,26.825899 6.75399765,25.986604 6.75399765,24.9548592 C6.75399765,24.8458043 6.76568197,24.7506486 6.78055292,24.6426629 L9.9778084,9.07561202 C10.1456378,8.2127954 10.9125542,7.58091854 11.7995005,7.58091854 L22.9527173,7.58091854 C23.8396635,7.58091854 24.60658,8.2127954 24.7754715,9.08416534 L27.9599805,24.5785129 C27.9865358,24.7506486 27.9982201,24.8458043 27.9982201,24.9548592 C27.9982201,25.986604 27.1643843,26.825899 26.1393506,26.825899 Z M11.7995005,9.18466691 C11.6741596,9.18466691 11.5636896,9.27340765 11.540321,9.39101586 L8.35145465,24.9035393 C8.34731433,25.1002657 8.4684064,25.2221506 8.61286711,25.2221506 L26.1393506,25.2221506 C26.2838113,25.2221506 26.4049034,25.1002657 26.4049034,24.9548592 L27.2015617,24.9548592 L26.4049034,24.9548592 C26.4049034,24.9270609 26.3985301,24.9035393 26.3953435,24.8757409 L23.2140212,9.39956919 C23.1895903,9.27233849 23.0780582,9.18359774 22.9527173,9.18359774 L11.7995005,9.18359774 L11.7995005,9.18466691 Z" id="Shape" fill="#2B2B2B"></path>
                    <path d="M30.3881951,26.825899 L25.6082451,26.825899 L25.6082451,25.2221506 L30.3881951,25.2221506 C30.5326558,25.2221506 30.6537479,25.1002657 30.6537479,24.9548592 L27.4628657,9.40063835 C27.4384348,9.27340765 27.3269026,9.18466691 27.2015617,9.18466691 L22.4216117,9.18466691 L22.4216117,7.58091854 L27.2015617,7.58091854 C28.088508,7.58091854 28.8554245,8.2127954 29.024316,9.08416534 L32.208825,24.5785129 C32.2353802,24.7506486 32.2470646,24.8458043 32.2470646,24.9548592 C32.2470646,25.986604 31.4132288,26.825899 30.3881951,26.825899 L30.3881951,26.825899 Z" id="Path" fill="#2B2B2B"></path>
                    <path d="M17.3761089,17.2034088 C15.0328711,17.2034088 13.1272644,15.2853257 13.1272644,12.9267464 L13.1272644,10.5211239 L14.7205811,10.5211239 L14.7205811,12.9267464 C14.7205811,14.4000566 15.9123819,15.5996604 17.3761089,15.5996604 C18.8398358,15.5996604 20.0316367,14.4000566 20.0316367,12.9267464 L20.0316367,10.5211239 L21.6249533,10.5211239 L21.6249533,12.9267464 C21.6249533,15.2853257 19.7193466,17.2034088 17.3761089,17.2034088 Z" id="Path" fill="#2B2B2B"></path>
                </g>
            </g>
        </g>
    </g>
</svg>