<?xml version="1.0" encoding="UTF-8"?>
<svg width="38px" height="34px" viewBox="0 0 38 34" version="1.1" xmlns="http://www.w3.org/2000/svg" xmlns:xlink="http://www.w3.org/1999/xlink">
    <title>67545B5D-AE68-455C-9178-A4867C565BC9@1.5x</title>
    <g id="Design" stroke="none" stroke-width="1" fill="none" fill-rule="evenodd">
        <g id="08_VirtualLearn_Home_categories" transform="translate(-169.000000, -517.000000)" fill-rule="nonzero">
            <g id="fitness" transform="translate(138.000000, 505.000000)">
                <g id="icn_categories_fitness" transform="translate(31.000000, 12.000000)">
                    <path d="M3.90887689,27.4132118 C3.90887689,19.9282244 0,14.7881795 0,11.1814912 C0,7.57480293 2.09026183,-1.08124979e-14 18.8178112,-1.08124979e-14 C35.5453606,-1.08124979e-14 38,10.1902742 38,14.1573067 C38.001091,32.7339698 3.90887689,40.6691169 3.90887689,27.4132118 Z" id="Path" fill="#EFEFEF"></path>
                    <path d="M29.7785944,19.9758374 C28.6221865,24.9319228 22.7855994,25.1267034 20.221865,22.9300106 C18.0617823,25.2349149 14.2870923,25.3647687 12.1379192,23.0923278 C10.4142168,22.7244088 8.8541571,21.8046113 7.27227836,20.2030815 C6.79225999,19.726951 6.60679835,19.0343976 6.8031695,18.3851288 C7.51228755,15.9611919 9.33417547,9.69574774 10.032384,7.3150954 C10.2069362,6.73075346 10.6651355,6.25462299 11.254249,6.07066349 L14.7343822,4.93444305 C15.5089573,4.68555667 16.3708085,4.88033731 16.9490124,5.45385811 L18.312701,6.78485919 C18.6290767,7.08785131 18.6836243,7.56398178 18.4436151,7.93190078 L17.1017455,10.0312033 C16.7853698,10.5289761 16.0653422,10.6155452 15.6289619,10.1935205 L14.5925586,9.16551154 L12.3779283,16.632103 C14.5489205,14.5977274 18.1381488,14.8033291 20.221865,17.0216643 C22.7855994,14.8249714 28.6221865,15.0197521 29.7785944,19.9758374 L29.7785944,19.9758374 Z" id="Path" fill="#F3F3F1"></path>
                    <path d="M20.1378617,24.528294 L20.7771589,23.8941748 C21.2037207,23.4710679 21.8942926,23.4710679 22.3197634,23.8941748 L25.1409623,26.6925234 C25.5675241,27.1156302 25.5675241,27.8006089 25.1409623,28.2226336 L24.5016651,28.8567528 C24.0751034,29.2798596 23.3845315,29.2798596 22.9590606,28.8567528 L20.1378617,26.0584042 C19.7113,25.6363794 19.7113,24.9514008 20.1378617,24.528294 Z" id="Path" fill="#FCBE4B"></path>
                    <path d="M25.9504479,18.7627868 L26.5897451,18.1286676 C27.0163068,17.7055608 27.7068787,17.7055608 28.1323496,18.1286676 L30.9535485,20.9270163 C31.3801102,21.3501231 31.3801102,22.0351017 30.9535485,22.4571264 L30.3142513,23.0912457 C29.8876895,23.5143525 29.1971176,23.5143525 28.7716468,23.0912457 L25.9504479,20.292897 C25.524977,19.8697902 25.524977,19.1848116 25.9504479,18.7627868 Z" id="Path" fill="#FCBE4B"></path>
                    <path d="M17.1235645,24.6289307 C15.3453147,24.9643862 13.4470602,24.4666134 12.1379192,23.0923278 C10.4142168,22.7244088 8.8541571,21.8046113 7.27227836,20.2030815 C6.79225999,19.726951 6.60679835,19.0343976 6.8031695,18.3851288 C7.51228755,15.9611919 9.33417547,9.69574774 10.032384,7.3150954 C10.2069362,6.73075346 10.6651355,6.25462299 11.254249,6.07066349 L14.7343822,4.93444305 C15.3016766,4.75048355 15.9235186,4.80458928 16.4362655,5.09676025 L13.4361507,6.07066349 C12.8470372,6.25462299 12.3888379,6.73075346 12.2142857,7.3150954 C11.5160772,9.69574774 9.69418925,15.9611919 8.9850712,18.3851288 C8.78870005,19.0343976 8.97416169,19.726951 9.45418006,20.2030815 C11.0360588,21.8046113 12.5961185,22.7244088 14.3198209,23.0923278 C15.094396,23.9147349 16.0762517,24.4233289 17.1235645,24.6289307 L17.1235645,24.6289307 Z" id="Path" fill="#D5DBE1"></path>
                    <path d="M24.8256775,28.5461859 L24.4983923,28.8599991 C24.0729215,29.2820239 23.3856224,29.2820239 22.9601516,28.8599991 L20.1345889,26.0573221 C19.7091181,25.6352973 19.7091181,24.9535651 20.1345889,24.5315403 L20.7782499,23.8930927 C21.2037207,23.4710679 21.8910198,23.4710679 22.3164906,23.8930927 L22.6437758,24.2177271 L22.3164906,24.5315403 C21.8910198,24.9535651 21.8910198,25.6352973 22.3164906,26.0573221 L24.8256775,28.5461859 Z" id="Path" fill="#E1960A"></path>
                    <path d="M30.6404456,22.7785145 L30.3131603,23.0923278 C29.8876895,23.5143525 29.2003904,23.5143525 28.7749196,23.0923278 L25.9493569,20.2896507 C25.5238861,19.867626 25.5238861,19.1858937 25.9493569,18.763869 L26.5930179,18.1254213 C27.0184887,17.7033966 27.7057878,17.7033966 28.1312586,18.1254213 L28.4585439,18.4500557 L28.1312586,18.763869 C27.7057878,19.1858937 27.7057878,19.867626 28.1312586,20.2896507 L30.6404456,22.7785145 Z" id="Path" fill="#E1960A"></path>
                    <path d="M23.7303629,29.9843163 C23.2416169,29.9843163 22.7528709,29.7992747 22.3808567,29.4302736 L19.5596578,26.631925 C18.8145384,25.8928406 18.8145384,24.6927754 19.5596578,23.9536911 L20.198955,23.3195719 C20.9429835,22.5815696 22.1550299,22.5815696 22.8990583,23.3195719 L25.7202572,26.1179205 C26.4653767,26.8570048 26.4653767,28.05707 25.7202572,28.7961544 L25.08096,29.4302736 C24.7078548,29.7992747 24.2191089,29.9843163 23.7303629,29.9843163 Z M21.5484612,24.3887012 C21.4786403,24.3887012 21.4088195,24.4146719 21.3553629,24.4676956 L20.7160657,25.1018148 C20.6091525,25.207862 20.6091525,25.3788361 20.7160657,25.4848834 L23.5372646,28.283232 C23.6441778,28.3892792 23.816548,28.3892792 23.9234612,28.283232 L24.5627584,27.6491128 C24.6696716,27.5430656 24.6696716,27.3720914 24.5627584,27.2660442 L21.7415595,24.4676956 C21.6881029,24.4157541 21.618282,24.3887012 21.5484612,24.3887012 Z" id="Shape" fill="#2B2B2B"></path>
                    <path d="M29.542949,24.2188092 C29.054203,24.2188092 28.5654571,24.0337676 28.1934428,23.6647665 L25.3722439,20.8664178 C24.6271245,20.1273335 24.6271245,18.9272683 25.3722439,18.1881839 L26.0115411,17.5540647 C26.7555696,16.8160625 27.967616,16.8160625 28.7116445,17.5540647 L31.5328434,20.3524133 C32.2779628,21.0914977 32.2779628,22.2915629 31.5328434,23.0306472 L30.8935462,23.6647665 C30.5215319,24.0337676 30.031695,24.2188092 29.542949,24.2188092 Z M27.3610473,18.623194 C27.2912265,18.623194 27.2214056,18.6491648 27.167949,18.7021884 L26.5286518,19.3363076 C26.4217386,19.4423549 26.4217386,19.613329 26.5286518,19.7193762 L29.3498507,22.5177249 C29.4567639,22.6237721 29.6291341,22.6237721 29.7360473,22.5177249 L30.3753445,21.8836057 C30.4822577,21.7775584 30.4822577,21.6065843 30.3753445,21.500537 L27.5541456,18.7021884 C27.500689,18.6491648 27.4319591,18.623194 27.3610473,18.623194 Z" id="Shape" fill="#2B2B2B"></path>
                    <polygon id="Path" fill="#2B2B2B" transform="translate(25.540636, 23.492328) rotate(-45.000000) translate(-25.540636, -23.492328) " points="23.2325917 22.6681796 27.8420541 22.6869227 27.8486802 24.3164757 23.2392179 24.2977327"></polygon>
                    <path d="M19.7233004,19.0149196 L18.3323381,18.1611311 L18.7632637,17.4707419 C19.6076596,16.1148522 21.2920877,15.1647555 23.2677997,14.9299366 L24.0794672,14.8336284 L24.2747474,16.4448972 L23.461989,16.5422875 C21.9990239,16.7154258 20.7324299,17.3982402 20.1553169,18.3234483 L19.7233004,19.0149196 Z" id="Path" fill="#2B2B2B"></path>
                    <path d="M14.9569362,24.2685865 C11.7593592,24.2685865 8.98616215,23.0999026 6.68971061,20.7766023 C5.99804777,20.0905416 5.73949242,19.0841749 6.02204869,18.1557205 L7.29409738,13.7904698 C8.03048921,11.2648141 8.83561093,8.500011 9.2490813,7.09326188 C9.50327285,6.23514492 10.1611162,5.56639804 11.008785,5.30236205 L14.4736449,4.16614161 C15.5493225,3.81337222 16.7188218,4.08390089 17.5250345,4.87492674 L18.889814,6.21242051 C19.4767455,6.77512016 19.5814768,7.68734285 19.133096,8.37664992 L17.7944993,10.4705419 C17.511943,10.9142089 17.0439251,11.2052978 16.5104502,11.2680604 C15.980248,11.3264946 15.4445912,11.1533562 15.0594855,10.7800267 L14.4190974,10.1448253 L12.3124713,11.1771628 L11.5880799,9.72063638 L14.2205443,8.43183777 C14.5325563,8.2792596 14.9132981,8.33985802 15.160944,8.58658017 L16.2082568,9.62541029 C16.2398944,9.6557095 16.2868052,9.66003796 16.3184428,9.6557095 L17.7530432,7.50230124 C17.7846808,7.45360608 17.779226,7.40707515 17.7443156,7.37352959 L16.3729904,6.02954313 C16.0075218,5.66919893 15.4751378,5.54800209 14.9863918,5.70707295 L11.5095315,6.84653973 C11.1757005,6.95150486 10.9149633,7.2198693 10.8167777,7.54991429 C10.4043983,8.95449917 9.59927653,11.717138 8.86397565,14.2427937 L7.58865411,18.6167014 C7.47737712,18.9792098 7.57883555,19.3666069 7.84939136,19.6349713 C10.2876665,22.1000286 13.3532384,23.0533716 16.9697405,22.480933 L17.778135,22.3521613 L18.0366904,23.9547732 L17.2293868,24.0824627 C16.4515388,24.2069059 15.693328,24.2685865 14.9569362,24.2685865 L14.9569362,24.2685865 Z" id="Path" fill="#2B2B2B"></path>
                    <path d="M20.1029513,18.0399342 L19.5258383,17.4653313 C17.8534107,15.7999568 15.1140331,15.5597273 13.2899633,16.9177813 L12.6353927,17.4047329 L11.653537,16.1072774 L12.3081075,15.6203257 C14.8129306,13.7558421 18.4152503,14.0588342 20.6855191,16.3193718 L21.2626321,16.8939748 L20.1029513,18.0399342 Z" id="Path" fill="#2B2B2B"></path>
                    <polygon id="Path" fill="#2B2B2B" transform="translate(13.263600, 13.588324) rotate(-73.613694) translate(-13.263600, -13.588324) " points="8.61349288 12.7601519 17.9101186 12.7806846 17.9137069 14.4164956 8.61708114 14.3959629"></polygon>
                    <path d="M28.033073,6.17887496 C27.1308567,6.17887496 26.3966468,5.45061176 26.3966468,4.5557029 C26.3966468,3.66079404 27.1308567,2.93253085 28.033073,2.93253085 C28.9352894,2.93253085 29.6694993,3.66079404 29.6694993,4.5557029 C29.6694993,5.45061176 28.9352894,6.17887496 28.033073,6.17887496 Z M28.033073,4.01464555 C27.7330616,4.01464555 27.4875976,4.25812136 27.4875976,4.5557029 C27.4875976,4.85328445 27.7330616,5.09676025 28.033073,5.09676025 C28.3330845,5.09676025 28.5785485,4.85328445 28.5785485,4.5557029 C28.5785485,4.25812136 28.3341755,4.01464555 28.033073,4.01464555 Z" id="Shape" fill="#A4AFC1"></path>
                </g>
            </g>
        </g>
    </g>
</svg>