<?xml version="1.0" encoding="UTF-8"?>
<svg width="241px" height="145px" viewBox="0 0 241 145" version="1.1" xmlns="http://www.w3.org/2000/svg" xmlns:xlink="http://www.w3.org/1999/xlink">
    <title>ABF20C76-E6C3-4664-A8F2-F3A0F881729F@1.5x</title>
    <g id="Design" stroke="none" stroke-width="1" fill="none" fill-rule="evenodd">
        <g id="01_VirtualLearn_Splash" transform="translate(-67.000000, -336.000000)">
            <g id="img_virtuallearn-logo_splash" transform="translate(67.000000, 336.000000)">
                <g id="Logo" transform="translate(89.000000, 0.000000)">
                    <g id="Group" transform="translate(0.000000, -0.000000)">
                        <path d="M32.3382203,-2.54769245e-14 C29.7076183,-2.54769245e-14 27.5748507,2.16016371 27.5748507,4.82373806 L27.5748507,7.98417462 L17.8994078,2.56125512 C16.0268717,1.50859482 13.6653913,2.19208731 12.6260812,4.08867667 C11.5851549,5.98526603 12.2615954,8.37708049 14.1341314,9.43055935 L21.5022414,13.5601637 L27.7534568,10.0952251 L29.5572982,9.09495225 L37.1015898,4.91214188 L37.1015898,4.82373806 C37.1015898,2.16016371 34.9688222,-2.54769245e-14 32.3382203,-2.54769245e-14" id="Fill-1" fill="#FFFFFF"></path>
                        <path d="M58.5181649,25.8196453 L58.3928982,25.746794 L43.3091639,16.9849932 L35.6864795,21.5099591 L35.4682729,21.6401091 L53.9156217,32.6070941 C54.3843619,32.9557981 54.8571429,34.207367 54.8571429,34.7942701 L54.8571429,58.7877217 C54.8571429,59.3738063 54.3908272,60.6253752 53.9245116,60.9748977 L33.628872,72.9519782 C33.5092624,73.0043656 33.1237641,73.1410641 32.4545971,73.1410641 C31.7838138,73.1410641 31.3684131,73.0043656 31.2504199,72.9519782 L10.5830208,60.9667121 C10.0892273,60.6253752 9.14285714,59.3664393 9.14285714,58.7623465 L9.14285714,34.8204638 C9.14285714,34.2180082 10.1126643,32.9557981 10.607266,32.6160982 L28.3086714,22.3088677 L30.5481178,21.0785812 L31.5348966,20.5358799 L32.753621,19.8671214 L40.7286687,15.4854025 L40.8442374,15.4215553 L44.5036431,13.4111869 L50.1406473,10.3154161 C52.0285386,9.29304229 52.7429632,6.91350614 51.7335556,4.99972715 C50.7249561,3.0851296 48.3755982,2.36234652 46.4852824,3.38553888 L41.7049412,6.01145975 L40.1144575,6.89631651 L37.1015898,8.57271487 L32.8481772,10.9399727 L29.6017477,12.7465211 L28.8396409,13.1697135 L24.8084757,15.4133697 L23.7045119,16.0272851 L16.7720069,19.8851296 L8.93273225,24.1825375 L6.01765352,25.8196453 C3.21086992,27.4649386 6.42573848e-13,31.495498 6.42573848e-13,34.7795362 L6.42573848e-13,58.8008186 C6.42573848e-13,62.0848568 3.20036368,66.1170532 6.00714728,67.7607094 L27.0042808,79.7656207 C28.4072685,80.5866303 30.4608352,81 32.3083179,81 C34.1517597,81 36.1018803,80.5866303 37.5056762,79.7656207 L58.4777563,67.7607094 C61.2861563,66.1170532 64,62.0848568 64,58.8008186 L64,34.7795362 C64,31.495498 61.3289894,27.4649386 58.5181649,25.8196453" id="Fill-3" fill="#FFFFFF"></path>
                        <path d="M42.4565649,48.3413172 C42.293818,48.6706447 42.0292313,48.9376403 41.7026552,49.1018078 L41.7026552,49.1102444 L28.2683635,55.8860749 C27.438689,56.3042356 26.4301307,55.9648833 26.0154902,55.1279664 C25.8976119,54.8900525 25.8369016,54.6274242 25.8383513,54.3615205 L25.8383513,40.8099588 C25.837984,39.8743827 26.5894337,39.1156786 27.5169137,39.1151822 C27.7777614,39.1151822 28.0350667,39.1762241 28.2683635,39.2938411 L41.7026552,46.0696715 C42.5327233,46.4869389 42.8703198,47.5040033 42.4565649,48.3413172 Z" id="Path" fill="#FCBE4B" fill-rule="nonzero"></path>
                    </g>
                </g>
                <g id="Group-2" transform="translate(0.000000, 97.000000)" font-family="Biko-Black, Biko" font-size="40" font-weight="700">
                    <text id="Virtua-Learn">
                        <tspan x="0" y="38" fill="#FFFFFF">Virtua  </tspan>
                        <tspan x="136.24" y="38" fill="#EE5C4D">Learn</tspan>
                    </text>
                    <text id="L" transform="translate(130.500000, 24.000000) scale(-1, 1) translate(-130.500000, -24.000000) " fill="#FFFFFF">
                        <tspan x="118" y="38">L</tspan>
                    </text>
                </g>
            </g>
        </g>
    </g>
</svg>