<?xml version="1.0" encoding="UTF-8"?>
<svg width="38px" height="41px" viewBox="0 0 38 41" version="1.1" xmlns="http://www.w3.org/2000/svg" xmlns:xlink="http://www.w3.org/1999/xlink">
    <title>D4A34EA9-D21F-48CD-AAD7-148CB71947BC@1.5x</title>
    <g id="Design" stroke="none" stroke-width="1" fill="none" fill-rule="evenodd">
        <g id="08_VirtualLearn_Home_categories" transform="translate(-169.000000, -329.000000)" fill-rule="nonzero">
            <g id="photography" transform="translate(138.000000, 317.000000)">
                <g id="icn_categories_photography" transform="translate(31.000000, 12.000000)">
                    <g id="BG" transform="translate(0.344423, 0.000000)" fill="#EFEFEF">
                        <path d="M7.22826423,36.7826486 C15.4422017,36.7826486 21.0828267,41 25.0407642,41 C28.9987017,41 37.3112017,38.7447822 37.3112017,20.697155 C37.3112017,2.64952775 26.1285142,0 21.7751392,0 C1.38932673,0 -7.31861077,36.7826486 7.22826423,36.7826486 Z" id="Path"></path>
                    </g>
                    <g id="Color" transform="translate(1.074350, 2.630197)">
                        <path d="M31.2850248,12.8679512 L31.2850248,25.2269211 C31.2850248,26.5275556 30.2222123,27.5810106 28.9100248,27.5810106 L6.94127475,27.5810106 C5.62908725,27.5810106 4.56627475,26.5275556 4.56627475,25.2269211 L4.56627475,12.8679512 C4.56627475,11.5673167 5.62908725,10.5138617 6.94127475,10.5138617 L16.1443998,10.5138617 L17.2689623,8.28453889 C17.6715248,7.48650254 18.4932748,6.98272738 19.3933998,6.98272738 L24.4735248,6.98272738 C25.3736498,6.98272738 26.1953997,7.48650254 26.5979623,8.28453889 L27.7225248,10.5138617 L28.9100248,10.5138617 C30.2222123,10.5138617 31.2850248,11.5673167 31.2850248,12.8679512 Z" id="Path" fill="#F3F3F1"></path>
                        <ellipse id="Oval" fill="#FCBE4B" cx="22.6756498" cy="19.0474361" rx="5.046875" ry="5.00244021"></ellipse>
                        <g id="Group" transform="translate(4.566275, 6.982727)" fill="#D5DBE1">
                            <path d="M15.3745625,1.3018115 C15.777125,0.503775156 16.598875,0 17.499,0 L14.827125,0 C13.927,0 13.10525,0.503775156 12.7026875,1.3018115 L11.578125,3.53113427 L14.25,3.53113427 L15.3745625,1.3018115 Z" id="Path"></path>
                            <path d="M2.671875,18.2441937 L2.671875,5.88522378 C2.671875,4.58458933 3.7346875,3.53113427 5.046875,3.53113427 L2.375,3.53113427 C1.0628125,3.53113427 0,4.58458933 0,5.88522378 L0,18.2441937 C0,19.5448282 1.0628125,20.5982832 2.375,20.5982832 L5.046875,20.5982832 C3.7346875,20.5982832 2.671875,19.5448282 2.671875,18.2441937 Z" id="Path"></path>
                        </g>
                        <path d="M20.3006497,19.0474361 C20.3006497,16.7463136 21.8776497,14.8277307 24.0115872,14.2450935 C23.5828997,14.1285661 23.1411497,14.0449959 22.6756497,14.0449959 C19.8885872,14.0449959 17.6287748,16.2849121 17.6287748,19.0474361 C17.6287748,21.8099602 19.8885872,24.0498764 22.6756497,24.0498764 C23.1411497,24.0498764 23.5828997,23.9674832 24.0115872,23.8497787 C21.8776497,23.2671416 20.3006497,21.3485586 20.3006497,19.0474361 Z" id="Path" fill="#E1960A"></path>
                        <g id="Group" transform="translate(0.000000, 0.000000)" fill="#A4AFC1">
                            <polygon id="Path" transform="translate(6.087719, 1.457154) rotate(-45.000000) translate(-6.087719, -1.457154) " points="4.90301149 0.860880583 7.26719918 0.871334248 7.27242601 2.05342809 4.90823832 2.04297442"></polygon>
                            <polygon id="Path" transform="translate(1.259344, 6.242223) rotate(-45.000000) translate(-1.259344, -6.242223) " points="0.0746364922 5.64594888 2.43882418 5.65640255 2.44405101 6.83849639 0.0798633246 6.82804272"></polygon>
                            <polygon id="Path" transform="translate(1.259580, 1.248256) rotate(-45.000000) translate(-1.259580, -1.248256) " points="0.663306309 0.0635487064 1.84540015 0.0687755388 1.85585382 2.43296322 0.673759974 2.42773639"></polygon>
                        </g>
                        <path d="M32.1756497,4.33437668 C31.1935872,4.33437668 30.3943997,3.54222556 30.3943997,2.56880955 C30.3943997,1.59539353 31.1935872,0.803242414 32.1756497,0.803242414 C33.1577122,0.803242414 33.9568997,1.59539353 33.9568997,2.56880955 C33.9568997,3.54222556 33.1577122,4.33437668 32.1756497,4.33437668 Z M32.1756497,1.98028717 C31.8478997,1.98028717 31.5818997,2.2439452 31.5818997,2.56880955 C31.5818997,2.8936739 31.8478997,3.15733193 32.1756497,3.15733193 C32.5033997,3.15733193 32.7693997,2.8936739 32.7693997,2.56880955 C32.7693997,2.2439452 32.5033997,1.98028717 32.1756497,1.98028717 Z" id="Shape" fill="#A4AFC1"></path>
                    </g>
                    <g id="regular_1.5" transform="translate(0.000000, 8.730141)" fill="#2B2B2B">
                        <path d="M23.75,18.8327161 C20.4760625,18.8327161 17.8125,16.1926047 17.8125,12.9474923 C17.8125,9.70237993 20.4760625,7.06226854 23.75,7.06226854 C27.0239375,7.06226854 29.6875,9.70237993 29.6875,12.9474923 C29.6875,16.1926047 27.0239375,18.8327161 23.75,18.8327161 Z M23.75,8.82783567 C21.458125,8.82783567 19.59375,10.6757959 19.59375,12.9474923 C19.59375,15.2191887 21.458125,17.067149 23.75,17.067149 C26.041875,17.067149 27.90625,15.2191887 27.90625,12.9474923 C27.90625,10.6757959 26.041875,8.82783567 23.75,8.82783567 Z" id="Shape"></path>
                        <path d="M29.984375,22.3638504 L8.015625,22.3638504 C6.2141875,22.3638504 4.75,20.9125542 4.75,19.1269773 L4.75,6.76800735 C4.75,4.98243045 6.2141875,3.53113427 8.015625,3.53113427 L16.6689375,3.53113427 L17.5476875,1.78910803 C18.104625,0.686217093 19.22325,0 20.46775,0 L25.547875,0 C26.792375,0 27.911,0.686217093 28.4679375,1.78910803 L29.3466875,3.53113427 L29.984375,3.53113427 C31.7858125,3.53113427 33.25,4.98243045 33.25,6.76800735 L33.25,19.1269773 C33.25,20.9125542 31.7858125,22.3638504 29.984375,22.3638504 L29.984375,22.3638504 Z M8.015625,5.2967014 C7.1974375,5.2967014 6.53125,5.95702351 6.53125,6.76800735 L6.53125,19.1269773 C6.53125,19.9379611 7.1974375,20.5982832 8.015625,20.5982832 L29.984375,20.5982832 C30.8025625,20.5982832 31.46875,19.9379611 31.46875,19.1269773 L31.46875,6.76800735 C31.46875,5.95702351 30.8025625,5.2967014 29.984375,5.2967014 L28.796875,5.2967014 C28.459625,5.2967014 28.150875,5.1071972 28.0000625,4.80822783 L26.8755,2.57772802 C26.6225625,2.077484 26.113125,1.76556713 25.547875,1.76556713 L20.46775,1.76556713 C19.9025,1.76556713 19.3930625,2.077484 19.140125,2.57890506 L18.0155625,4.80940487 C17.86475,5.1071972 17.556,5.2967014 17.21875,5.2967014 L8.015625,5.2967014 Z" id="Shape"></path>
                        <polygon id="Path" points="9.203125 7.65079092 13.359375 7.65079092 13.359375 9.41635805 9.203125 9.41635805"></polygon>
                        <polygon id="Path" points="10.09375 2.05982832 11.875 2.05982832 11.875 4.41391784 10.09375 4.41391784"></polygon>
                        <polygon id="Path" points="0 20.5982832 38 20.5982832 38 22.3638504 0 22.3638504"></polygon>
                    </g>
                </g>
            </g>
        </g>
    </g>
</svg>