<?xml version="1.0" encoding="UTF-8"?>
<svg width="38px" height="41px" viewBox="0 0 38 41" version="1.1" xmlns="http://www.w3.org/2000/svg" xmlns:xlink="http://www.w3.org/1999/xlink">
    <title>635FBDCF-41EC-4C15-8FD7-6A1875A391BC@1.5x</title>
    <g id="Design" stroke="none" stroke-width="1" fill="none" fill-rule="evenodd">
        <g id="08_VirtualLearn_Home_categories" transform="translate(-283.000000, -235.000000)" fill-rule="nonzero">
            <g id="business" transform="translate(252.000000, 223.000000)">
                <g id="icn_categories_business" transform="translate(31.000000, 12.000000)">
                    <path d="M7.5726875,4.21747244 C15.786625,4.21747244 21.42725,0 25.3851875,0 C29.343125,0 37.655625,2.2552825 37.655625,20.3034279 C37.655625,38.3515733 26.4729375,41 22.1195625,41 C1.73375,41.0011771 -6.9741875,4.21747244 7.5726875,4.21747244 Z" id="Path" fill="#EFEFEF"></path>
                    <g id="Group" transform="translate(28.385214, 2.148168)" fill="#A4AFC1">
                        <polygon id="Path" transform="translate(1.259344, 1.248292) rotate(-45.000000) translate(-1.259344, -1.248292) " points="0.663078444 0.0635760961 1.84518918 0.068786035 1.85560906 2.43300751 0.673498321 2.42779757"></polygon>
                        <polygon id="Path" transform="translate(6.086916, 6.034293) rotate(-45.000000) translate(-6.086916, -6.034293) " points="5.49065069 4.84957747 6.67276143 4.85478741 6.68318131 7.21900888 5.50107057 7.21379894"></polygon>
                        <polygon id="Path" transform="translate(5.876965, 1.248853) rotate(-45.000000) translate(-5.876965, -1.248853) " points="4.69224911 0.652587961 7.05647058 0.663007838 7.06168052 1.84511857 4.69745905 1.8346987"></polygon>
                    </g>
                    <path d="M29.984375,31.3879766 L8.015625,31.3879766 C6.7034375,31.3879766 5.640625,30.3344913 5.640625,29.0338195 L5.640625,15.4974162 C5.640625,14.1967444 6.7034375,13.1432591 8.015625,13.1432591 L29.984375,13.1432591 C31.2965625,13.1432591 32.359375,14.1967444 32.359375,15.4974162 L32.359375,29.0338195 C32.359375,30.3344913 31.2965625,31.3879766 29.984375,31.3879766 Z" id="Path" fill="#F3F3F1"></path>
                    <path d="M10.390625,24.3255053 L10.390625,21.3828089 C10.390625,20.7330616 10.922625,20.2057304 11.578125,20.2057304 L13.359375,20.2057304 C14.014875,20.2057304 14.546875,20.7330616 14.546875,21.3828089 L14.546875,24.3255053 C14.546875,24.9752526 14.014875,25.5025838 13.359375,25.5025838 L11.578125,25.5025838 C10.922625,25.5025838 10.390625,24.9752526 10.390625,24.3255053 Z" id="Path" fill="#FCBE4B"></path>
                    <path d="M23.453125,24.3255053 L23.453125,21.3828089 C23.453125,20.7330616 23.985125,20.2057304 24.640625,20.2057304 L26.421875,20.2057304 C27.077375,20.2057304 27.609375,20.7330616 27.609375,21.3828089 L27.609375,24.3255053 C27.609375,24.9752526 27.077375,25.5025838 26.421875,25.5025838 L24.640625,25.5025838 C23.985125,25.5025838 23.453125,24.9752526 23.453125,24.3255053 Z" id="Path" fill="#FCBE4B"></path>
                    <path d="M8.3125,29.0338195 L8.3125,15.4974162 C8.3125,14.1967444 9.3753125,13.1432591 10.6875,13.1432591 L8.015625,13.1432591 C6.7034375,13.1432591 5.640625,14.1967444 5.640625,15.4974162 L5.640625,29.0338195 C5.640625,30.3344913 6.7034375,31.3879766 8.015625,31.3879766 L10.6875,31.3879766 C9.3753125,31.3879766 8.3125,30.3344913 8.3125,29.0338195 Z" id="Path" fill="#D5DBE1"></path>
                    <path d="M13.0625,24.3255053 L13.0625,21.3828089 C13.0625,20.889613 13.3700625,20.469396 13.8046875,20.2951883 C13.6669375,20.2398656 13.5173125,20.2057304 13.359375,20.2057304 L11.578125,20.2057304 C10.922625,20.2057304 10.390625,20.7330616 10.390625,21.3828089 L10.390625,24.3255053 C10.390625,24.9752526 10.922625,25.5025838 11.578125,25.5025838 L13.359375,25.5025838 C13.5173125,25.5025838 13.6669375,25.4684486 13.8046875,25.4131259 C13.3700625,25.2389182 13.0625,24.8187012 13.0625,24.3255053 Z" id="Path" fill="#E1960A"></path>
                    <path d="M26.125,24.3255053 L26.125,21.3828089 C26.125,20.889613 26.4325625,20.469396 26.8671875,20.2951883 C26.7294375,20.2398656 26.5798125,20.2057304 26.421875,20.2057304 L24.640625,20.2057304 C23.985125,20.2057304 23.453125,20.7330616 23.453125,21.3828089 L23.453125,24.3255053 C23.453125,24.9752526 23.985125,25.5025838 24.640625,25.5025838 L26.421875,25.5025838 C26.5798125,25.5025838 26.7294375,25.4684486 26.8671875,25.4131259 C26.4325625,25.2389182 26.125,24.8187012 26.125,24.3255053 Z" id="Path" fill="#E1960A"></path>
                    <path d="M29.984375,32.2707855 L8.015625,32.2707855 C6.2141875,32.2707855 4.75,30.8194476 4.75,29.0338195 L4.75,15.4974162 C4.75,13.711788 6.2141875,12.2604502 8.015625,12.2604502 L29.984375,12.2604502 C31.7858125,12.2604502 33.25,13.711788 33.25,15.4974162 L33.25,29.0338195 C33.25,30.8194476 31.7858125,32.2707855 29.984375,32.2707855 Z M8.015625,14.026068 C7.1974375,14.026068 6.53125,14.686409 6.53125,15.4974162 L6.53125,29.0338195 C6.53125,29.8448266 7.1974375,30.5051677 8.015625,30.5051677 L29.984375,30.5051677 C30.8025625,30.5051677 31.46875,29.8448266 31.46875,29.0338195 L31.46875,15.4974162 C31.46875,14.686409 30.8025625,14.026068 29.984375,14.026068 L8.015625,14.026068 Z" id="Shape" fill="#2B2B2B"></path>
                    <path d="M23.75,13.1432591 L21.96875,13.1432591 L21.96875,10.789102 C21.96875,10.6266651 21.83575,10.4948323 21.671875,10.4948323 L16.328125,10.4948323 C16.16425,10.4948323 16.03125,10.6266651 16.03125,10.789102 L16.03125,13.1432591 L14.25,13.1432591 L14.25,10.789102 C14.25,9.65322118 15.1821875,8.72921452 16.328125,8.72921452 L21.671875,8.72921452 C22.8178125,8.72921452 23.75,9.65322118 23.75,10.789102 L23.75,13.1432591 Z" id="Path" fill="#2B2B2B"></path>
                    <polygon id="Path" fill="#2B2B2B" points="11.578125 13.1432591 13.359375 13.1432591 13.359375 20.2057304 11.578125 20.2057304"></polygon>
                    <polygon id="Path" fill="#2B2B2B" points="11.578125 25.5025838 13.359375 25.5025838 13.359375 31.3879766 11.578125 31.3879766"></polygon>
                    <path d="M13.359375,26.3853927 L11.578125,26.3853927 C10.4321875,26.3853927 9.5,25.4613861 9.5,24.3255053 L9.5,21.3828089 C9.5,20.2469281 10.4321875,19.3229215 11.578125,19.3229215 L13.359375,19.3229215 C14.5053125,19.3229215 15.4375,20.2469281 15.4375,21.3828089 L15.4375,24.3255053 C15.4375,25.4613861 14.5053125,26.3853927 13.359375,26.3853927 Z M11.578125,21.0885393 C11.41425,21.0885393 11.28125,21.2203721 11.28125,21.3828089 L11.28125,24.3255053 C11.28125,24.4879421 11.41425,24.6197749 11.578125,24.6197749 L13.359375,24.6197749 C13.52325,24.6197749 13.65625,24.4879421 13.65625,24.3255053 L13.65625,21.3828089 C13.65625,21.2203721 13.52325,21.0885393 13.359375,21.0885393 L11.578125,21.0885393 Z" id="Shape" fill="#2B2B2B"></path>
                    <polygon id="Path" fill="#2B2B2B" points="24.640625 13.1432591 26.421875 13.1432591 26.421875 20.2057304 24.640625 20.2057304"></polygon>
                    <polygon id="Path" fill="#2B2B2B" points="24.640625 25.5025838 26.421875 25.5025838 26.421875 31.3879766 24.640625 31.3879766"></polygon>
                    <path d="M26.421875,26.3853927 L24.640625,26.3853927 C23.4946875,26.3853927 22.5625,25.4613861 22.5625,24.3255053 L22.5625,21.3828089 C22.5625,20.2469281 23.4946875,19.3229215 24.640625,19.3229215 L26.421875,19.3229215 C27.5678125,19.3229215 28.5,20.2469281 28.5,21.3828089 L28.5,24.3255053 C28.5,25.4613861 27.5678125,26.3853927 26.421875,26.3853927 Z M24.640625,21.0885393 C24.47675,21.0885393 24.34375,21.2203721 24.34375,21.3828089 L24.34375,24.3255053 C24.34375,24.4879421 24.47675,24.6197749 24.640625,24.6197749 L26.421875,24.6197749 C26.58575,24.6197749 26.71875,24.4879421 26.71875,24.3255053 L26.71875,21.3828089 C26.71875,21.2203721 26.58575,21.0885393 26.421875,21.0885393 L24.640625,21.0885393 Z" id="Shape" fill="#2B2B2B"></path>
                    <polygon id="Path" fill="#2B2B2B" points="0 30.5051677 38 30.5051677 38 32.2707855 0 32.2707855"></polygon>
                </g>
            </g>
        </g>
    </g>
</svg>