<?xml version="1.0" encoding="UTF-8"?>
<svg width="38px" height="41px" viewBox="0 0 38 41" version="1.1" xmlns="http://www.w3.org/2000/svg" xmlns:xlink="http://www.w3.org/1999/xlink">
    <title>AD7E018B-FC97-456A-AA4A-BC25D5A4EB68@1.5x</title>
    <g id="Design" stroke="none" stroke-width="1" fill="none" fill-rule="evenodd">
        <g id="08_VirtualLearn_Home_categories" transform="translate(-55.000000, -423.000000)" fill-rule="nonzero">
            <g id="It" transform="translate(24.000000, 411.000000)">
                <g id="icn_categories_IT" transform="translate(31.000000, 12.000000)">
                    <path d="M30.4273125,36.7826486 C22.213375,36.7826486 16.57275,41 12.6148125,41 C8.656875,41 0.344375,38.7447822 0.344375,20.697155 C0.344375,2.64952775 11.5270625,0 15.8804375,0 C36.26625,0 44.9741875,36.7826486 30.4273125,36.7826486 Z" id="Path" fill="#EFEFEF"></path>
                    <path d="M35.03125,7.5530962 C34.0491875,7.5530962 33.25,6.76094508 33.25,5.78752907 C33.25,4.81411305 34.0491875,4.02196193 35.03125,4.02196193 C36.0133125,4.02196193 36.8125,4.81411305 36.8125,5.78752907 C36.8125,6.76094508 36.0133125,7.5530962 35.03125,7.5530962 Z M35.03125,5.19900669 C34.7046875,5.19900669 34.4375,5.46384176 34.4375,5.78752907 C34.4375,6.11121638 34.7046875,6.37605145 35.03125,6.37605145 C35.3578125,6.37605145 35.625,6.11121638 35.625,5.78752907 C35.625,5.46384176 35.3578125,5.19900669 35.03125,5.19900669 Z" id="Shape" fill="#A4AFC1"></path>
                    <path d="M31.171875,11.967014 C31.827375,11.967014 32.359375,12.4943301 32.359375,13.1440588 L32.359375,26.0915511 L5.640625,26.0915511 L5.640625,13.1440588 C5.640625,12.4943301 6.172625,11.967014 6.828125,11.967014 L31.171875,11.967014 Z" id="Path" fill="#F3F3F1"></path>
                    <path d="M5.640625,26.0915511 L32.359375,26.0915511 L32.359375,29.034163 C32.359375,29.6838917 31.827375,30.2112078 31.171875,30.2112078 L6.828125,30.2112078 C6.172625,30.2112078 5.640625,29.6838917 5.640625,29.034163 L5.640625,26.0915511 Z" id="Path" fill="#FCBE4B"></path>
                    <path d="M21.078125,30.2112078 C21.078125,30.2112078 21.3690625,32.2886918 22.835625,33.742342 L22.859375,33.742342 L15.140625,33.742342 C16.625,32.2710361 16.898125,30.2112078 16.898125,30.2112078 L21.078125,30.2112078 Z" id="Path" fill="#FCBE4B"></path>
                    <path d="M10.390625,10.7899693 C9.735125,10.7899693 9.203125,11.3172853 9.203125,11.967014 L9.203125,14.9096259 C9.203125,15.5593546 9.735125,16.0866707 10.390625,16.0866707 L27.609375,16.0866707 C28.264875,16.0866707 28.796875,15.5593546 28.796875,14.9096259 L28.796875,11.967014 C28.796875,11.3172853 28.264875,10.7899693 27.609375,10.7899693 L10.390625,10.7899693 Z" id="Path" fill="#FCBE4B"></path>
                    <path d="M8.3125,29.034163 L8.3125,26.0915511 L5.640625,26.0915511 L5.640625,29.034163 C5.640625,29.6838917 6.172625,30.2112078 6.828125,30.2112078 L9.5,30.2112078 C8.8445,30.2112078 8.3125,29.6838917 8.3125,29.034163 Z" id="Path" fill="#E1960A"></path>
                    <path d="M16.898125,30.2112078 C16.898125,30.2112078 16.625,32.2710361 15.140625,33.742342 L17.8125,33.742342 C19.296875,32.2710361 19.57,30.2112078 19.57,30.2112078 L16.898125,30.2112078 Z" id="Path" fill="#E1960A"></path>
                    <path d="M11.875,14.9096259 L11.875,11.967014 C11.875,11.3172853 12.407,10.7899693 13.0625,10.7899693 L10.390625,10.7899693 C9.735125,10.7899693 9.203125,11.3172853 9.203125,11.967014 L9.203125,14.9096259 C9.203125,15.5593546 9.735125,16.0866707 10.390625,16.0866707 L13.0625,16.0866707 C12.407,16.0866707 11.875,15.5593546 11.875,14.9096259 Z" id="Path" fill="#E1960A"></path>
                    <path d="M9.5,11.967014 L6.828125,11.967014 C6.172625,11.967014 5.640625,12.4943301 5.640625,13.1440588 L5.640625,26.0915511 L8.3125,26.0915511 L8.3125,13.1440588 C8.3125,12.4943301 8.8445,11.967014 9.5,11.967014 Z" id="Path" fill="#D5DBE1"></path>
                    <path d="M27.609375,16.9694543 L18.40625,16.9694543 L18.40625,15.2038871 L27.609375,15.2038871 C27.77325,15.2038871 27.90625,15.0720581 27.90625,14.9096259 L27.90625,11.967014 C27.90625,11.8045819 27.77325,11.6727528 27.609375,11.6727528 L18.40625,11.6727528 L18.40625,9.90718571 L27.609375,9.90718571 C28.7553125,9.90718571 29.6875,10.8311658 29.6875,11.967014 L29.6875,14.9096259 C29.6875,16.0454741 28.7553125,16.9694543 27.609375,16.9694543 Z" id="Path" fill="#2B2B2B"></path>
                    <path d="M13.0625,16.9694543 L10.390625,16.9694543 C9.2446875,16.9694543 8.3125,16.0454741 8.3125,14.9096259 L8.3125,11.967014 C8.3125,10.8311658 9.2446875,9.90718571 10.390625,9.90718571 L13.0625,9.90718571 L13.0625,11.6727528 L10.390625,11.6727528 C10.22675,11.6727528 10.09375,11.8045819 10.09375,11.967014 L10.09375,14.9096259 C10.09375,15.0720581 10.22675,15.2038871 10.390625,15.2038871 L13.0625,15.2038871 L13.0625,16.9694543 Z" id="Path" fill="#2B2B2B"></path>
                    <path d="M16.625,11.3784917 L14.84375,11.3784917 L14.84375,8.43587977 C14.84375,8.27344759 14.71075,8.14161858 14.546875,8.14161858 L11.875,8.14161858 L11.875,6.37605145 L14.546875,6.37605145 C15.6928125,6.37605145 16.625,7.30003158 16.625,8.43587977 L16.625,11.3784917 Z" id="Path" fill="#2B2B2B"></path>
                    <path d="M14.546875,20.5005885 L11.875,20.5005885 L11.875,18.7350214 L14.546875,18.7350214 C14.71075,18.7350214 14.84375,18.6031924 14.84375,18.4407602 L14.84375,15.4981483 L16.625,15.4981483 L16.625,18.4407602 C16.625,19.5766084 15.6928125,20.5005885 14.546875,20.5005885 Z" id="Path" fill="#2B2B2B"></path>
                    <path d="M19.59375,20.5005885 L16.921875,20.5005885 C15.7759375,20.5005885 14.84375,19.5766084 14.84375,18.4407602 L14.84375,8.43587977 C14.84375,7.30003158 15.7759375,6.37605145 16.921875,6.37605145 L19.59375,6.37605145 L19.59375,8.14161858 L16.921875,8.14161858 C16.758,8.14161858 16.625,8.27344759 16.625,8.43587977 L16.625,18.4407602 C16.625,18.6031924 16.758,18.7350214 16.921875,18.7350214 L19.59375,18.7350214 L19.59375,20.5005885 Z" id="Path" fill="#2B2B2B"></path>
                    <path d="M31.171875,31.0939913 L6.828125,31.0939913 C5.6821875,31.0939913 4.75,30.1700112 4.75,29.034163 L4.75,11.6727528 L6.53125,11.6727528 L6.53125,29.034163 C6.53125,29.1965952 6.66425,29.3284242 6.828125,29.3284242 L31.171875,29.3284242 C31.33575,29.3284242 31.46875,29.1965952 31.46875,29.034163 L31.46875,11.6727528 L33.25,11.6727528 L33.25,29.034163 C33.25,30.1700112 32.3178125,31.0939913 31.171875,31.0939913 Z" id="Path" fill="#2B2B2B"></path>
                    <polygon id="Path" fill="#2B2B2B" points="5.640625 25.2087675 32.359375 25.2087675 32.359375 26.9743347 5.640625 26.9743347"></polygon>
                    <path d="M22.859375,34.6251256 L15.140625,34.6251256 C14.779625,34.6251256 14.4554375,34.4097264 14.3176875,34.0801539 C14.181125,33.7505813 14.2559375,33.3703959 14.51125,33.1185083 C15.753375,31.8873195 16.014625,30.111159 16.017,30.0935033 L17.781625,30.3265581 C17.7733125,30.3960038 17.6070625,31.5812879 16.8993125,32.8595585 L21.0816875,32.8595585 C20.379875,31.5883501 20.2065,30.401889 20.1958125,30.3336204 L21.95925,30.0876181 C21.9628125,30.1052737 22.2240625,31.8049264 23.367625,33.0172825 C23.5991875,33.1773605 23.75,33.4421956 23.75,33.742342 C23.75,34.2296386 23.351,34.6251256 22.859375,34.6251256 Z" id="Path" fill="#2B2B2B"></path>
                    <polygon id="Path" fill="#2B2B2B" points="0 32.8595585 38 32.8595585 38 34.6251256 0 34.6251256"></polygon>
                </g>
            </g>
        </g>
    </g>
</svg>