<?xml version="1.0" encoding="UTF-8"?>
<svg width="182px" height="37px" viewBox="0 0 182 37" version="1.1" xmlns="http://www.w3.org/2000/svg" xmlns:xlink="http://www.w3.org/1999/xlink">
    <title>07F3769D-F697-49E7-8BB0-9336DB311711@1.5x</title>
    <g id="Design" stroke="none" stroke-width="1" fill="none" fill-rule="evenodd">
        <g id="02_VirtualLearn_Onboarding-1" transform="translate(-30.000000, -50.000000)">
            <g id="img_virtuallearn_lockup" transform="translate(30.000000, 50.000000)">
                <g id="Logo" transform="translate(0.000000, -0.000000)" fill="#253157">
                    <g id="Group" transform="translate(0.000000, -0.000000)">
                        <path d="M14.9857719,-1.16376075e-14 C13.7667313,-1.16376075e-14 12.778391,0.986741448 12.778391,2.20343591 L12.778391,3.64709211 L8.29471873,1.16995604 C7.4269716,0.689111212 6.33264398,1.00132383 5.85101999,1.86766712 C5.36864696,2.73401041 5.68211453,3.82656763 6.54986165,4.30778637 L9.96429865,6.19414886 L12.8611584,4.61139912 L13.6970719,4.15448436 L17.1931528,2.2438179 L17.1931528,2.20343591 C17.1931528,0.986741448 16.2048124,-1.16376075e-14 14.9857719,-1.16376075e-14" id="Fill-1"></path>
                        <path d="M27.117753,11.794159 L27.0597035,11.7608812 L20.0697888,7.75857713 L16.5373801,9.82553686 L16.4362616,9.88498813 L24.9849002,14.8945986 C25.2021179,15.0538831 25.4212081,15.6255874 25.4212081,15.8936789 L25.4212081,26.8536506 C25.4212081,27.1213683 25.205114,27.6930726 24.9890199,27.852731 L15.5838695,33.3237431 C15.5284415,33.3476732 15.3497987,33.4101157 15.0397018,33.4101157 C14.7288558,33.4101157 14.536356,33.3476732 14.4816771,33.3237431 L4.90425058,27.848992 C4.675423,27.6930726 4.23686802,27.1180031 4.23686802,26.8420595 L4.23686802,15.905644 C4.23686802,15.6304482 4.68628388,15.0538831 4.91548597,14.8987115 L13.118449,10.1904704 L14.1562251,9.6284877 L14.6135057,9.38058714 L15.1782717,9.07510485 L18.8739681,7.0735789 L18.9275235,7.04441413 L20.6233193,6.12609772 L23.235549,4.71198019 C24.1104119,4.24496994 24.4414816,3.15802132 23.9737146,2.28382598 C23.5063221,1.40925673 22.4176121,1.07909656 21.5416257,1.54648072 L19.32638,2.74597544 L18.589338,3.15016927 L17.1931528,3.91593148 L15.2220897,4.99727149 L13.7176701,5.82248497 L13.3645041,6.01579506 L11.4964322,7.04067505 L10.9848472,7.32110555 L7.77227279,9.08333081 L4.13949459,11.0463443 L2.78862541,11.794159 C1.48794101,12.5457127 2.97773502e-13,14.3868324 2.97773502e-13,15.8869486 L2.97773502e-13,26.8596332 C2.97773502e-13,28.3597494 1.48307234,30.2016169 2.78375674,30.9524228 L12.5139846,36.4361477 C13.1641396,36.8111768 14.1157777,37 14.9719149,37 C15.8261795,37 16.7298799,36.8111768 17.3804094,36.4361477 L27.0990273,30.9524228 C28.4004608,30.2016169 29.6580762,28.3597494 29.6580762,26.8596332 L29.6580762,15.8869486 C29.6580762,14.3868324 28.42031,12.5457127 27.117753,11.794159" id="Fill-3"></path>
                        <path d="M19.674688,22.0818362 C19.5992699,22.2322698 19.4766585,22.3542307 19.3253207,22.4292208 L19.3253207,22.4330746 L13.09977,25.5282071 C12.7152926,25.7192187 12.2479192,25.5642059 12.0557717,25.1819106 C12.001146,25.0732339 11.9730124,24.9532679 11.9736842,24.8318057 L11.9736842,18.6415861 C11.973514,18.2142242 12.3217414,17.8676557 12.7515426,17.8674289 C12.8724213,17.8674289 12.9916585,17.8953122 13.09977,17.9490385 L19.3253207,21.0441709 C19.7099804,21.2347746 19.8664251,21.6993595 19.674688,22.0818362 Z" id="Path" fill-rule="nonzero"></path>
                    </g>
                </g>
                <text id="Virtua" font-family="Biko-Black, Biko" font-size="24" font-weight="700" fill="#253157">
                    <tspan x="35.9210526" y="30.6357592">Virtua</tspan>
                </text>
                <text id="Learn" font-family="Biko-Black, Biko" font-size="24" font-weight="700" fill="#EE5C4D">
                    <tspan x="119.138158" y="30.6357592">Learn</tspan>
                </text>
                <text id="L" transform="translate(115.246711, 22.135759) scale(-1, 1) translate(-115.246711, -22.135759) " font-family="Biko-Black, Biko" font-size="24" font-weight="700" fill="#253157">
                    <tspan x="107.763158" y="30.6357592">L</tspan>
                </text>
            </g>
        </g>
    </g>
</svg>