<?xml version="1.0" encoding="UTF-8"?>
<svg width="38px" height="36px" viewBox="0 0 38 36" version="1.1" xmlns="http://www.w3.org/2000/svg" xmlns:xlink="http://www.w3.org/1999/xlink">
    <title>2AAD96C9-4CEF-4BD5-BE50-42F88220EC59@1.5x</title>
    <g id="Design" stroke="none" stroke-width="1" fill="none" fill-rule="evenodd">
        <g id="08_VirtualLearn_Home_categories" transform="translate(-55.000000, -328.000000)" fill-rule="nonzero">
            <g id="marketing" transform="translate(24.000000, 317.000000)">
                <g id="icn_categories_marketing" transform="translate(31.000000, 12.000000)">
                    <path d="M3.90887689,6.72962426 C3.90887689,14.2152189 0,19.3556808 0,22.9626617 C0,26.5696426 2.09026183,34.14506 18.8178112,34.14506 C35.5453606,34.14506 38,23.9539591 38,19.9866048 C38.001091,1.4084346 3.90887689,-6.52735629 3.90887689,6.72962426 Z" id="Path" fill="#EFEFEF"></path>
                    <path d="M24.727492,7.13328579 L24.727492,27.1540319 C24.727492,28.3444547 23.7456362,29.3184369 22.5455903,29.3184369 L11.0906063,29.3184369 C9.8905604,29.3184369 8.90870464,28.3444547 8.90870464,27.1540319 L8.90870464,7.13328579 C8.90870464,5.94286305 9.8905604,4.9688808 11.0906063,4.9688808 L11.6360818,4.9688808 C12.541571,4.9688808 13.272508,5.69395647 13.272508,6.59218454 C13.272508,7.18739592 13.7634359,7.67438704 14.3634589,7.67438704 L19.2727377,7.67438704 C19.8727607,7.67438704 20.3636886,7.18739592 20.3636886,6.59218454 C20.3636886,5.69395647 21.0946256,4.9688808 22.0001148,4.9688808 L22.5455903,4.9688808 C23.7456362,4.9688808 24.727492,5.94286305 24.727492,7.13328579 Z" id="Path" fill="#F3F3F1"></path>
                    <path d="M22.0001148,4.9688808 C21.0946256,4.9688808 20.3636886,5.69395647 20.3636886,6.59218454 C20.3636886,7.18739592 19.8727607,7.67438704 19.2727377,7.67438704 L14.3634589,7.67438704 C13.7634359,7.67438704 13.272508,7.18739592 13.272508,6.59218454 C13.272508,5.69395647 12.541571,4.9688808 11.6360818,4.9688808 L22.0001148,4.9688808 Z" id="Path" fill="#FCBE4B"></path>
                    <polygon id="Path" fill="#FCBE4B" points="29.0912954 19.0905411 17.6363114 15.7638507 17.6363114 14.1405469 29.0912954 10.8939395"></polygon>
                    <path d="M22.818328,6.59218454 C22.818328,6.02078163 23.1150666,5.52080408 23.5645384,5.23185601 C23.2590721,5.06952564 22.9154226,4.9688808 22.5466812,4.9688808 L22.0012058,4.9688808 C21.0957166,4.9688808 20.3647795,5.69395647 20.3647795,6.59218454 C20.3647795,7.18739592 19.8738516,7.67438704 19.2738287,7.67438704 L21.7284681,7.67438704 C22.3274001,7.67438704 22.818328,7.18739592 22.818328,6.59218454 Z" id="Path" fill="#D5DBE1"></path>
                    <path d="M11.3633441,27.1540319 L11.3633441,7.13328579 C11.3633441,6.30972969 11.8389986,5.59764045 12.5273886,5.23185601 C12.2710152,5.06736123 11.9655489,4.9688808 11.6360818,4.9688808 L11.0906063,4.9688808 C9.8905604,4.9688808 8.90870464,5.94286305 8.90870464,7.13328579 L8.90870464,27.1540319 C8.90870464,28.3444547 9.8905604,29.3184369 11.0906063,29.3184369 L13.5452458,29.3184369 C12.3451998,29.3184369 11.3633441,28.3444547 11.3633441,27.1540319 Z" id="Path" fill="#D5DBE1"></path>
                    <path d="M15.7271475,6.59218454 C15.7271475,5.69395647 14.9962104,4.9688808 14.0907212,4.9688808 L11.6360818,4.9688808 C12.541571,4.9688808 13.272508,5.69395647 13.272508,6.59218454 C13.272508,7.18739592 13.7634359,7.67438704 14.3634589,7.67438704 L16.8180983,7.67438704 C16.2180753,7.67438704 15.7271475,7.18739592 15.7271475,6.59218454 Z" id="Path" fill="#E1960A"></path>
                    <polygon id="Path" fill="#E1960A" points="20.0909508 15.7638507 20.0909508 14.1405469 29.0912954 11.5897957 29.0912954 10.8939395 17.6363114 14.1405469 17.6363114 15.7638507 29.0912954 19.0905411 29.0912954 18.3773697"></polygon>
                    <path d="M19.2727377,8.48603891 L14.3634589,8.48603891 C13.3106913,8.48603891 12.4542949,7.63650995 12.4542949,6.59218454 C12.4542949,6.14523491 12.0877354,5.78053267 11.6360818,5.78053267 L11.0906063,5.78053267 L11.0906063,4.15722893 L11.6360818,4.15722893 C12.9899518,4.15722893 14.0907212,5.25025345 14.0907212,6.59218454 C14.0907212,6.74152849 14.2129077,6.86273517 14.3634589,6.86273517 L19.2727377,6.86273517 C19.4232889,6.86273517 19.5454754,6.74152849 19.5454754,6.59218454 C19.5454754,5.25025345 20.6462448,4.15722893 22.0001148,4.15722893 L22.5455903,4.15722893 L22.5455903,5.78053267 L22.0001148,5.78053267 C21.5484612,5.78053267 21.1819017,6.14523491 21.1819017,6.59218454 C21.1819017,7.63650995 20.3255053,8.48603891 19.2727377,8.48603891 Z" id="Path" fill="#2B2B2B"></path>
                    <path d="M22.5455903,30.1300888 L11.0906063,30.1300888 C9.4356339,30.1300888 8.0904915,28.7957331 8.0904915,27.1540319 L8.0904915,7.13328579 C8.0904915,5.49158461 9.4356339,4.15722893 11.0906063,4.15722893 L22.5455903,4.15722893 C24.2005627,4.15722893 25.5457051,5.49158461 25.5457051,7.13328579 L25.5457051,9.55741938 L23.9092788,9.55741938 L23.9092788,7.13328579 C23.9092788,6.38764827 23.2972554,5.78053267 22.5455903,5.78053267 L11.0906063,5.78053267 C10.3389412,5.78053267 9.72691778,6.38764827 9.72691778,7.13328579 L9.72691778,27.1540319 C9.72691778,27.8996694 10.3389412,28.506785 11.0906063,28.506785 L22.5455903,28.506785 C23.2972554,28.506785 23.9092788,27.8996694 23.9092788,27.1540319 L23.9092788,20.7798592 L25.5457051,20.7798592 L25.5457051,27.1540319 C25.5457051,28.7957331 24.2005627,30.1300888 22.5455903,30.1300888 Z" id="Path" fill="#2B2B2B"></path>
                    <path d="M29.0912954,19.902193 C29.0138379,19.902193 28.9363803,19.891371 28.8611047,19.8697269 L17.4061208,16.5430365 C17.0581075,16.4413094 16.8180983,16.1242241 16.8180983,15.7638507 L16.8180983,14.1405469 C16.8180983,13.7780091 17.0602894,13.4598416 17.4115756,13.3602789 L28.8665595,10.1136715 C29.1142053,10.0433283 29.3793064,10.0909452 29.5844051,10.2457002 C29.7895039,10.3993729 29.9095085,10.6385397 29.9095085,10.8939395 L29.9095085,19.0905411 C29.9095085,19.3459409 29.788413,19.5872721 29.5822232,19.7409448 C29.4382177,19.8459185 29.2658475,19.902193 29.0912954,19.902193 Z M18.4545246,15.1556529 L28.2730822,18.0072564 L28.2730822,11.9696487 L18.4545246,14.7519913 L18.4545246,15.1556529 Z" id="Shape" fill="#2B2B2B"></path>
                    <polygon id="Path" fill="#2B2B2B" points="28.2730822 9.54118634 29.9095085 9.54118634 29.9095085 20.3632113 28.2730822 20.3632113"></polygon>
                    <polygon id="Path" fill="#2B2B2B" points="16.8180983 12.7877938 18.4545246 12.7877938 18.4545246 17.1166038 16.8180983 17.1166038"></polygon>
                    <path d="M21.4546394,20.4173214 C20.1007694,20.4173214 19,19.3242969 19,17.9823658 C19,17.128508 19.4527446,16.3363358 20.1814998,15.9164412 L21.0040767,17.3200579 C20.7738861,17.4531688 20.6364263,17.7009931 20.6364263,17.9823658 C20.6364263,18.4293154 21.0029858,18.7940177 21.4546394,18.7940177 C21.9062931,18.7940177 22.2728525,18.4293154 22.2728525,17.9823658 C22.2728525,17.8644057 22.2499426,17.7670075 22.2030317,17.6771847 L23.6518144,16.9228895 C23.8220028,17.2453859 23.9092788,17.6014305 23.9092788,17.9823658 C23.9092788,19.3253791 22.8085094,20.4173214 21.4546394,20.4173214 Z" id="Path" fill="#2B2B2B"></path>
                    <g id="Group" transform="translate(23.148632, 0.000000)" fill="#A4AFC1">
                        <path d="M2.39707321,35 C1.49485686,35 0.760646934,34.2716777 0.760646934,33.3766963 C0.760646934,32.4817148 1.49485686,31.7533925 2.39707321,31.7533925 C3.29928956,31.7533925 4.03349948,32.4817148 4.03349948,33.3766963 C4.03349948,34.2716777 3.29928956,35 2.39707321,35 Z M2.39707321,32.835595 C2.09597077,32.835595 1.85159778,33.0790906 1.85159778,33.3766963 C1.85159778,33.6743019 2.09597077,33.9177975 2.39707321,33.9177975 C2.69817564,33.9177975 2.94254863,33.6743019 2.94254863,33.3766963 C2.94254863,33.0790906 2.69817564,32.835595 2.39707321,32.835595 Z" id="Shape"></path>
                        <polygon id="Path" transform="translate(1.156953, 1.150406) rotate(-45.000000) translate(-1.156953, -1.150406) " points="0.609373566 0.0618067963 1.69578615 0.0661803139 1.70453319 2.23900549 0.618120601 2.23463197"></polygon>
                        <polygon id="Path" transform="translate(5.591251, 5.552489) rotate(-45.000000) translate(-5.591251, -5.552489) " points="5.04367094 4.46388945 6.13008352 4.46826297 6.13883056 6.64108814 5.05241797 6.63671463"></polygon>
                        <polygon id="Path" transform="translate(5.396959, 1.147676) rotate(-45.000000) translate(-5.396959, -1.147676) " points="4.3083596 0.600095934 6.48118477 0.608842969 6.48555829 1.69525556 4.31273312 1.68650852"></polygon>
                    </g>
                </g>
            </g>
        </g>
    </g>
</svg>