<?xml version="1.0" encoding="UTF-8"?>
<svg width="39px" height="40px" viewBox="0 0 39 40" version="1.1" xmlns="http://www.w3.org/2000/svg" xmlns:xlink="http://www.w3.org/1999/xlink">
    <title>09A29E14-AE37-4BDE-B211-616BB11C8AF4@1.5x</title>
    <g id="Design" stroke="none" stroke-width="1" fill="none" fill-rule="evenodd">
        <g id="08_VirtualLearn_Home_categories" transform="translate(-283.000000, -423.000000)">
            <g id="music" transform="translate(252.000000, 411.000000)">
                <g id="icn_categories_music" transform="translate(31.000000, 12.000000)">
                    <path d="M27.8740737,3.90066184 C22.1288552,-1.85785545 10.9744682,-0.435272859 4.53426994,3.00090207 C-4.67001881,7.91181938 1.84121666,29.9939038 9.02268774,36.2923005 C16.2041068,42.5906971 34.157882,39.8913656 37.7486111,35.3925668 C41.3393401,30.8937679 36.8509613,24.5953712 28.7717235,20.0964421 C20.6926156,15.5976432 35.0555318,11.0988443 27.8740737,3.90066184 Z" id="Path" fill="#EFEFEF" fill-rule="nonzero"></path>
                    <path d="M11.699998,21.1740377 C9.00760774,21.1740377 6.82499932,23.3616741 6.82499932,26.060354 C6.82499932,28.759034 9.00760774,30.9466704 11.699998,30.9466704 C14.3924273,30.9466704 16.5749967,28.759034 16.5749967,26.060354 C16.5749967,23.3616741 14.3924273,21.1740377 11.699998,21.1740377 Z" id="Path" fill="#FCBE4B" fill-rule="nonzero"></path>
                    <path d="M6.82499932,26.060354 C6.82499932,23.3616741 9.00760774,21.1740377 11.699998,21.1740377 C12.2697879,21.1740377 12.8166977,21.2720246 13.3249993,21.4521017 C11.4315481,22.1228952 10.0749985,23.9327868 10.0749985,26.060354 C10.0749985,28.1879213 11.4315481,29.9978129 13.3249993,30.6686064 C12.8166977,30.8486835 12.2697879,30.9466704 11.699998,30.9466704 C9.00760774,30.9466704 6.82499932,28.759034 6.82499932,26.060354 Z" id="Path" fill="#E1960A"></path>
                    <path d="M24.6999945,17.2649846 C22.0075653,17.2649846 19.8249959,19.452621 19.8249959,22.151301 C19.8249959,24.8499809 22.0075653,27.0376173 24.6999945,27.0376173 C27.3924238,27.0376173 29.5749932,24.8499809 29.5749932,22.151301 C29.5749932,19.452621 27.3924238,17.2649846 24.6999945,17.2649846 Z" id="Path" fill="#FCBE4B" fill-rule="nonzero"></path>
                    <g id="Group" transform="translate(4.057768, 6.673132)" fill-rule="nonzero">
                        <path d="M15.7672278,15.4781693 C15.7672278,12.7794893 17.9497972,10.5918529 20.6422265,10.5918529 C21.2120163,10.5918529 21.7589262,10.6898399 22.2672278,10.8699169 C20.3737766,11.5407104 19.0172269,13.350602 19.0172269,15.4781693 C19.0172269,17.6057366 20.3737766,19.4156281 22.2672278,20.0864217 C21.7589262,20.2664987 21.2120163,20.3644856 20.6422265,20.3644856 C17.9497972,20.3644856 15.7672278,18.1768492 15.7672278,15.4781693 Z" id="Path" fill="#E1960A"></path>
                        <path d="M25.4624952,6.03428796 C25.6404652,6.54363758 25.3725352,7.10119885 24.8643654,7.27945167 L11.8643688,11.8400136 C11.356069,12.0183967 10.7999291,11.7498448 10.6219592,11.2404952 C10.4441192,10.7310152 10.7119191,10.1735843 11.220219,9.99520114 L24.2202155,5.43463922 C24.7283854,5.2563864 25.2846552,5.52480804 25.4624952,6.03428796 L25.4624952,6.03428796 Z" id="Path" fill="#2EDF84"></path>
                        <path d="M25.1064253,0.347944814 C25.3640852,0.531201222 25.5172252,0.828276226 25.5172252,1.14498771 L25.5172252,15.4781693 C25.5172252,16.0178792 25.0806853,16.4554326 24.5422254,16.4554326 C24.0037656,16.4554326 23.5672292,16.0178792 23.5672292,15.4781693 L23.5672292,2.52239468 L12.5172287,6.39887231 L12.5172287,18.8980695 C12.5172287,19.4377795 12.0806888,19.8753328 11.5422289,19.8753328 C11.0037691,19.8753328 10.5672292,19.4377795 10.5672292,18.8980695 L10.5672292,5.7055366 C10.5672292,5.29026486 10.8290491,4.92033814 11.220089,4.78313037 L24.2200855,0.222581482 C24.5183055,0.117962192 24.8486354,0.164688406 25.1064253,0.347944814 Z" id="Path" fill="#2EDF84"></path>
                        <path d="M7.64222996,16.4554326 C6.02685039,16.4554326 4.71723074,17.7680926 4.71723074,19.3872224 C4.71723074,21.0063521 6.02685039,22.3190122 7.64222996,22.3190122 C9.25760953,22.3190122 10.5672292,21.0063521 10.5672292,19.3872224 C10.5672292,17.7680926 9.25760953,16.4554326 7.64222996,16.4554326 Z M2.76723126,19.3872224 C2.76723126,16.6885424 4.94983968,14.500906 7.64222996,14.500906 C10.3346592,14.500906 12.5172287,16.6885424 12.5172287,19.3872224 C12.5172287,22.0859023 10.3346592,24.2735387 7.64222996,24.2735387 C4.94983968,24.2735387 2.76723126,22.0859023 2.76723126,19.3872224 Z" id="Shape" fill="#2B2B2B"></path>
                        <path d="M20.6422265,12.5463795 C19.0268469,12.5463795 17.7172273,13.8590395 17.7172273,15.4781693 C17.7172273,17.0972991 19.0268469,18.4099591 20.6422265,18.4099591 C22.2576061,18.4099591 23.5672257,17.0972991 23.5672257,15.4781693 C23.5672257,13.8590395 22.2576061,12.5463795 20.6422265,12.5463795 Z M15.7672278,15.4781693 C15.7672278,12.7794893 17.9497972,10.5918529 20.6422265,10.5918529 C23.3346558,10.5918529 25.5172252,12.7794893 25.5172252,15.4781693 C25.5172252,18.1768492 23.3346558,20.3644856 20.6422265,20.3644856 C17.9497972,20.3644856 15.7672278,18.1768492 15.7672278,15.4781693 Z" id="Shape" fill="#2B2B2B"></path>
                        <path d="M25.1064253,0.347944814 C25.3640852,0.531201222 25.5172252,0.828276226 25.5172252,1.14498771 L25.5172252,15.4781693 L23.5672292,15.4781693 L23.5672292,2.52239468 L12.5172287,6.39887231 L12.5172287,18.8980695 L10.5672292,18.8980695 L10.5672292,5.7055366 C10.5672292,5.29026486 10.8290491,4.92033814 11.220089,4.78313037 L24.2200855,0.222581482 C24.5183055,0.117962192 24.8486354,0.164688406 25.1064253,0.347944814 Z" id="Path" fill="#2B2B2B"></path>
                        <polygon id="Path" fill="#2B2B2B" points="24.8643654 7.27945167 11.8643688 11.8400136 11.220219 9.99520114 24.2202155 5.43463922"></polygon>
                        <polygon id="Path" fill="#90A4AD" points="4.59617477 1.84279277 6.43466028 3.90905308e-05 7.35389004 0.921415931 5.51543053 2.76410446"></polygon>
                        <polygon id="Path" fill="#90A4AD" points="1.15463164e-15 6.44969 1.83847251 4.60683208 2.75771526 5.52832619 0.919229754 7.37105381"></polygon>
                        <polygon id="Path" fill="#90A4AD" points="5.51543053 4.60696238 7.35389004 6.44969 6.43466028 7.37105381 4.59618777 5.52832619"></polygon>
                        <polygon id="Path" fill="#90A4AD" points="0.919255754 0 2.75772826 1.84275368 1.83848551 2.76410446 1.29999965e-05 0.92137684"></polygon>
                    </g>
                </g>
            </g>
        </g>
    </g>
</svg>