<?xml version="1.0" encoding="UTF-8"?>
<svg width="38px" height="38px" viewBox="0 0 38 38" version="1.1" xmlns="http://www.w3.org/2000/svg" xmlns:xlink="http://www.w3.org/1999/xlink">
    <title>AFC58407-85E0-4B7B-9932-B82A9713E66D@1.5x</title>
    <g id="Design" stroke="none" stroke-width="1" fill="none" fill-rule="evenodd">
        <g id="08_VirtualLearn_Home_categories" transform="translate(-55.000000, -517.000000)" fill-rule="nonzero">
            <g id="teaching" transform="translate(24.000000, 505.000000)">
                <g id="icn_categories_teaching" transform="translate(31.000000, 12.000000)">
                    <path d="M3.90887689,7.36170447 C3.90887689,15.7272786 0,21.4720346 0,25.5030392 C0,29.5340438 2.09026183,38 18.8178112,38 C35.5453606,38 38,26.6108701 38,22.1771278 C38.001091,1.41497495 3.90887689,-7.45371889 3.90887689,7.36170447 Z" id="Path" fill="#EFEFEF"></path>
                    <polygon id="Path" fill="#A4AFC1" transform="translate(28.230358, 5.058301) rotate(-45.000000) translate(-28.230358, -5.058301) " points="27.6827567 3.96972379 28.7691253 3.9741412 28.7779602 6.1468786 27.6915915 6.14246119"></polygon>
                    <polygon id="Path" fill="#A4AFC1" transform="translate(32.665427, 9.458180) rotate(-45.000000) translate(-32.665427, -9.458180) " points="32.1178253 8.36960218 33.204194 8.37401958 33.2130288 10.546757 32.1266601 10.5423396"></polygon>
                    <polygon id="Path" fill="#A4AFC1" transform="translate(32.475819, 5.064228) rotate(-45.000000) translate(-32.475819, -5.064228) " points="31.3872413 4.51662618 33.5599787 4.52546099 33.5643961 5.61182969 31.3916587 5.60299488"></polygon>
                    <path d="M22.6677768,23.9006235 L23.9092788,14.2946912 L14.0907212,14.2946912 L15.3322232,23.9006235 C15.4020441,24.4405987 15.8656982,24.8453096 16.4144465,24.8453096 L21.5855535,24.8453096 C22.1343018,24.8453096 22.5979559,24.4405987 22.6677768,23.9006235 Z" id="Path" fill="#FCBE4B"></path>
                    <g id="Group" transform="translate(7.817754, 4.826188)" fill="#F3F3F1">
                        <ellipse id="Oval" cx="11.1822462" cy="1.35264338" rx="1.36368856" ry="1.35264338"></ellipse>
                        <path d="M7.63665595,7.03374557 C7.63665595,6.1377546 8.36977492,5.41057352 9.27308222,5.41057352 L13.0914102,5.41057352 C13.9947175,5.41057352 14.7278365,6.1377546 14.7278365,7.03374557 L14.7278365,9.73903233 L7.63665595,9.73903233 L7.63665595,7.03374557 Z" id="Path"></path>
                        <path d="M13.6368856,24.3475808 C13.6368856,23.4515899 12.9037667,22.7244088 12.0004593,22.7244088 L10.3640331,22.7244088 C9.46072577,22.7244088 8.7276068,23.4515899 8.7276068,24.3475808 L8.7276068,25.1591669 L13.6368856,25.1591669 L13.6368856,24.3475808 Z" id="Path"></path>
                        <path d="M22.3644924,24.3475808 C22.3644924,23.4515899 21.6313734,22.7244088 20.7280661,22.7244088 L19.0916399,22.7244088 C18.1883326,22.7244088 17.4552136,23.4515899 17.4552136,24.3475808 L17.4552136,25.1591669 L22.3644924,25.1591669 L22.3644924,24.3475808 Z" id="Path"></path>
                        <path d="M4.90927882,24.3475808 C4.90927882,23.4515899 4.17615985,22.7244088 3.27285255,22.7244088 L1.63642627,22.7244088 C0.733118971,22.7244088 0,23.4515899 0,24.3475808 L0,25.1591669 L4.90927882,25.1591669 L4.90927882,24.3475808 Z" id="Path"></path>
                    </g>
                    <path d="M17.7868627,23.9006235 L16.5453606,14.2946912 L14.0907212,14.2946912 L15.3322232,23.9006235 C15.4020441,24.4405987 15.8656982,24.8453096 16.4144465,24.8453096 L18.8690859,24.8453096 C18.3203376,24.8453096 17.8566835,24.4405987 17.7868627,23.9006235 Z" id="Path" fill="#E1960A"></path>
                    <path d="M20.0909508,6.17883097 C20.0909508,5.97322918 20.1444074,5.7838591 20.2273197,5.60963864 C20.0091295,5.14973989 19.5454754,4.82618759 19,4.82618759 C18.2472439,4.82618759 17.6363114,5.43217182 17.6363114,6.17883097 C17.6363114,6.92549012 18.2472439,7.53147435 19,7.53147435 C19.5454754,7.53147435 20.0091295,7.20792205 20.2273197,6.7480233 C20.1444074,6.57380284 20.0909508,6.38443276 20.0909508,6.17883097 Z" id="Path" fill="#D5DBE1"></path>
                    <path d="M19.5454754,10.2367611 L17.090836,10.2367611 C16.1875287,10.2367611 15.4544097,10.9639422 15.4544097,11.8599332 L15.4544097,14.5652199 L17.9090492,14.5652199 L17.9090492,11.8599332 C17.9090492,10.9639422 18.6421681,10.2367611 19.5454754,10.2367611 Z" id="Path" fill="#D5DBE1"></path>
                    <path d="M20.2273197,27.6079484 C20.0953147,27.5744029 19.9600367,27.5505964 19.8182131,27.5505964 L18.1817869,27.5505964 C17.2784796,27.5505964 16.5453606,28.2777774 16.5453606,29.1737684 L16.5453606,29.9853544 L19,29.9853544 L19,29.1737684 C19,28.4184524 19.5225655,27.7886616 20.2273197,27.6079484 Z" id="Path" fill="#D5DBE1"></path>
                    <path d="M28.9549265,27.6079484 C28.8229215,27.5744029 28.6876435,27.5505964 28.5458199,27.5505964 L26.9093937,27.5505964 C26.0060864,27.5505964 25.2729674,28.2777774 25.2729674,29.1737684 L25.2729674,29.9853544 L27.7276068,29.9853544 L27.7276068,29.1737684 C27.7276068,28.4184524 28.2501723,27.7886616 28.9549265,27.6079484 Z" id="Path" fill="#D5DBE1"></path>
                    <path d="M11.4997129,27.6079484 C11.3677079,27.5744029 11.2324299,27.5505964 11.0906063,27.5505964 L9.45418006,27.5505964 C8.55087276,27.5505964 7.81775379,28.2777774 7.81775379,29.1737684 L7.81775379,29.9853544 L10.2723932,29.9853544 L10.2723932,29.1737684 C10.2723932,28.4184524 10.7949587,27.7886616 11.4997129,27.6079484 Z" id="Path" fill="#D5DBE1"></path>
                    <polygon id="Path" fill="#2B2B2B" points="11.3633441 13.7536339 26.6366559 13.7536339 26.6366559 15.376806 11.3633441 15.376806"></polygon>
                    <path d="M19,8.34306038 C17.7966812,8.34306038 16.8180983,7.37240349 16.8180983,6.17883097 C16.8180983,4.98525845 17.7966812,4.01460156 19,4.01460156 C20.2033188,4.01460156 21.1819017,4.98525845 21.1819017,6.17883097 C21.1819017,7.37240349 20.2033188,8.34306038 19,8.34306038 Z M19,5.63777362 C18.6999885,5.63777362 18.4545246,5.88016731 18.4545246,6.17883097 C18.4545246,6.47749463 18.6999885,6.71988832 19,6.71988832 C19.3000115,6.71988832 19.5454754,6.47749463 19.5454754,6.17883097 C19.5454754,5.88016731 19.3000115,5.63777362 19,5.63777362 Z" id="Shape" fill="#2B2B2B"></path>
                    <path d="M23.3638034,12.6715192 L21.7273771,12.6715192 L21.7273771,11.8599332 C21.7273771,11.4119377 21.3597267,11.0483471 20.909164,11.0483471 L17.090836,11.0483471 C16.6402733,11.0483471 16.2726229,11.4119377 16.2726229,11.8599332 L16.2726229,12.6715192 L14.6361966,12.6715192 L14.6361966,11.8599332 C14.6361966,10.5170288 15.738057,9.42517508 17.090836,9.42517508 L20.909164,9.42517508 C22.261943,9.42517508 23.3638034,10.5170288 23.3638034,11.8599332 L23.3638034,12.6715192 Z" id="Path" fill="#2B2B2B"></path>
                    <ellipse id="Oval" fill="#2B2B2B" cx="27.7276068" cy="24.0337236" rx="1.63642627" ry="1.62317206"></ellipse>
                    <path d="M31.0004593,29.9853544 L29.3640331,29.9853544 L29.3640331,29.1737684 C29.3640331,28.7257729 28.9963826,28.3621824 28.5458199,28.3621824 L26.9093937,28.3621824 C26.458831,28.3621824 26.0911805,28.7257729 26.0911805,29.1737684 L26.0911805,29.9853544 L24.4547542,29.9853544 L24.4547542,29.1737684 C24.4547542,27.8308641 25.5566146,26.7390103 26.9093937,26.7390103 L28.5458199,26.7390103 C29.898599,26.7390103 31.0004593,27.8308641 31.0004593,29.1737684 L31.0004593,29.9853544 Z" id="Path" fill="#2B2B2B"></path>
                    <ellipse id="Oval" fill="#2B2B2B" cx="19" cy="24.0337236" rx="1.63642627" ry="1.62317206"></ellipse>
                    <path d="M22.2728525,29.9853544 L20.6364263,29.9853544 L20.6364263,29.1737684 C20.6364263,28.7257729 20.2687758,28.3621824 19.8182131,28.3621824 L18.1817869,28.3621824 C17.7312242,28.3621824 17.3635737,28.7257729 17.3635737,29.1737684 L17.3635737,29.9853544 L15.7271475,29.9853544 L15.7271475,29.1737684 C15.7271475,27.8308641 16.8290078,26.7390103 18.1817869,26.7390103 L19.8182131,26.7390103 C21.1709922,26.7390103 22.2728525,27.8308641 22.2728525,29.1737684 L22.2728525,29.9853544 Z" id="Path" fill="#2B2B2B"></path>
                    <ellipse id="Oval" fill="#2B2B2B" cx="10.2723932" cy="24.0337236" rx="1.63642627" ry="1.62317206"></ellipse>
                    <path d="M13.5452458,29.9853544 L11.9088195,29.9853544 L11.9088195,29.1737684 C11.9088195,28.7257729 11.541169,28.3621824 11.0906063,28.3621824 L9.45418006,28.3621824 C9.00361736,28.3621824 8.63596693,28.7257729 8.63596693,29.1737684 L8.63596693,29.9853544 L6.99954065,29.9853544 L6.99954065,29.1737684 C6.99954065,27.8308641 8.10140101,26.7390103 9.45418006,26.7390103 L11.0906063,26.7390103 C12.4433854,26.7390103 13.5452458,27.8308641 13.5452458,29.1737684 L13.5452458,29.9853544 Z" id="Path" fill="#2B2B2B"></path>
                    <polygon id="Path" fill="#2B2B2B" transform="translate(23.512641, 17.684410) rotate(-81.837491) translate(-23.512641, -17.684410) " points="19.8298042 16.8619979 27.1936142 16.8704474 27.1954772 18.5068224 19.8316673 18.4983729"></polygon>
                    <polygon id="Path" fill="#2B2B2B" transform="translate(14.492523, 17.682663) rotate(-8.105794) translate(-14.492523, -17.682663) " points="13.6702541 14.0003617 15.3064013 14.0022119 15.3147925 21.3649634 13.6786453 21.3631132"></polygon>
                </g>
            </g>
        </g>
    </g>
</svg>