<?xml version="1.0" encoding="UTF-8"?>
<svg width="227px" height="278px" viewBox="0 0 227 278" version="1.1" xmlns="http://www.w3.org/2000/svg" xmlns:xlink="http://www.w3.org/1999/xlink">
    <title>BC480CDE-C920-4BA9-8E8C-1DA0131075C7@1.5x</title>
    <defs>
        <polygon id="path-1" points="0 0 30.7890858 0 30.7890858 54.8953711 0 54.8953711"></polygon>
    </defs>
    <g id="Design" stroke="none" stroke-width="1" fill="none" fill-rule="evenodd">
        <g id="05.8_VirtualLearn_Login_ForgotPassword_NewPassword_success" transform="translate(-74.000000, -203.000000)">
            <g id="img_PasswordChange_sucess_illustration" transform="translate(74.000000, 203.000000)">
                <g id="Group-116" transform="translate(25.059105, 0.000000)">
                    <path d="M121.839123,57.4305232 L122.158522,57.8092813 L122.582484,58.2950993 C122.886559,58.6174785 123.180718,58.9575511 123.513037,59.2724331 C124.148229,59.9366842 124.839909,60.5769443 125.540002,61.2360974 C126.942292,62.5247146 128.412487,63.7383599 129.943978,64.8713354 C131.50131,66.0241035 133.138266,67.0890045 134.785438,68.1362122 C135.679935,68.6319265 136.461755,69.1573296 137.329811,69.6326516 L139.33394,70.7380374 C139.623592,70.8669891 139.951104,70.8861819 140.254277,70.792617 C140.896981,70.6006889 144.607775,66.9360619 145.788017,65.5793701 C148.403301,62.5840924 152.374301,58.6498663 154.508834,55.2962228 L156.943836,58.5835912 C155.435181,62.6887531 153.431953,66.5956894 150.978322,70.2183321 C149.655656,72.1732997 148.074588,73.9411373 146.277782,75.4732633 C145.194591,76.3837222 143.972282,77.1148483 142.656828,77.6384521 C140.994032,78.303303 139.166278,78.4397519 137.422656,78.0295056 C136.970149,77.9209463 136.527859,77.7746011 136.09999,77.5916696 L135.271297,77.2294054 L133.777664,76.5510595 C132.76959,76.1042269 131.802981,75.5767246 130.824954,75.0855086 C128.869801,74.0454982 126.97324,72.8990278 125.143683,71.6514952 C123.299103,70.386869 121.52964,69.0169822 119.843708,67.5481325 C118.965136,66.786118 118.179409,66.0112084 117.37926,65.1709232 C116.978734,64.7597772 116.579711,64.3216414 116.190303,63.874209 L115.612802,63.1760706 C115.40668,62.9148684 115.251938,62.7214409 114.961084,62.326189 L121.839123,57.4305232 Z" id="Fill-1" fill="#FFB570"></path>
                    <path d="M154.175374,55.8033928 L158.457359,46.6721139 L162.541937,53.977077 C162.541937,53.977077 159.859649,58.5896489 156.943896,58.583657 L154.175374,55.8033928 Z" id="Fill-3" fill="#FFB570"></path>
                    <polygon id="Fill-5" fill="#FFB570" points="163.274241 42.8812942 167.592884 48.420219 162.542298 53.9678405 158.45742 46.6721739"></polygon>
                    <path d="M161.771594,56.491605 L168.564901,56.491605 C168.963324,56.491605 169.295642,56.1875189 169.330196,55.7916672 L170.755923,39.5275607 C170.795284,39.0792286 170.441331,38.693873 169.990628,38.693873 L163.19702,38.693873 C162.798898,38.693873 162.466579,38.9976592 162.431725,39.3938108 L161.005999,55.6579173 C160.966637,56.1062493 161.32059,56.491605 161.771594,56.491605" id="Fill-7" fill="#197A83"></path>
                    <polygon id="Fill-9" fill="#DBDCF1" points="161.839681 54.8609659 168.648011 54.8609659 169.922301 40.3245121 163.11397 40.3245121"></polygon>
                    <path d="M161.401296,52.8030469 L161.401296,52.8030469 L162.611285,52.1831791 C163.223341,51.8694967 163.789725,51.4730452 164.293913,51.0061201 L164.517161,50.2006219 C164.252748,49.7603869 163.727228,49.5489661 163.230853,49.6839155 L162.226084,49.9565134 L157.242202,50.3349716 L157.117808,52.4299867 L158.57328,54.6830425 L159.07867,54.7025352 C160.222556,54.7466187 161.219813,53.9315241 161.401296,52.8030469" id="Fill-11" fill="#FFB570"></path>
                    <path d="M113.15899,48.5068265 C116.614686,47.8812609 141.010077,68.9939508 141.010077,68.9939508 L133.777785,79.5784853 C133.777785,79.5784853 107.101231,61.0409305 107.921212,56.5618087 C108.770939,51.8997553 108.115315,49.4259821 113.15899,48.5068265" id="Fill-13" fill="#5CC2AD"></path>
                    <path d="M116.23321,55.2961628 L115.967896,66.3785107 C118.741827,68.5248066 128.736333,76.1746405 128.736333,76.1746405 L116.23321,55.2961628 Z" id="Fill-15" fill="#000000"></path>
                    <polygon id="Fill-17" fill="#FFB570" points="96.8946248 267.911225 105.078503 268.717623 107.671252 249.783017 99.4870727 248.976319"></polygon>
                    <polygon id="Fill-19" fill="#FFB570" points="16.352155 156.805192 14.2542794 164.758812 31.9576215 172.373859 35.6242466 164.304182"></polygon>
                    <path d="M112.419836,268.706347 C112.545733,268.700049 112.670728,268.727939 112.782202,268.787017 C112.860925,268.829901 112.910502,268.91207 112.911704,269.001136 C112.934239,269.235349 112.843197,269.465662 112.667423,269.621904 C112.156926,270.052243 110.797002,270.08703 108.978563,269.732862 C110.067463,269.193964 111.240194,268.844295 112.446578,268.699749 L112.419836,268.706347 Z M110.931011,270.357228 C111.63471,270.441497 112.346221,270.284656 112.948962,269.912195 C113.220286,269.680082 113.360304,269.329813 113.323347,268.975046 C113.31884,268.756128 113.200455,268.555204 113.010558,268.445745 C112.017808,267.857665 108.676892,269.437773 108.303409,269.616206 C108.230395,269.654892 108.186526,269.732562 108.191334,269.814732 C108.203653,269.895401 108.265249,269.959877 108.345174,269.975471 C109.193999,270.181494 110.05935,270.309246 110.931011,270.357228 L110.931011,270.357228 Z" id="Fill-21" fill="#007CFF"></path>
                    <path d="M110.421596,266.717822 L110.538178,266.688733 C110.893633,266.742713 110.909257,266.880961 110.911361,266.928043 C110.995792,267.495131 109.632564,268.849123 108.609767,269.397918 C108.707419,268.463468 109.100734,267.585097 109.73262,266.889058 C109.938141,266.744512 110.189934,266.681536 110.439624,266.713024 L110.421596,266.717822 Z M108.38772,269.993495 L108.459532,269.975501 C109.459794,269.565555 111.454308,267.845999 111.325107,266.91065 C111.271623,266.69623 111.153539,266.412236 110.612093,266.338164 C110.222986,266.26949 109.822761,266.369053 109.511475,266.611962 C108.452321,267.435153 108.198124,269.651623 108.1825,269.740989 C108.166575,269.807564 108.184303,269.877138 108.229073,269.928719 C108.269035,269.973702 108.327626,269.997993 108.38772,269.993495 L108.38772,269.993495 Z" id="Fill-23" fill="#007CFF"></path>
                    <path d="M104.673651,265.423087 L97.261077,265.729872 C96.9296595,265.733471 96.6544298,265.987476 96.6249838,266.317052 L94.8561219,276.590303 C94.8146571,277.326227 95.3786377,277.956591 96.11659,277.997976 C96.1673693,278.000675 96.218449,278.000675 96.2695288,277.997976 C99.486652,277.831538 101.036472,277.593127 105.113237,277.454579 C107.611338,277.370611 115.29794,278.274172 118.670406,277.498963 C122.042571,276.723753 121.446741,273.349117 119.97354,273.37041 C115.230635,273.461875 109.762697,270.37933 107.018512,266.772881 C106.610776,266.464897 105.183848,265.391899 104.673651,265.423087" id="Fill-25" fill="#311547"></path>
                    <path d="M18.0158828,165.806229 L21.7783575,159.42462 C21.9553339,159.144525 21.8910335,158.776563 21.6293248,158.572639 L13.941521,151.517183 C13.3444888,151.083245 12.5079827,151.214296 12.0732038,151.810173 C12.0431569,151.851558 12.0152133,151.894441 11.9899739,151.939125 C10.3851681,154.72658 9.74516879,156.154945 7.65029784,159.648636 C6.36609267,161.788934 1.43599477,167.744103 0.259357553,170.991886 C-0.917279659,174.23997 2.24636008,175.570871 3.02757988,174.323938 C5.52327669,170.297946 11.0840593,167.384838 15.607923,167.040267 C16.0883731,166.865732 17.7652915,166.250963 18.0158828,165.806229" id="Fill-27" fill="#4F216C"></path>
                    <polygon id="Fill-29" fill="#000000" points="107.671312 249.782957 106.334524 259.5431 98.150045 258.745699 99.4772173 248.985256"></polygon>
                    <polygon id="Fill-31" fill="#000000" points="41.0630989 166.268926 37.282596 174.786035 25.8900075 169.763817 28.7964456 161.647657"></polygon>
                    <path d="M118.380513,58.2625315 C123.058217,66.1921606 117.34089,72.8907509 112.568839,96.6028669 L81.7404028,96.6847363 C82.2400831,83.9062238 82.1878014,73.5753944 76.7222675,48.4379123 C76.215977,46.1494697 77.6639378,43.8847182 79.9571184,43.3788078 C80.2542824,43.3131324 80.5580567,43.2798448 80.8627324,43.2789452 C83.4125137,43.2822439 86.6131111,43.370111 89.8644879,43.7002873 C94.9998062,44.1165314 100.10027,44.886343 105.129222,46.0043241 C109.410607,47.0320391 110.450231,47.5997264 113.15896,48.5068865 C114.739127,49.0460845 116.650111,53.3515714 118.380513,58.2625315" id="Fill-33" fill="#5CC2AD"></path>
                    <path d="M113.709149,98.2035172 C113.709149,98.2035172 131.018576,148.159701 130.600624,172.180401 C130.363854,185.942245 129.325132,211.584438 125.164235,229.620881 C121.769234,244.337567 107.938339,253.737245 107.938339,253.737245 L96.8441159,253.081091 C96.8441159,253.081091 90.8578689,230.621906 91.8986941,221.684054 C93.9704289,203.894419 100.119831,190.524828 99.3797751,174.188749 C98.1956262,147.433973 90.2671466,97.7749778 90.2671466,97.7749778 L113.709149,98.2035172 Z" id="Fill-35" fill="#4F216C"></path>
                    <polygon id="Fill-37" fill="#1A2E35" points="94.6419775 255.964031 110.272383 256.887685 111.699912 252.198342 94.2315366 250.586146"></polygon>
                    <path d="M96.6208673,199.124796 C96.6397969,199.102005 96.6548204,199.032431 96.7065011,199.037829 C106.529439,199.997169 113.329056,185.84937 111.700212,166.528509 L106.48557,117.285458 L96.6208673,199.124796 Z" id="Fill-39" fill="#000000"></path>
                    <path d="M105.945387,97.7835546 C105.945387,97.7835546 119.701165,185.629043 91.0907926,195.517538 C75.9958232,201.225599 63.2928887,195.036518 48.2529051,188.392507 C39.5579287,184.551246 28.6932645,174.160739 28.6932645,174.160739 L32.8694853,162.810292 C32.8694853,162.810292 42.7432022,159.610491 55.8962395,161.647627 C70.5633409,163.918677 71.1787017,168.059225 76.392142,164.941593 C87.346346,137.907022 68.4949112,116.543626 81.3075169,97.739771 L105.945387,97.7835546 Z" id="Fill-41" fill="#4F216C"></path>
                    <polygon id="Fill-43" fill="#1A2E35" points="33.6851689 160.659528 28.1033534 175.374415 32.2176776 178.513039 38.8499333 161.0005"></polygon>
                    <path d="M31.3832447,81.2786083 C29.9875655,83.3352378 22.9262398,81.9446588 22.9262398,81.9446588 L21.4268988,73.2086318 L30.0987391,76.6780319 L31.3832447,81.2786083 Z" id="Fill-45" fill="#FFB570"></path>
                    <path d="M23.1617175,72.7531924 L24.5168334,81.8304915 L19.2997875,82.6098995 C18.7219853,82.6587812 18.1967652,82.2734256 18.0708686,81.7081374 L16.0784576,75.207173 C16.0087488,74.8937904 16.1992463,74.5816074 16.5102318,74.5000379 L23.1617175,72.7531924 Z" id="Fill-47" fill="#FFB570"></path>
                    <path d="M20.8386703,76.8740085 L23.8145168,77.3994117 L26.6205983,75.2867032 L25.5353037,74.513293 C24.7997552,73.9890894 24.2823473,73.2147795 24.0834367,72.3346092 C23.8692022,71.3872642 23.7267798,70.3658469 23.7033432,69.5270611 L23.6946296,69.2118792 C23.6207142,68.6423926 23.1763203,68.1910617 22.6069313,68.1067932 L21.8698804,68.6528886 C21.4029514,69.658112 21.7361717,70.8207764 21.6781811,71.6040829 L21.5606977,73.1269124 L20.3693375,73.6424193 L20.8386703,76.8740085 Z" id="Fill-49" fill="#FFB570"></path>
                    <path d="M78.2112424,46.7077705 L60.7626981,70.6681936 L28.6930242,76.9535387 L28.6930242,82.2033718 C28.6930242,82.2033718 58.8162589,84.4330365 65.5732092,80.4955117 C72.3307605,76.5582868 83.7002129,52.7289147 83.7002129,52.7289147 L78.2112424,46.7077705 Z" id="Fill-51" fill="#FFB570"></path>
                    <g id="Group-55" transform="translate(53.965441, 0.000000)">
                        <mask id="mask-2" fill="white">
                            <use xlink:href="#path-1"></use>
                        </mask>
                        <g id="Clip-54"></g>
                        <path d="M24.0404011,0.672677976 C16.7212729,-1.78040296 8.22460612,2.75809666 4.87227175,9.70019574 C1.52023785,16.6419949 2.69807694,25.1567048 6.46806344,31.8816853 C7.60503872,33.9098254 8.96436118,35.821909 9.88920524,37.9550098 C10.8137488,40.0881107 11.2767718,42.5393923 10.5255989,44.7390681 C9.77412555,46.9390439 8.99741279,48.3491156 6.26614816,47.9934489 C6.26614816,47.9934489 6.23249562,46.4844142 7.30757426,46.6673457 C7.30757426,46.6673457 5.0997269,47.8932864 4.23167151,47.090787 C5.23073145,48.6418059 7.91241867,48.0741186 8.77296233,46.4427298 C10.061975,43.9998451 7.69367712,40.6965827 4.92755808,40.7274711 C2.16143903,40.7580597 -0.0866711899,43.5455153 0.00256814931,46.3047815 C0.0918074885,49.0643476 2.12478179,51.518928 4.64902317,52.6477051 C3.15358818,52.9421948 1.51092331,52.0656232 0.925308926,50.6612493 C2.17856577,53.939921 6.27756599,55.3889781 9.73416316,54.7463188 C13.1904599,54.1039595 16.1188322,51.8865903 18.8269607,49.6488287 C22.4785624,46.6316591 26.2891122,42.8170882 26.1749339,38.0872603 C26.0899012,34.5638804 23.8210586,31.5338156 21.9142813,28.5676269 C20.0075041,25.6011383 18.3344918,21.9673997 19.5459834,18.65694 C20.5732875,15.849092 23.353829,14.1559264 25.8128686,12.4498656 C27.5826319,11.2224254 31.1783463,8.48625056 30.7546848,5.90421794 C30.3568636,3.48442453 26.1130373,1.36751765 24.0404011,0.672677976" id="Fill-53" fill="#1A2E35" mask="url(#mask-2)"></path>
                    </g>
                    <path d="M61.5064494,82.614068 L56.6755063,69.8487506 L57.7827351,69.9399164 C59.6116909,70.0910598 61.3574167,69.1674059 62.2531152,67.5687048 C65.9260502,61.0152601 75.4704529,44.3765939 78.1557457,43.5495038 C81.9831218,42.417428 85.9213711,45.4732831 87.4062896,49.9838931 C88.4978941,53.3093472 77.2807795,67.5537104 72.0739496,75.6575743 C67.4638513,82.8323862 61.5064494,82.614068 61.5064494,82.614068" id="Fill-56" fill="#5CC2AD"></path>
                    <path d="M15.7855603,167.224818 C15.9556259,168.405775 16.0271375,170.005376 15.598368,170.376937 C15.5151381,170.445911 15.4006593,170.463904 15.3000022,170.423719 C15.0488099,170.376037 14.8396834,170.203902 14.7450356,169.966691 C14.5803785,169.468277 14.9271199,168.455857 15.7837575,167.252707 L15.7855603,167.224818 Z M14.3643412,169.999678 C14.3643412,169.999678 14.3604351,170.063854 14.3583318,170.10074 C14.492942,170.462105 14.8060309,170.728405 15.1852229,170.804277 C15.41388,170.877749 15.6644712,170.82167 15.8405462,170.658231 C16.621165,169.957694 16.1229872,166.986707 16.076114,166.688919 C16.0655976,166.610348 16.0058042,166.547372 15.9282832,166.532377 C15.8540673,166.517683 15.7777481,166.544973 15.7296731,166.603751 C15.1140118,167.489619 14.1149518,169.062529 14.3643412,169.999678 L14.3643412,169.999678 Z" id="Fill-58" fill="#007CFF"></path>
                    <path d="M18.2744064,168.8751 C18.3185754,169.040038 18.2915332,169.215772 18.1995896,169.359418 C18.0760968,169.573538 17.9556087,169.575637 17.864266,169.560943 C17.2981821,169.444286 16.4382394,168.056706 16.1630097,167.090468 C16.8718164,167.445835 18.0235147,168.122681 18.2500684,168.818421 C18.2536741,168.839113 18.2617867,168.858306 18.2744064,168.8751 M15.7663904,167.076373 C16.0127751,168.068402 16.9466332,169.764866 17.7759281,169.961293 C18.0893174,170.023069 18.4042091,169.86263 18.5379179,169.572938 C18.6836454,169.307238 18.702575,168.990556 18.5892981,168.709262 C18.2134112,167.571188 16.033207,166.63104 15.9433667,166.588756 C15.8862776,166.548871 15.8114608,166.544673 15.7501651,166.57736 C15.6981839,166.622344 15.6702403,166.688919 15.6747473,166.757293 C15.6990853,166.865552 15.7294327,166.971713 15.7663904,167.076373" id="Fill-60" fill="#007CFF"></path>
                    <path d="M81.6261645,95.1229514 L80.7740339,98.1155302 C80.6586538,98.3485429 80.9311793,98.585754 81.3193855,98.5809558 L113.134862,98.5383718 C113.438637,98.556365 113.689228,98.3869285 113.709059,98.2033973 L114.007425,95.2057204 C114.019143,95.0035961 113.761942,94.822464 113.429022,94.8302611 L82.1679104,94.8689466 C81.9551782,94.8512532 81.7484554,94.947817 81.6261645,95.1229514" id="Fill-62" fill="#007CFF"></path>
                    <path d="M81.6261645,95.1229514 L80.7740339,98.1155302 C80.6586538,98.3485429 80.9311793,98.585754 81.3193855,98.5809558 L113.134862,98.5383718 C113.438637,98.556365 113.689228,98.3869285 113.709059,98.2033973 L114.007425,95.2057204 C114.019143,95.0035961 113.761942,94.822464 113.429022,94.8302611 L82.1679104,94.8689466 C81.9551782,94.8512532 81.7484554,94.947817 81.6261645,95.1229514" id="Fill-64" fill="#311547"></path>
                    <path d="M87.7000884,98.8583519 L86.7764462,98.8592516 C86.6012727,98.8487555 86.4582493,98.7665863 86.4741742,98.6568274 L86.8900235,94.7624865 C86.8963334,94.6521278 87.0588872,94.5603622 87.2436757,94.5621615 L88.1685198,94.5522652 C88.3433928,94.5624614 88.4861157,94.6446306 88.4698903,94.763686 L88.054642,98.6487304 C88.0387171,98.7584893 87.8758628,98.8595515 87.7000884,98.8583519" id="Fill-66" fill="#4F216C"></path>
                    <path d="M110.670414,98.8539735 L109.746472,98.8548732 C109.571599,98.844677 109.428575,98.7622079 109.4442,98.652449 L109.859749,94.7674046 C109.866659,94.6480493 110.029213,94.5559838 110.204687,94.5571834 L111.12863,94.5565836 C111.303503,94.5667798 111.446526,94.6492489 111.430601,94.7587079 L111.015353,98.6440522 C111.008442,98.7634075 110.854903,98.8557729 110.670414,98.8539735" id="Fill-68" fill="#4F216C"></path>
                    <path d="M100.150779,98.8334612 L99.2271368,98.834061 C99.0519633,98.8238648 98.90894,98.7413957 98.9248648,98.6316368 L99.3401132,94.7465924 C99.347024,94.6272371 99.5095778,94.5354715 99.6850518,94.5363712 L100.608994,94.5357714 C100.783867,94.5459676 100.926891,94.6284367 100.911266,94.7381956 L100.495718,98.62324 C100.488807,98.7425953 100.335568,98.8352606 100.150779,98.8334612" id="Fill-70" fill="#4F216C"></path>
                    <path d="M91.3019023,26.9474239 C92.2796289,31.957047 93.2390269,41.0136539 89.83381,43.7450306 C89.83381,43.7450306 91.1919306,48.8875039 100.312672,50.2567909 C110.3859,51.7742224 105.098845,46.0487674 105.098845,46.0487674 C99.6194894,43.8805798 99.7525973,39.9235623 100.698474,36.2817268 L91.3019023,26.9474239 Z" id="Fill-72" fill="#FFB570"></path>
                    <path d="M89.8643977,43.7004073 C94.9976128,44.1043559 99.2934203,44.5832765 104.318166,45.7069555 L111.21814,47.752789 C112.44826,50.2229636 110.437821,55.2961628 104.659198,56.2582024 C104.659198,56.2582024 90.1134867,58.2626514 85.8230876,43.3138521 L89.8643977,43.7004073 Z" id="Fill-74" fill="#FFB570"></path>
                    <path d="M95.1317122,30.7610351 L100.68919,36.281067 C100.455124,37.1348471 100.301284,38.0087197 100.229772,38.8909892 C98.1315962,38.2783187 94.7579285,35.9670846 94.5286706,33.7590119 C94.5223607,32.7288978 94.7272807,31.7086801 95.1317122,30.7610351" id="Fill-76" fill="#000000"></path>
                    <path d="M85.1461005,20.608189 C87.6126518,28.3986702 88.4852143,31.7511142 93.5418097,34.8165657 C101.094402,39.4216404 110.179087,34.7026084 110.056195,26.3408412 C109.985585,18.8124618 105.972519,7.34385856 97.3977304,6.11761798 C91.3018121,5.20835865 85.6223441,9.40378679 84.7116221,15.4876074 C84.4544205,17.2047641 84.6031528,18.958507 85.1461005,20.608189" id="Fill-78" fill="#FFB570"></path>
                    <path d="M100.536641,28.0651198 L106.152677,26.1942197 C106.152677,26.1942197 106.901482,31.4327401 100.536641,28.0651198" id="Fill-69" fill="#FFFFFF" transform="translate(103.358243, 27.694220) rotate(-360.000000) translate(-103.358243, -27.694220) "></path>
                    <path d="M82.4627007,5.05913455 C80.4234165,6.35225008 79.0878311,8.6865755 79.0073054,11.0964726 C78.9919814,11.5547009 79.0226293,12.0285234 79.2212394,12.4423684 C79.419549,12.8562133 79.8161683,13.1998846 80.2752852,13.2247752 C80.978984,13.262861 81.4963918,12.603408 81.8818938,12.0147286 C82.4765222,11.1069687 83.0708502,10.1995087 83.6654787,9.29144888 C84.2480884,8.40168224 85.2165005,7.36766964 85.5331949,6.35105053 C86.1097953,4.50104365 83.5537042,4.36699387 82.4627007,5.05913455" id="Fill-84" fill="#5CC2AD"></path>
                    <path d="M83.3388988,6.89504671 C78.436444,12.5440303 76.2484276,28.18557 90.5925246,32.5462363 C92.989968,30.6536454 89.117822,27.2043377 87.4742557,22.8382735 C86.3991771,19.9824434 91.8638096,14.650741 93.998643,12.4669592 C96.1331759,10.2831773 98.089831,7.11906278 101.104138,7.6258729 C101.892869,7.75842324 102.733281,8.01932549 103.461619,7.69004886 C105.849447,6.61045334 104.690537,5.18478748 103.489562,4.1867614 C101.724306,2.71941115 99.2409283,2.05486013 96.989513,1.81135136 C91.9951147,1.27065394 86.6638904,3.06398205 83.3388988,6.89504671" id="Fill-86" fill="#1A2E35"></path>
                    <path d="M99.2690222,5.00200596 C105.026612,9.79600984 97.3973998,9.91686456 93.392146,12.9538267 C89.5233051,15.8693344 92.2362412,20.6504431 85.6992342,22.863614 C80.3580945,24.4233296 79.1249691,23.4873803 77.6457594,22.4545672 C77.6457594,22.4545672 83.7002129,21.6946519 84.5893011,14.9081945 C85.0460143,11.4187019 92.6788322,-0.560609963 99.2690222,5.00200596" id="Fill-88" fill="#1A2E35"></path>
                    <path d="M84.2763926,27.1524271 C85.1774996,28.4518403 86.5548502,29.3452056 88.1109799,29.6381958 C90.1776068,30.0001602 90.9732491,28.1105681 90.2602358,26.2704576 C89.5913915,24.617177 87.7161635,22.4315958 85.7204473,22.903619 C84.2845052,23.2715811 83.4191541,24.7314342 83.7878297,26.1642973 C83.8803742,26.5238626 84.0465337,26.8600367 84.2763926,27.1524271" id="Fill-90" fill="#FFB570"></path>
                    <path d="M98.2757914,5.48698426 C99.3920343,8.31912317 102.61096,7.9469626 104.994282,10.9095526 C106.457266,12.7205741 109.333657,7.07189046 105.419446,4.8305302 C101.506135,2.58887006 96.5252581,1.04954678 98.2757914,5.48698426" id="Fill-92" fill="#1A2E35"></path>
                    <path d="M144.7907,64.4573705 L139.394575,67.522822 L133.777905,79.5786052 C133.777905,79.5786052 139.201974,83.0237145 143.475547,80.2347594 C147.74942,77.4461042 144.7907,64.4573705 144.7907,64.4573705" id="Fill-98" fill="#197A83"></path>
                    <path d="M144.7907,64.4573705 L139.394575,67.522822 L133.777905,79.5786052 C133.777905,79.5786052 139.201974,83.0237145 143.475547,80.2347594 C147.74942,77.4461042 144.7907,64.4573705 144.7907,64.4573705" id="Fill-100" fill="#197A83"></path>
                    <path d="M50.2805311,68.1834145 L56.6739138,69.9872387 L62.7337757,82.5006504 C62.7337757,82.5006504 57.8592646,86.9947667 52.5929417,82.6991761 C48.6390681,79.4744842 50.2805311,68.1834145 50.2805311,68.1834145" id="Fill-102" fill="#197A83"></path>
                    <path d="M50.2805311,68.1834145 L56.6739138,69.9872387 L62.7337757,82.5006504 C62.7337757,82.5006504 57.8592646,86.9947667 52.5929417,82.6991761 C48.6390681,79.4744842 50.2805311,68.1834145 50.2805311,68.1834145" id="Fill-104" fill="#197A83"></path>
                    <path d="M59.7555855,53.987963 C58.8767133,53.987963 58.0128644,53.8335208 57.2166212,53.5090424 C54.3597604,52.3439789 53.0283816,49.3735918 53.5662214,45.3595957 C53.5995735,45.1073901 53.8354418,44.9298567 54.0842302,44.9643437 C54.3363239,44.9979312 54.5139011,45.2294444 54.4793472,45.4816499 C54.0028031,49.047314 55.1271587,51.6629341 57.5660668,52.6570616 C60.2032846,53.7333584 63.7094592,52.6570616 65.5459266,50.2090788 C67.856234,47.1313319 67.1089672,42.7691662 63.4943232,38.2417624 C54.0508782,26.4129942 54.6830653,20.1228508 56.0162469,15.1558117 C57.954273,7.93841581 63.6295344,-0.331585769 79.6751882,1.25871841 C79.9281832,1.28390897 80.1126713,1.50912459 80.0874319,1.76222977 C80.0621925,2.01503505 79.847958,2.19526752 79.5832446,2.17487517 C64.193515,0.64514829 58.752319,8.52229705 56.9074384,15.3939225 C55.5730549,20.3618613 55.0388207,26.1739837 64.2148483,37.6680773 C69.7494901,44.6002801 67.5058869,49.1339815 66.2844798,50.7611719 C64.7571951,52.7962095 62.1983998,53.9873632 59.7555855,53.987963" id="Fill-114" fill="#1A2E35"></path>
                </g>
                <polygon id="Fill-117" fill="#373133" points="39.2463496 253.709026 42.861895 182.017286 41.9616894 181.971703 38.3458436 253.663743"></polygon>
                <polygon id="Fill-118" fill="#373133" points="60.6671262 228.176412 62.1787866 197.498805 61.2788814 197.454722 59.7669206 228.132328"></polygon>
                <polygon id="Fill-119" fill="#373133" points="92.188504 224.419329 93.2146062 204.971916 92.3144006 204.924533 91.2882984 224.371947"></polygon>
                <polygon id="Fill-120" fill="#EE504F" points="0 41.9135567 0.530328059 42.6410842 4.40337547 39.8296375 5.99916716 45.0587784 10.5717068 42.206547 12.3628034 47.45668 17.0837748 44.6008499 18.9376695 49.3051874 19.7765793 48.9759108 17.5305724 43.2783454 12.8546714 46.1071856 11.0584668 40.8417583 6.51867833 43.6735973 4.89674583 38.3589885"></polygon>
                <polygon id="Fill-121" fill="#197A83" points="211.902326 180.280996 214.447 185.3434 218.485906 182.373312 220.564552 187.039264 224.478763 184.077274 226.164996 188.220522 227 187.881948 224.871477 182.651008 220.926016 185.63669 218.85368 180.985132 214.773009 183.986408 212.707884 179.877647"></polygon>
                <polygon id="Fill-122" fill="#6D68E0" points="14.0665236 144.50599 8.63704597 142.922883 8.88974053 142.059506 13.1903555 143.313336 13.2949188 138.411973 18.2499557 139.683496 18.4257301 134.678672 23.9817053 135.832039 23.7981186 136.713109 19.288978 135.77716 19.1114007 140.833266 14.1719883 139.565641"></polygon>
                <polygon id="Fill-123" fill="#6D68E0" points="169.108608 29.6490217 163.67913 28.0659149 163.931825 27.2025383 168.23244 28.4563686 168.337003 23.5550049 173.29204 24.8265285 173.467814 19.8217036 179.023789 20.9750715 178.840203 21.8561414 174.331062 20.9201921 174.153485 25.9762978 169.214072 24.7086727"></polygon>
                <polygon id="Fill-124" fill="#E8315D" points="63.7407755 104.778794 66.3431388 110.041522 72.1620245 110.885406 67.9515502 114.981871 68.9455022 120.766404 63.7407755 118.035027 58.5363492 120.766404 59.5300007 114.981871 55.3195264 110.885406 61.1384121 110.041522"></polygon>
                <polygon id="Fill-125" fill="#F1884F" points="199.181935 106.419089 202.501217 113.131774 209.923707 114.208371 204.552821 119.433313 205.820801 126.811449 199.181935 123.327954 192.543069 126.811449 193.811048 119.433313 188.440162 114.208371 195.862351 113.131774"></polygon>
            </g>
        </g>
    </g>
</svg>